M48
; DRILL file {KiCad 9.0.1} date 2025-06-09T22:45:19-0400
; FORMAT={-:-/ absolute / metric / decimal}
; #@! TF.CreationDate,2025-06-09T22:45:19-04:00
; #@! TF.GenerationSoftware,Kicad,Pcbnew,9.0.1
; #@! TF.FileFunction,Plated,1,2,PTH
FMAT,2
METRIC
; #@! TA.AperFunction,Plated,PTH,ViaDrill
T1C0.400
; #@! TA.AperFunction,Plated,PTH,ComponentDrill
T2C1.000
%
G90
G05
T1
X27.432Y-22.86
X27.432Y-26.67
X27.432Y-30.353
X27.432Y-34.417
X27.432Y-38.227
X27.432Y-42.037
X27.432Y-45.72
X27.432Y-49.53
X30.988Y-22.987
X30.988Y-26.797
X30.988Y-30.48
X30.988Y-34.544
X30.988Y-38.354
X30.988Y-42.164
X30.988Y-45.847
X30.988Y-49.657
X34.925Y-22.86
X34.925Y-26.67
X34.925Y-30.353
X34.925Y-34.417
X34.925Y-38.227
X34.925Y-42.037
X34.925Y-45.72
X34.925Y-49.53
X38.608Y-22.733
X38.608Y-26.543
X38.608Y-30.226
X38.608Y-34.29
X38.608Y-38.1
X38.608Y-41.91
X38.608Y-45.593
X38.608Y-49.403
X42.545Y-22.733
X42.545Y-26.543
X42.545Y-30.226
X42.545Y-34.29
X42.545Y-38.1
X42.545Y-41.91
X42.545Y-45.593
X42.545Y-49.403
X46.355Y-22.733
X46.355Y-26.543
X46.355Y-30.226
X46.355Y-34.29
X46.355Y-38.1
X46.355Y-41.91
X46.355Y-45.593
X46.355Y-49.403
X50.165Y-22.86
X50.165Y-26.67
X50.165Y-30.353
X50.165Y-34.417
X50.165Y-42.037
X50.165Y-49.53
X50.292Y-38.227
X50.292Y-45.72
X53.975Y-22.733
X53.975Y-26.543
X53.975Y-30.226
X53.975Y-34.29
X53.975Y-38.1
X53.975Y-41.91
X53.975Y-45.593
X53.975Y-49.403
X61.727Y-25.394
X61.727Y-29.194
X62.789Y-49.784
X64.567Y-51.816
X64.627Y-54.794
X65.627Y-31.242
X68.293Y-32.294
X68.727Y-25.694
X69.027Y-51.308
X69.527Y-53.694
X70.227Y-22.194
X70.409Y-54.794
X70.917Y-57.404
X73.727Y-22.444
X73.889Y-59.36
X74.227Y-54.094
X86.36Y-59.36
X86.411Y-52.451
X88.793Y-55.874
X106.727Y-25.894
X106.727Y-28.894
X106.927Y-38.294
X106.927Y-41.294
T2
X83.668Y-46.076
X86.208Y-46.076
X88.748Y-46.076
X91.288Y-46.076
X93.828Y-46.076
M30
