%TF.GenerationSoftware,KiCad,Pcbnew,9.0.1*%
%TF.CreationDate,2025-06-09T22:47:13-04:00*%
%TF.ProjectId,blankBusinessCard,626c616e-6b42-4757-9369-6e6573734361,rev?*%
%TF.SameCoordinates,Original*%
%TF.FileFunction,Copper,L2,Bot*%
%TF.FilePolarity,Positive*%
%FSLAX46Y46*%
G04 Gerber Fmt 4.6, Leading zero omitted, Abs format (unit mm)*
G04 Created by KiCad (PCBNEW 9.0.1) date 2025-06-09 22:47:13*
%MOMM*%
%LPD*%
G01*
G04 APERTURE LIST*
G04 Aperture macros list*
%AMRoundRect*
0 Rectangle with rounded corners*
0 $1 Rounding radius*
0 $2 $3 $4 $5 $6 $7 $8 $9 X,Y pos of 4 corners*
0 Add a 4 corners polygon primitive as box body*
4,1,4,$2,$3,$4,$5,$6,$7,$8,$9,$2,$3,0*
0 Add four circle primitives for the rounded corners*
1,1,$1+$1,$2,$3*
1,1,$1+$1,$4,$5*
1,1,$1+$1,$6,$7*
1,1,$1+$1,$8,$9*
0 Add four rect primitives between the rounded corners*
20,1,$1+$1,$2,$3,$4,$5,0*
20,1,$1+$1,$4,$5,$6,$7,0*
20,1,$1+$1,$6,$7,$8,$9,0*
20,1,$1+$1,$8,$9,$2,$3,0*%
G04 Aperture macros list end*
%TA.AperFunction,EtchedComponent*%
%ADD10C,0.100000*%
%TD*%
%TA.AperFunction,EtchedComponent*%
%ADD11C,1.200000*%
%TD*%
%TA.AperFunction,SMDPad,CuDef*%
%ADD12RoundRect,0.581625X-0.581625X-1.878375X0.581625X-1.878375X0.581625X1.878375X-0.581625X1.878375X0*%
%TD*%
%TA.AperFunction,ComponentPad*%
%ADD13R,1.700000X1.700000*%
%TD*%
%TA.AperFunction,ComponentPad*%
%ADD14O,1.700000X1.700000*%
%TD*%
%TA.AperFunction,ViaPad*%
%ADD15C,0.800000*%
%TD*%
%TA.AperFunction,Conductor*%
%ADD16C,0.750000*%
%TD*%
%TA.AperFunction,Conductor*%
%ADD17C,0.250000*%
%TD*%
%TA.AperFunction,Conductor*%
%ADD18C,0.400000*%
%TD*%
G04 APERTURE END LIST*
D10*
%TO.C,J1*%
X93972400Y-32326398D02*
X93972400Y-34826398D01*
D11*
X93372400Y-32346398D02*
G75*
G02*
X92172400Y-32346398I-600000J0D01*
G01*
X92172400Y-32346398D02*
G75*
G02*
X93372400Y-32346398I600000J0D01*
G01*
X93372402Y-34846400D02*
G75*
G02*
X92172402Y-34846400I-600000J0D01*
G01*
X92172402Y-34846400D02*
G75*
G02*
X93372402Y-34846400I600000J0D01*
G01*
D10*
X92972402Y-35996400D02*
X77197002Y-35996400D01*
X77197002Y-31196399D01*
X92972402Y-31196399D01*
X92972402Y-35996400D01*
%TA.AperFunction,EtchedComponent*%
G36*
X92972402Y-35996400D02*
G01*
X77197002Y-35996400D01*
X77197002Y-31196399D01*
X92972402Y-31196399D01*
X92972402Y-35996400D01*
G37*
%TD.AperFunction*%
X93922400Y-32746400D02*
X93922400Y-34396400D01*
X91822400Y-35146400D01*
X91622402Y-34846400D01*
X91622400Y-32346398D01*
X93922400Y-32746400D01*
%TA.AperFunction,EtchedComponent*%
G36*
X93922400Y-32746400D02*
G01*
X93922400Y-34396400D01*
X91822400Y-35146400D01*
X91622402Y-34846400D01*
X91622400Y-32346398D01*
X93922400Y-32746400D01*
G37*
%TD.AperFunction*%
%TD*%
D12*
%TO.P,J1,2,Pin_2*%
%TO.N,GND*%
X77955650Y-33586400D03*
%TD*%
D13*
%TO.P,J2,1,Pin_1*%
%TO.N,SW_DIO*%
X83667600Y-46075600D03*
D14*
%TO.P,J2,2,Pin_2*%
%TO.N,SW_CLK*%
X86207600Y-46075600D03*
%TO.P,J2,3,Pin_3*%
%TO.N,RESET*%
X88747600Y-46075600D03*
%TO.P,J2,4,Pin_4*%
%TO.N,+3V0*%
X91287600Y-46075600D03*
%TO.P,J2,5,Pin_5*%
%TO.N,GND*%
X93827600Y-46075600D03*
%TD*%
D15*
%TO.N,Row1*%
X53975000Y-34290000D03*
X53975000Y-30226000D03*
X53975000Y-49403000D03*
X53975000Y-38100000D03*
X53975000Y-41910000D03*
X53975000Y-45593000D03*
X53975000Y-26543000D03*
X53975000Y-22733000D03*
%TO.N,Row2*%
X50165000Y-34417000D03*
X50165000Y-42037000D03*
X50165000Y-26670000D03*
X50165000Y-30353000D03*
X50292000Y-38227000D03*
X50165000Y-49530000D03*
X50292000Y-45720000D03*
X50165000Y-22860000D03*
%TO.N,Row3*%
X46355000Y-45593000D03*
X46355000Y-38100000D03*
X46355000Y-30226000D03*
X46355000Y-22733000D03*
X46355000Y-49403000D03*
X46355000Y-34290000D03*
X46355000Y-41910000D03*
X46355000Y-26543000D03*
%TO.N,Row4*%
X42545000Y-41910000D03*
X42545000Y-22733000D03*
X42545000Y-49403000D03*
X42545000Y-45593000D03*
X42545000Y-26543000D03*
X42545000Y-38100000D03*
X42545000Y-34290000D03*
X42545000Y-30226000D03*
%TO.N,Row5*%
X38608000Y-38100000D03*
X38608000Y-41910000D03*
X38608000Y-34290000D03*
X38608000Y-30226000D03*
X38608000Y-26543000D03*
X38608000Y-22733000D03*
X38608000Y-45593000D03*
X38608000Y-49403000D03*
%TO.N,Row6*%
X34925000Y-34417000D03*
X34925000Y-22860000D03*
X34925000Y-38227000D03*
X34925000Y-49530000D03*
X34925000Y-26670000D03*
X34925000Y-42037000D03*
X34925000Y-45720000D03*
X34925000Y-30353000D03*
%TO.N,Row7*%
X30988000Y-42164000D03*
X30988000Y-26797000D03*
X30988000Y-34544000D03*
X30988000Y-22987000D03*
X30988000Y-45847000D03*
X30988000Y-38354000D03*
X30988000Y-30480000D03*
X30988000Y-49657000D03*
%TO.N,Row8*%
X27432000Y-30353000D03*
X27432000Y-49530000D03*
X27432000Y-22860000D03*
X27432000Y-38227000D03*
X27432000Y-42037000D03*
X27432000Y-45720000D03*
X27432000Y-26670000D03*
X27432000Y-34417000D03*
%TO.N,+3V0*%
X64566800Y-51816000D03*
X65626800Y-31242000D03*
X70226800Y-22194000D03*
X106926800Y-41294000D03*
X106726800Y-25894000D03*
X106726800Y-28894000D03*
X106926800Y-38294000D03*
%TO.N,GND*%
X69026800Y-51308000D03*
X88792800Y-55874000D03*
X68726800Y-25694000D03*
X73726800Y-22444000D03*
X68292800Y-32294000D03*
%TO.N,RESET*%
X74226800Y-54094000D03*
%TO.N,Col7*%
X61726800Y-29194000D03*
X70408800Y-54794000D03*
%TO.N,Col8*%
X61726800Y-25394000D03*
X69526800Y-53694000D03*
%TO.N,BUTTON*%
X62788800Y-49784000D03*
X86410800Y-52451000D03*
%TO.N,BUTTON2*%
X73888600Y-59359800D03*
X86360000Y-59359800D03*
%TO.N,SW_DIO*%
X64626800Y-54794000D03*
%TO.N,SW_CLK*%
X70916800Y-57404000D03*
%TD*%
D16*
%TO.N,Row1*%
X53975000Y-49403000D02*
X53975000Y-22733000D01*
%TO.N,Row2*%
X50165000Y-49530000D02*
X50165000Y-22860000D01*
%TO.N,Row3*%
X46355000Y-49403000D02*
X46355000Y-22733000D01*
%TO.N,Row4*%
X42545000Y-49403000D02*
X42545000Y-22733000D01*
%TO.N,Row5*%
X38608000Y-49403000D02*
X38608000Y-22733000D01*
%TO.N,Row6*%
X34925000Y-49530000D02*
X34925000Y-22860000D01*
%TO.N,Row7*%
X30988000Y-22987000D02*
X30988000Y-49657000D01*
%TO.N,Row8*%
X27432000Y-22860000D02*
X27432000Y-49530000D01*
%TO.N,+3V0*%
X88016230Y-62992000D02*
X67510800Y-62992000D01*
X109270800Y-39116000D02*
X109270800Y-38100000D01*
X65626800Y-22345200D02*
X65074800Y-21793200D01*
X65779200Y-24384000D02*
X65626800Y-24536400D01*
X66592800Y-24384000D02*
X65779200Y-24384000D01*
X109270800Y-49276000D02*
X108762800Y-49784000D01*
X109270800Y-48768000D02*
X109270800Y-49276000D01*
X67360800Y-24384000D02*
X66592800Y-24384000D01*
X60248800Y-22961600D02*
X61417200Y-21793200D01*
X107034800Y-41402000D02*
X106926800Y-41294000D01*
X60248800Y-46174000D02*
X60248800Y-22961600D01*
X108762800Y-49784000D02*
X92797600Y-49784000D01*
X65626800Y-24536400D02*
X65626800Y-22345200D01*
X65626800Y-31242000D02*
X65824800Y-31242000D01*
X92797600Y-58210630D02*
X88016230Y-62992000D01*
X92797600Y-49784000D02*
X91287600Y-48274000D01*
X109270800Y-38100000D02*
X109270800Y-28956000D01*
X109208800Y-28894000D02*
X109270800Y-28956000D01*
X109270800Y-28956000D02*
X109270800Y-25908000D01*
X64566800Y-48148000D02*
X64566800Y-51816000D01*
X61417200Y-21793200D02*
X65074800Y-21793200D01*
X66492800Y-30574000D02*
X66492800Y-24484000D01*
X92797600Y-49784000D02*
X92797600Y-58210630D01*
X69646800Y-24384000D02*
X70226800Y-23804000D01*
X60248800Y-55730000D02*
X60248800Y-46174000D01*
X65824800Y-31242000D02*
X66492800Y-30574000D01*
X106926800Y-38294000D02*
X108448800Y-38294000D01*
X91287600Y-48274000D02*
X91287600Y-46075600D01*
X70226800Y-23804000D02*
X70226800Y-22194000D01*
X106726800Y-25894000D02*
X109256800Y-25894000D01*
X107072800Y-41148000D02*
X109270800Y-41148000D01*
X62592800Y-46174000D02*
X64566800Y-48148000D01*
X109256800Y-25894000D02*
X109270800Y-25908000D01*
X109270800Y-48768000D02*
X109270800Y-41148000D01*
X67510800Y-62992000D02*
X60248800Y-55730000D01*
X106726800Y-28894000D02*
X109208800Y-28894000D01*
X109076800Y-38294000D02*
X109270800Y-38100000D01*
X66492800Y-24484000D02*
X66592800Y-24384000D01*
X109270800Y-41148000D02*
X109270800Y-39116000D01*
X106926800Y-38294000D02*
X109076800Y-38294000D01*
X106926800Y-41294000D02*
X107072800Y-41148000D01*
X60248800Y-46174000D02*
X62592800Y-46174000D01*
X67360800Y-24384000D02*
X69646800Y-24384000D01*
%TO.N,GND*%
X73166800Y-32294000D02*
X73726800Y-31734000D01*
X73726800Y-22444000D02*
X73726800Y-25654000D01*
X73726800Y-22444000D02*
X73726800Y-46608000D01*
X76572002Y-32766000D02*
X76572002Y-33586400D01*
X68726800Y-25694000D02*
X73686800Y-25694000D01*
X73726800Y-31734000D02*
X73726800Y-25654000D01*
X68292800Y-32294000D02*
X73166800Y-32294000D01*
X73710800Y-32766000D02*
X76572002Y-32766000D01*
X73238800Y-32294000D02*
X73710800Y-32766000D01*
X73726800Y-46608000D02*
X69026800Y-51308000D01*
X68292800Y-32294000D02*
X73238800Y-32294000D01*
X73686800Y-25694000D02*
X73726800Y-25654000D01*
D17*
%TO.N,RESET*%
X86846000Y-44174000D02*
X82319600Y-44174000D01*
X81330800Y-45162800D02*
X81330800Y-46990000D01*
X88747600Y-46075600D02*
X86846000Y-44174000D01*
X81330800Y-46990000D02*
X74226800Y-54094000D01*
X82319600Y-44174000D02*
X81330800Y-45162800D01*
%TO.N,Col7*%
X63550800Y-29210000D02*
X61742800Y-29210000D01*
X66751200Y-54762400D02*
X66090800Y-54102000D01*
X66090800Y-41910000D02*
X63550800Y-39370000D01*
X66090800Y-54102000D02*
X66090800Y-41910000D01*
X63550800Y-39370000D02*
X63550800Y-29210000D01*
X61742800Y-29210000D02*
X61726800Y-29194000D01*
X66751200Y-54794000D02*
X66751200Y-54762400D01*
X70408800Y-54794000D02*
X66751200Y-54794000D01*
%TO.N,Col8*%
X69526800Y-53790000D02*
X69042800Y-54274000D01*
X63092800Y-25394000D02*
X61726800Y-25394000D01*
X66942800Y-54274000D02*
X66542800Y-53874000D01*
X66542800Y-53874000D02*
X66542800Y-41715000D01*
X69526800Y-53694000D02*
X69526800Y-53790000D01*
X64001800Y-26303000D02*
X63092800Y-25394000D01*
X64001800Y-39174000D02*
X64001800Y-26303000D01*
X69042800Y-54274000D02*
X66942800Y-54274000D01*
X66542800Y-41715000D02*
X64001800Y-39174000D01*
D18*
%TO.N,BUTTON*%
X86152800Y-61214000D02*
X87640800Y-59726000D01*
X87640800Y-59726000D02*
X87640800Y-58126000D01*
X87640800Y-58126000D02*
X86410800Y-56896000D01*
X62788800Y-49784000D02*
X62788800Y-54864000D01*
X69138800Y-61214000D02*
X86152800Y-61214000D01*
X86410800Y-56896000D02*
X86410800Y-52451000D01*
X62788800Y-54864000D02*
X69138800Y-61214000D01*
D16*
%TO.N,BUTTON2*%
X73888600Y-59359800D02*
X86360000Y-59359800D01*
D18*
%TO.N,SW_DIO*%
X64626800Y-54794000D02*
X65966800Y-56134000D01*
X65966800Y-56134000D02*
X76250800Y-56134000D01*
X83667600Y-48717200D02*
X83667600Y-46075600D01*
X76250800Y-56134000D02*
X83667600Y-48717200D01*
%TO.N,SW_CLK*%
X77520800Y-57404000D02*
X86207600Y-48717200D01*
X86207600Y-48717200D02*
X86207600Y-46075600D01*
X70916800Y-57404000D02*
X77520800Y-57404000D01*
%TD*%
%TA.AperFunction,Conductor*%
%TO.N,GND*%
G36*
X76908371Y-30558922D02*
G01*
X77008291Y-30627891D01*
X77012800Y-30632400D01*
X77014823Y-30632400D01*
X77034786Y-30646179D01*
X77152347Y-30727325D01*
X77152356Y-30727330D01*
X77155544Y-30729257D01*
X77155426Y-30729451D01*
X77155431Y-30729454D01*
X77155382Y-30729524D01*
X77154543Y-30730912D01*
X77199287Y-30774087D01*
X77215356Y-30842084D01*
X77192112Y-30907974D01*
X77136936Y-30950837D01*
X77115727Y-30957065D01*
X77099229Y-30960346D01*
X77099223Y-30960349D01*
X77016336Y-31015732D01*
X77016335Y-31015733D01*
X76960952Y-31098620D01*
X76960949Y-31098627D01*
X76941502Y-31196394D01*
X76941502Y-35996404D01*
X76960949Y-36094171D01*
X76960950Y-36094175D01*
X76960951Y-36094176D01*
X77016336Y-36177066D01*
X77099226Y-36232451D01*
X77108910Y-36234377D01*
X77170821Y-36266762D01*
X77205396Y-36327477D01*
X77202229Y-36386570D01*
X77076372Y-36512427D01*
X76958370Y-36593878D01*
X76958364Y-36593883D01*
X76921208Y-36626800D01*
X76657200Y-36626800D01*
X75996800Y-35966400D01*
X75996800Y-31191200D01*
X76149200Y-31191200D01*
X76809600Y-30530800D01*
X76876628Y-30530800D01*
X76908371Y-30558922D01*
G37*
%TD.AperFunction*%
%TD*%
%TA.AperFunction,Conductor*%
%TO.N,GND*%
G36*
X110254418Y-18800816D02*
G01*
X110454561Y-18815130D01*
X110472063Y-18817647D01*
X110663797Y-18859355D01*
X110680755Y-18864334D01*
X110864609Y-18932909D01*
X110880701Y-18940259D01*
X111052904Y-19034288D01*
X111067784Y-19043849D01*
X111224867Y-19161441D01*
X111238237Y-19173027D01*
X111376972Y-19311762D01*
X111388558Y-19325132D01*
X111506146Y-19482210D01*
X111515711Y-19497095D01*
X111609740Y-19669298D01*
X111617090Y-19685390D01*
X111685662Y-19869236D01*
X111690646Y-19886212D01*
X111732351Y-20077931D01*
X111734869Y-20095442D01*
X111749184Y-20295580D01*
X111749500Y-20304427D01*
X111749500Y-67295572D01*
X111749184Y-67304419D01*
X111734869Y-67504557D01*
X111732351Y-67522068D01*
X111690646Y-67713787D01*
X111685662Y-67730763D01*
X111617090Y-67914609D01*
X111609740Y-67930701D01*
X111515711Y-68102904D01*
X111506146Y-68117789D01*
X111388558Y-68274867D01*
X111376972Y-68288237D01*
X111238237Y-68426972D01*
X111224867Y-68438558D01*
X111067789Y-68556146D01*
X111052904Y-68565711D01*
X110880701Y-68659740D01*
X110864609Y-68667090D01*
X110680763Y-68735662D01*
X110663787Y-68740646D01*
X110472068Y-68782351D01*
X110454557Y-68784869D01*
X110273779Y-68797799D01*
X110254417Y-68799184D01*
X110245572Y-68799500D01*
X24504428Y-68799500D01*
X24495582Y-68799184D01*
X24473622Y-68797613D01*
X24295442Y-68784869D01*
X24277931Y-68782351D01*
X24086212Y-68740646D01*
X24069236Y-68735662D01*
X23885390Y-68667090D01*
X23869298Y-68659740D01*
X23697095Y-68565711D01*
X23682210Y-68556146D01*
X23612924Y-68504279D01*
X23525132Y-68438558D01*
X23511762Y-68426972D01*
X23373027Y-68288237D01*
X23361441Y-68274867D01*
X23243849Y-68117784D01*
X23234288Y-68102904D01*
X23140259Y-67930701D01*
X23132909Y-67914609D01*
X23099751Y-67825710D01*
X23064334Y-67730755D01*
X23059355Y-67713797D01*
X23017647Y-67522063D01*
X23015130Y-67504556D01*
X23008175Y-67407318D01*
X23000816Y-67304418D01*
X23000500Y-67295572D01*
X23000500Y-22780943D01*
X26831500Y-22780943D01*
X26831500Y-22939056D01*
X26852275Y-23016590D01*
X26856500Y-23048683D01*
X26856500Y-26481316D01*
X26852275Y-26513409D01*
X26831500Y-26590943D01*
X26831500Y-26749056D01*
X26852275Y-26826590D01*
X26856500Y-26858683D01*
X26856500Y-30164316D01*
X26852274Y-30196409D01*
X26831500Y-30273943D01*
X26831500Y-30432057D01*
X26840193Y-30464500D01*
X26852275Y-30509590D01*
X26856500Y-30541683D01*
X26856500Y-34228316D01*
X26852275Y-34260409D01*
X26831500Y-34337943D01*
X26831500Y-34496056D01*
X26852275Y-34573590D01*
X26856500Y-34605683D01*
X26856500Y-38038316D01*
X26852274Y-38070409D01*
X26831500Y-38147943D01*
X26831500Y-38306057D01*
X26838165Y-38330932D01*
X26852275Y-38383590D01*
X26856500Y-38415683D01*
X26856500Y-41848316D01*
X26852275Y-41880409D01*
X26831500Y-41957943D01*
X26831500Y-42116056D01*
X26852275Y-42193590D01*
X26856500Y-42225683D01*
X26856500Y-45531316D01*
X26852275Y-45563409D01*
X26831500Y-45640943D01*
X26831500Y-45799056D01*
X26852275Y-45876590D01*
X26856500Y-45908683D01*
X26856500Y-49341316D01*
X26852274Y-49373409D01*
X26831500Y-49450943D01*
X26831500Y-49609057D01*
X26865530Y-49736057D01*
X26872423Y-49761783D01*
X26872426Y-49761790D01*
X26951475Y-49898709D01*
X26951479Y-49898714D01*
X26951480Y-49898716D01*
X27063284Y-50010520D01*
X27063286Y-50010521D01*
X27063290Y-50010524D01*
X27200209Y-50089573D01*
X27200216Y-50089577D01*
X27352943Y-50130500D01*
X27352945Y-50130500D01*
X27511055Y-50130500D01*
X27511057Y-50130500D01*
X27663784Y-50089577D01*
X27800716Y-50010520D01*
X27912520Y-49898716D01*
X27991577Y-49761784D01*
X28032500Y-49609057D01*
X28032500Y-49450943D01*
X28011725Y-49373409D01*
X28007500Y-49341316D01*
X28007500Y-45908683D01*
X28011725Y-45876590D01*
X28032500Y-45799057D01*
X28032500Y-45640943D01*
X28011725Y-45563409D01*
X28007500Y-45531316D01*
X28007500Y-42225683D01*
X28011725Y-42193590D01*
X28013950Y-42185286D01*
X28032500Y-42116057D01*
X28032500Y-41957943D01*
X28011725Y-41880409D01*
X28007500Y-41848316D01*
X28007500Y-38415683D01*
X28011725Y-38383590D01*
X28013177Y-38378172D01*
X28032500Y-38306057D01*
X28032500Y-38147943D01*
X28011725Y-38070409D01*
X28007500Y-38038316D01*
X28007500Y-34605683D01*
X28011725Y-34573590D01*
X28021392Y-34537511D01*
X28032500Y-34496057D01*
X28032500Y-34337943D01*
X28011725Y-34260409D01*
X28007500Y-34228316D01*
X28007500Y-30541683D01*
X28011725Y-30509590D01*
X28015445Y-30495707D01*
X28032500Y-30432057D01*
X28032500Y-30273943D01*
X28011725Y-30196409D01*
X28007500Y-30164316D01*
X28007500Y-26858683D01*
X28011725Y-26826590D01*
X28032500Y-26749057D01*
X28032500Y-26590943D01*
X28011725Y-26513409D01*
X28007500Y-26481316D01*
X28007500Y-23048683D01*
X28009212Y-23028147D01*
X28010192Y-23022311D01*
X28032500Y-22939057D01*
X28032500Y-22907943D01*
X30387500Y-22907943D01*
X30387500Y-23066056D01*
X30408275Y-23143590D01*
X30412500Y-23175683D01*
X30412500Y-26608316D01*
X30408275Y-26640409D01*
X30387500Y-26717943D01*
X30387500Y-26876056D01*
X30408275Y-26953590D01*
X30412500Y-26985683D01*
X30412500Y-30291316D01*
X30408275Y-30323409D01*
X30387500Y-30400943D01*
X30387500Y-30559056D01*
X30408275Y-30636590D01*
X30412500Y-30668683D01*
X30412500Y-34355316D01*
X30408275Y-34387409D01*
X30387500Y-34464943D01*
X30387500Y-34623056D01*
X30408275Y-34700590D01*
X30412500Y-34732683D01*
X30412500Y-38165316D01*
X30408275Y-38197409D01*
X30387500Y-38274943D01*
X30387500Y-38433056D01*
X30408275Y-38510590D01*
X30412500Y-38542683D01*
X30412500Y-41975316D01*
X30408274Y-42007409D01*
X30387500Y-42084943D01*
X30387500Y-42243057D01*
X30408275Y-42320590D01*
X30412500Y-42352683D01*
X30412500Y-45658316D01*
X30408275Y-45690409D01*
X30387500Y-45767943D01*
X30387500Y-45926056D01*
X30408275Y-46003590D01*
X30412500Y-46035683D01*
X30412500Y-49468316D01*
X30408274Y-49500409D01*
X30387500Y-49577943D01*
X30387500Y-49736057D01*
X30421530Y-49863057D01*
X30428423Y-49888783D01*
X30428426Y-49888790D01*
X30507475Y-50025709D01*
X30507479Y-50025714D01*
X30507480Y-50025716D01*
X30619284Y-50137520D01*
X30619286Y-50137521D01*
X30619290Y-50137524D01*
X30756209Y-50216573D01*
X30756216Y-50216577D01*
X30908943Y-50257500D01*
X30908945Y-50257500D01*
X31067055Y-50257500D01*
X31067057Y-50257500D01*
X31219784Y-50216577D01*
X31356716Y-50137520D01*
X31468520Y-50025716D01*
X31547577Y-49888784D01*
X31588500Y-49736057D01*
X31588500Y-49577943D01*
X31567725Y-49500409D01*
X31563500Y-49468316D01*
X31563500Y-46035683D01*
X31567725Y-46003590D01*
X31576153Y-45972135D01*
X31588500Y-45926057D01*
X31588500Y-45767943D01*
X31567725Y-45690409D01*
X31563500Y-45658316D01*
X31563500Y-42352683D01*
X31567725Y-42320590D01*
X31588500Y-42243057D01*
X31588500Y-42084943D01*
X31567725Y-42007409D01*
X31563500Y-41975316D01*
X31563500Y-38542683D01*
X31567725Y-38510590D01*
X31588500Y-38433057D01*
X31588500Y-38274943D01*
X31567725Y-38197409D01*
X31563500Y-38165316D01*
X31563500Y-34732683D01*
X31567725Y-34700590D01*
X31588500Y-34623057D01*
X31588500Y-34464943D01*
X31567725Y-34387409D01*
X31563500Y-34355316D01*
X31563500Y-30668683D01*
X31567725Y-30636590D01*
X31568813Y-30632528D01*
X31588500Y-30559057D01*
X31588500Y-30400943D01*
X31567725Y-30323409D01*
X31563500Y-30291316D01*
X31563500Y-26985683D01*
X31567725Y-26953590D01*
X31588500Y-26876057D01*
X31588500Y-26717943D01*
X31567725Y-26640409D01*
X31563500Y-26608316D01*
X31563500Y-23175683D01*
X31567725Y-23143590D01*
X31588500Y-23066057D01*
X31588500Y-22907943D01*
X31554471Y-22780943D01*
X34324500Y-22780943D01*
X34324500Y-22939056D01*
X34345275Y-23016590D01*
X34349500Y-23048683D01*
X34349500Y-26481316D01*
X34345275Y-26513409D01*
X34324500Y-26590943D01*
X34324500Y-26749056D01*
X34345275Y-26826590D01*
X34349500Y-26858683D01*
X34349500Y-30164316D01*
X34345274Y-30196409D01*
X34324500Y-30273943D01*
X34324500Y-30432057D01*
X34333193Y-30464500D01*
X34345275Y-30509590D01*
X34349500Y-30541683D01*
X34349500Y-34228316D01*
X34345275Y-34260409D01*
X34324500Y-34337943D01*
X34324500Y-34496056D01*
X34345275Y-34573590D01*
X34349500Y-34605683D01*
X34349500Y-38038316D01*
X34345274Y-38070409D01*
X34324500Y-38147943D01*
X34324500Y-38306057D01*
X34331165Y-38330932D01*
X34345275Y-38383590D01*
X34349500Y-38415683D01*
X34349500Y-41848316D01*
X34345275Y-41880409D01*
X34324500Y-41957943D01*
X34324500Y-42116056D01*
X34345275Y-42193590D01*
X34349500Y-42225683D01*
X34349500Y-45531316D01*
X34345275Y-45563409D01*
X34324500Y-45640943D01*
X34324500Y-45799056D01*
X34345275Y-45876590D01*
X34349500Y-45908683D01*
X34349500Y-49341316D01*
X34345274Y-49373409D01*
X34324500Y-49450943D01*
X34324500Y-49609057D01*
X34358530Y-49736057D01*
X34365423Y-49761783D01*
X34365426Y-49761790D01*
X34444475Y-49898709D01*
X34444479Y-49898714D01*
X34444480Y-49898716D01*
X34556284Y-50010520D01*
X34556286Y-50010521D01*
X34556290Y-50010524D01*
X34693209Y-50089573D01*
X34693216Y-50089577D01*
X34845943Y-50130500D01*
X34845945Y-50130500D01*
X35004055Y-50130500D01*
X35004057Y-50130500D01*
X35156784Y-50089577D01*
X35293716Y-50010520D01*
X35405520Y-49898716D01*
X35484577Y-49761784D01*
X35525500Y-49609057D01*
X35525500Y-49450943D01*
X35504725Y-49373409D01*
X35500500Y-49341316D01*
X35500500Y-45908683D01*
X35504725Y-45876590D01*
X35525500Y-45799057D01*
X35525500Y-45640943D01*
X35504725Y-45563409D01*
X35500500Y-45531316D01*
X35500500Y-42225683D01*
X35504725Y-42193590D01*
X35506950Y-42185286D01*
X35525500Y-42116057D01*
X35525500Y-41957943D01*
X35504725Y-41880409D01*
X35500500Y-41848316D01*
X35500500Y-38415683D01*
X35504725Y-38383590D01*
X35506177Y-38378172D01*
X35525500Y-38306057D01*
X35525500Y-38147943D01*
X35504725Y-38070409D01*
X35500500Y-38038316D01*
X35500500Y-34605683D01*
X35504725Y-34573590D01*
X35514392Y-34537511D01*
X35525500Y-34496057D01*
X35525500Y-34337943D01*
X35504725Y-34260409D01*
X35500500Y-34228316D01*
X35500500Y-30541683D01*
X35504725Y-30509590D01*
X35508445Y-30495707D01*
X35525500Y-30432057D01*
X35525500Y-30273943D01*
X35504725Y-30196409D01*
X35500500Y-30164316D01*
X35500500Y-26858683D01*
X35504725Y-26826590D01*
X35525500Y-26749057D01*
X35525500Y-26590943D01*
X35504725Y-26513409D01*
X35500500Y-26481316D01*
X35500500Y-23048683D01*
X35504725Y-23016590D01*
X35525500Y-22939057D01*
X35525500Y-22780943D01*
X35491471Y-22653943D01*
X38007500Y-22653943D01*
X38007500Y-22812056D01*
X38028275Y-22889590D01*
X38032500Y-22921683D01*
X38032500Y-26354316D01*
X38028274Y-26386409D01*
X38007500Y-26463943D01*
X38007500Y-26622057D01*
X38028275Y-26699590D01*
X38032500Y-26731683D01*
X38032500Y-30037316D01*
X38028275Y-30069409D01*
X38021387Y-30095114D01*
X38007500Y-30146943D01*
X38007500Y-30305057D01*
X38019890Y-30351297D01*
X38028275Y-30382590D01*
X38032500Y-30414683D01*
X38032500Y-34101316D01*
X38028274Y-34133409D01*
X38007500Y-34210943D01*
X38007500Y-34369057D01*
X38022541Y-34425191D01*
X38028275Y-34446590D01*
X38032500Y-34478683D01*
X38032500Y-37911316D01*
X38028274Y-37943409D01*
X38007500Y-38020943D01*
X38007500Y-38179057D01*
X38017116Y-38214943D01*
X38028275Y-38256590D01*
X38032500Y-38288683D01*
X38032500Y-41721316D01*
X38028274Y-41753409D01*
X38007500Y-41830943D01*
X38007500Y-41989057D01*
X38021784Y-42042366D01*
X38028275Y-42066590D01*
X38032500Y-42098683D01*
X38032500Y-45404316D01*
X38028274Y-45436409D01*
X38007500Y-45513943D01*
X38007500Y-45672057D01*
X38026431Y-45742707D01*
X38028275Y-45749590D01*
X38032500Y-45781683D01*
X38032500Y-49214316D01*
X38028274Y-49246409D01*
X38007500Y-49323943D01*
X38007500Y-49482057D01*
X38046972Y-49629366D01*
X38048423Y-49634783D01*
X38048426Y-49634790D01*
X38127475Y-49771709D01*
X38127479Y-49771714D01*
X38127480Y-49771716D01*
X38239284Y-49883520D01*
X38239286Y-49883521D01*
X38239290Y-49883524D01*
X38376209Y-49962573D01*
X38376216Y-49962577D01*
X38528943Y-50003500D01*
X38528945Y-50003500D01*
X38687055Y-50003500D01*
X38687057Y-50003500D01*
X38839784Y-49962577D01*
X38976716Y-49883520D01*
X39088520Y-49771716D01*
X39167577Y-49634784D01*
X39208500Y-49482057D01*
X39208500Y-49323943D01*
X39187725Y-49246409D01*
X39183500Y-49214316D01*
X39183500Y-45781683D01*
X39187725Y-45749590D01*
X39189569Y-45742707D01*
X39208500Y-45672057D01*
X39208500Y-45513943D01*
X39187725Y-45436409D01*
X39183500Y-45404316D01*
X39183500Y-42098683D01*
X39187725Y-42066590D01*
X39193556Y-42044827D01*
X39208500Y-41989057D01*
X39208500Y-41830943D01*
X39187725Y-41753409D01*
X39183500Y-41721316D01*
X39183500Y-38288683D01*
X39187725Y-38256590D01*
X39198884Y-38214943D01*
X39208500Y-38179057D01*
X39208500Y-38020943D01*
X39187725Y-37943409D01*
X39183500Y-37911316D01*
X39183500Y-34478683D01*
X39187725Y-34446590D01*
X39193459Y-34425191D01*
X39208500Y-34369057D01*
X39208500Y-34210943D01*
X39187725Y-34133409D01*
X39183500Y-34101316D01*
X39183500Y-30414683D01*
X39187725Y-30382590D01*
X39193153Y-30362331D01*
X39208500Y-30305057D01*
X39208500Y-30146943D01*
X39187725Y-30069409D01*
X39183500Y-30037316D01*
X39183500Y-26731683D01*
X39187725Y-26699590D01*
X39208500Y-26622057D01*
X39208500Y-26463943D01*
X39187725Y-26386409D01*
X39183500Y-26354316D01*
X39183500Y-22921683D01*
X39187725Y-22889590D01*
X39199508Y-22845614D01*
X39208500Y-22812057D01*
X39208500Y-22653943D01*
X41944500Y-22653943D01*
X41944500Y-22812056D01*
X41965275Y-22889590D01*
X41969500Y-22921683D01*
X41969500Y-26354316D01*
X41965274Y-26386409D01*
X41944500Y-26463943D01*
X41944500Y-26622057D01*
X41965275Y-26699590D01*
X41969500Y-26731683D01*
X41969500Y-30037316D01*
X41965275Y-30069409D01*
X41958387Y-30095114D01*
X41944500Y-30146943D01*
X41944500Y-30305057D01*
X41956890Y-30351297D01*
X41965275Y-30382590D01*
X41969500Y-30414683D01*
X41969500Y-34101316D01*
X41965274Y-34133409D01*
X41944500Y-34210943D01*
X41944500Y-34369057D01*
X41959541Y-34425191D01*
X41965275Y-34446590D01*
X41969500Y-34478683D01*
X41969500Y-37911316D01*
X41965274Y-37943409D01*
X41944500Y-38020943D01*
X41944500Y-38179057D01*
X41954116Y-38214943D01*
X41965275Y-38256590D01*
X41969500Y-38288683D01*
X41969500Y-41721316D01*
X41965274Y-41753409D01*
X41944500Y-41830943D01*
X41944500Y-41989057D01*
X41958784Y-42042366D01*
X41965275Y-42066590D01*
X41969500Y-42098683D01*
X41969500Y-45404316D01*
X41965274Y-45436409D01*
X41944500Y-45513943D01*
X41944500Y-45672057D01*
X41963431Y-45742707D01*
X41965275Y-45749590D01*
X41969500Y-45781683D01*
X41969500Y-49214316D01*
X41965274Y-49246409D01*
X41944500Y-49323943D01*
X41944500Y-49482057D01*
X41983972Y-49629366D01*
X41985423Y-49634783D01*
X41985426Y-49634790D01*
X42064475Y-49771709D01*
X42064479Y-49771714D01*
X42064480Y-49771716D01*
X42176284Y-49883520D01*
X42176286Y-49883521D01*
X42176290Y-49883524D01*
X42313209Y-49962573D01*
X42313216Y-49962577D01*
X42465943Y-50003500D01*
X42465945Y-50003500D01*
X42624055Y-50003500D01*
X42624057Y-50003500D01*
X42776784Y-49962577D01*
X42913716Y-49883520D01*
X43025520Y-49771716D01*
X43104577Y-49634784D01*
X43145500Y-49482057D01*
X43145500Y-49323943D01*
X43124725Y-49246409D01*
X43120500Y-49214316D01*
X43120500Y-45781683D01*
X43124725Y-45749590D01*
X43126569Y-45742707D01*
X43145500Y-45672057D01*
X43145500Y-45513943D01*
X43124725Y-45436409D01*
X43120500Y-45404316D01*
X43120500Y-42098683D01*
X43124725Y-42066590D01*
X43130556Y-42044827D01*
X43145500Y-41989057D01*
X43145500Y-41830943D01*
X43124725Y-41753409D01*
X43120500Y-41721316D01*
X43120500Y-38288683D01*
X43124725Y-38256590D01*
X43135884Y-38214943D01*
X43145500Y-38179057D01*
X43145500Y-38020943D01*
X43124725Y-37943409D01*
X43120500Y-37911316D01*
X43120500Y-34478683D01*
X43124725Y-34446590D01*
X43130459Y-34425191D01*
X43145500Y-34369057D01*
X43145500Y-34210943D01*
X43124725Y-34133409D01*
X43120500Y-34101316D01*
X43120500Y-30414683D01*
X43124725Y-30382590D01*
X43130153Y-30362331D01*
X43145500Y-30305057D01*
X43145500Y-30146943D01*
X43124725Y-30069409D01*
X43120500Y-30037316D01*
X43120500Y-26731683D01*
X43124725Y-26699590D01*
X43145500Y-26622057D01*
X43145500Y-26463943D01*
X43124725Y-26386409D01*
X43120500Y-26354316D01*
X43120500Y-22921683D01*
X43124725Y-22889590D01*
X43136508Y-22845614D01*
X43145500Y-22812057D01*
X43145500Y-22653943D01*
X45754500Y-22653943D01*
X45754500Y-22812056D01*
X45775275Y-22889590D01*
X45779500Y-22921683D01*
X45779500Y-26354316D01*
X45775274Y-26386409D01*
X45754500Y-26463943D01*
X45754500Y-26622057D01*
X45775275Y-26699590D01*
X45779500Y-26731683D01*
X45779500Y-30037316D01*
X45775275Y-30069409D01*
X45768387Y-30095114D01*
X45754500Y-30146943D01*
X45754500Y-30305057D01*
X45766890Y-30351297D01*
X45775275Y-30382590D01*
X45779500Y-30414683D01*
X45779500Y-34101316D01*
X45775274Y-34133409D01*
X45754500Y-34210943D01*
X45754500Y-34369057D01*
X45769541Y-34425191D01*
X45775275Y-34446590D01*
X45779500Y-34478683D01*
X45779500Y-37911316D01*
X45775274Y-37943409D01*
X45754500Y-38020943D01*
X45754500Y-38179057D01*
X45764116Y-38214943D01*
X45775275Y-38256590D01*
X45779500Y-38288683D01*
X45779500Y-41721316D01*
X45775274Y-41753409D01*
X45754500Y-41830943D01*
X45754500Y-41989057D01*
X45768784Y-42042366D01*
X45775275Y-42066590D01*
X45779500Y-42098683D01*
X45779500Y-45404316D01*
X45775274Y-45436409D01*
X45754500Y-45513943D01*
X45754500Y-45672057D01*
X45773431Y-45742707D01*
X45775275Y-45749590D01*
X45779500Y-45781683D01*
X45779500Y-49214316D01*
X45775274Y-49246409D01*
X45754500Y-49323943D01*
X45754500Y-49482057D01*
X45793972Y-49629366D01*
X45795423Y-49634783D01*
X45795426Y-49634790D01*
X45874475Y-49771709D01*
X45874479Y-49771714D01*
X45874480Y-49771716D01*
X45986284Y-49883520D01*
X45986286Y-49883521D01*
X45986290Y-49883524D01*
X46123209Y-49962573D01*
X46123216Y-49962577D01*
X46275943Y-50003500D01*
X46275945Y-50003500D01*
X46434055Y-50003500D01*
X46434057Y-50003500D01*
X46586784Y-49962577D01*
X46723716Y-49883520D01*
X46835520Y-49771716D01*
X46914577Y-49634784D01*
X46955500Y-49482057D01*
X46955500Y-49323943D01*
X46934725Y-49246409D01*
X46930500Y-49214316D01*
X46930500Y-45781683D01*
X46934725Y-45749590D01*
X46936569Y-45742707D01*
X46955500Y-45672057D01*
X46955500Y-45513943D01*
X46934725Y-45436409D01*
X46930500Y-45404316D01*
X46930500Y-42098683D01*
X46934725Y-42066590D01*
X46940556Y-42044827D01*
X46955500Y-41989057D01*
X46955500Y-41830943D01*
X46934725Y-41753409D01*
X46930500Y-41721316D01*
X46930500Y-38288683D01*
X46934725Y-38256590D01*
X46945884Y-38214943D01*
X46955500Y-38179057D01*
X46955500Y-38020943D01*
X46934725Y-37943409D01*
X46930500Y-37911316D01*
X46930500Y-34478683D01*
X46934725Y-34446590D01*
X46940459Y-34425191D01*
X46955500Y-34369057D01*
X46955500Y-34210943D01*
X46934725Y-34133409D01*
X46930500Y-34101316D01*
X46930500Y-30414683D01*
X46934725Y-30382590D01*
X46940153Y-30362331D01*
X46955500Y-30305057D01*
X46955500Y-30146943D01*
X46934725Y-30069409D01*
X46930500Y-30037316D01*
X46930500Y-26731683D01*
X46934725Y-26699590D01*
X46955500Y-26622057D01*
X46955500Y-26463943D01*
X46934725Y-26386409D01*
X46930500Y-26354316D01*
X46930500Y-22921683D01*
X46932212Y-22901147D01*
X46933192Y-22895311D01*
X46955500Y-22812057D01*
X46955500Y-22780943D01*
X49564500Y-22780943D01*
X49564500Y-22939056D01*
X49585275Y-23016590D01*
X49589500Y-23048683D01*
X49589500Y-26481316D01*
X49585275Y-26513409D01*
X49564500Y-26590943D01*
X49564500Y-26749056D01*
X49585275Y-26826590D01*
X49589500Y-26858683D01*
X49589500Y-30164316D01*
X49585274Y-30196409D01*
X49564500Y-30273943D01*
X49564500Y-30432057D01*
X49573193Y-30464500D01*
X49585275Y-30509590D01*
X49589500Y-30541683D01*
X49589500Y-34228316D01*
X49585275Y-34260409D01*
X49564500Y-34337943D01*
X49564500Y-34496056D01*
X49585275Y-34573590D01*
X49589500Y-34605683D01*
X49589500Y-41848316D01*
X49585275Y-41880409D01*
X49564500Y-41957943D01*
X49564500Y-42116056D01*
X49585275Y-42193590D01*
X49589500Y-42225683D01*
X49589500Y-49341316D01*
X49585274Y-49373409D01*
X49564500Y-49450943D01*
X49564500Y-49609057D01*
X49598530Y-49736057D01*
X49605423Y-49761783D01*
X49605426Y-49761790D01*
X49684475Y-49898709D01*
X49684479Y-49898714D01*
X49684480Y-49898716D01*
X49796284Y-50010520D01*
X49796286Y-50010521D01*
X49796290Y-50010524D01*
X49933209Y-50089573D01*
X49933216Y-50089577D01*
X50085943Y-50130500D01*
X50085945Y-50130500D01*
X50244055Y-50130500D01*
X50244057Y-50130500D01*
X50396784Y-50089577D01*
X50533716Y-50010520D01*
X50645520Y-49898716D01*
X50724577Y-49761784D01*
X50765500Y-49609057D01*
X50765500Y-49450943D01*
X50744725Y-49373409D01*
X50740500Y-49341316D01*
X50740500Y-46172098D01*
X50760185Y-46105059D01*
X50767936Y-46095439D01*
X50767574Y-46095161D01*
X50772514Y-46088721D01*
X50772520Y-46088716D01*
X50851577Y-45951784D01*
X50892500Y-45799057D01*
X50892500Y-45640943D01*
X50851577Y-45488216D01*
X50843658Y-45474500D01*
X50772524Y-45351290D01*
X50772521Y-45351287D01*
X50772520Y-45351284D01*
X50772517Y-45351281D01*
X50767574Y-45344839D01*
X50769954Y-45343012D01*
X50743334Y-45294260D01*
X50740500Y-45267902D01*
X50740500Y-42225683D01*
X50744725Y-42193590D01*
X50746950Y-42185286D01*
X50765500Y-42116057D01*
X50765500Y-41957943D01*
X50744725Y-41880409D01*
X50740500Y-41848316D01*
X50740500Y-38679098D01*
X50760185Y-38612059D01*
X50767936Y-38602439D01*
X50767574Y-38602161D01*
X50772514Y-38595721D01*
X50772520Y-38595716D01*
X50851577Y-38458784D01*
X50892500Y-38306057D01*
X50892500Y-38147943D01*
X50851577Y-37995216D01*
X50824069Y-37947570D01*
X50772524Y-37858290D01*
X50772521Y-37858287D01*
X50772520Y-37858284D01*
X50772517Y-37858281D01*
X50767574Y-37851839D01*
X50769954Y-37850012D01*
X50743334Y-37801260D01*
X50740500Y-37774902D01*
X50740500Y-34605683D01*
X50744725Y-34573590D01*
X50754392Y-34537511D01*
X50765500Y-34496057D01*
X50765500Y-34337943D01*
X50744725Y-34260409D01*
X50740500Y-34228316D01*
X50740500Y-30541683D01*
X50744725Y-30509590D01*
X50748445Y-30495707D01*
X50765500Y-30432057D01*
X50765500Y-30273943D01*
X50744725Y-30196409D01*
X50740500Y-30164316D01*
X50740500Y-26858683D01*
X50744725Y-26826590D01*
X50765500Y-26749057D01*
X50765500Y-26590943D01*
X50744725Y-26513409D01*
X50740500Y-26481316D01*
X50740500Y-23048683D01*
X50744725Y-23016590D01*
X50765500Y-22939057D01*
X50765500Y-22780943D01*
X50731471Y-22653943D01*
X53374500Y-22653943D01*
X53374500Y-22812056D01*
X53395275Y-22889590D01*
X53399500Y-22921683D01*
X53399500Y-26354316D01*
X53395274Y-26386409D01*
X53374500Y-26463943D01*
X53374500Y-26622057D01*
X53395275Y-26699590D01*
X53399500Y-26731683D01*
X53399500Y-30037316D01*
X53395275Y-30069409D01*
X53388387Y-30095114D01*
X53374500Y-30146943D01*
X53374500Y-30305057D01*
X53386890Y-30351297D01*
X53395275Y-30382590D01*
X53399500Y-30414683D01*
X53399500Y-34101316D01*
X53395274Y-34133409D01*
X53374500Y-34210943D01*
X53374500Y-34369057D01*
X53389541Y-34425191D01*
X53395275Y-34446590D01*
X53399500Y-34478683D01*
X53399500Y-37911316D01*
X53395274Y-37943409D01*
X53374500Y-38020943D01*
X53374500Y-38179057D01*
X53384116Y-38214943D01*
X53395275Y-38256590D01*
X53399500Y-38288683D01*
X53399500Y-41721316D01*
X53395274Y-41753409D01*
X53374500Y-41830943D01*
X53374500Y-41989057D01*
X53388784Y-42042366D01*
X53395275Y-42066590D01*
X53399500Y-42098683D01*
X53399500Y-45404316D01*
X53395274Y-45436409D01*
X53374500Y-45513943D01*
X53374500Y-45672057D01*
X53393431Y-45742707D01*
X53395275Y-45749590D01*
X53399500Y-45781683D01*
X53399500Y-49214316D01*
X53395274Y-49246409D01*
X53374500Y-49323943D01*
X53374500Y-49482057D01*
X53413972Y-49629366D01*
X53415423Y-49634783D01*
X53415426Y-49634790D01*
X53494475Y-49771709D01*
X53494479Y-49771714D01*
X53494480Y-49771716D01*
X53606284Y-49883520D01*
X53606286Y-49883521D01*
X53606290Y-49883524D01*
X53743209Y-49962573D01*
X53743216Y-49962577D01*
X53895943Y-50003500D01*
X53895945Y-50003500D01*
X54054055Y-50003500D01*
X54054057Y-50003500D01*
X54206784Y-49962577D01*
X54343716Y-49883520D01*
X54455520Y-49771716D01*
X54534577Y-49634784D01*
X54575500Y-49482057D01*
X54575500Y-49323943D01*
X54554725Y-49246409D01*
X54550500Y-49214316D01*
X54550500Y-45781683D01*
X54554725Y-45749590D01*
X54556569Y-45742707D01*
X54575500Y-45672057D01*
X54575500Y-45513943D01*
X54554725Y-45436409D01*
X54550500Y-45404316D01*
X54550500Y-42098683D01*
X54554725Y-42066590D01*
X54560556Y-42044827D01*
X54575500Y-41989057D01*
X54575500Y-41830943D01*
X54554725Y-41753409D01*
X54550500Y-41721316D01*
X54550500Y-38288683D01*
X54554725Y-38256590D01*
X54565884Y-38214943D01*
X54575500Y-38179057D01*
X54575500Y-38020943D01*
X54554725Y-37943409D01*
X54550500Y-37911316D01*
X54550500Y-34478683D01*
X54554725Y-34446590D01*
X54560459Y-34425191D01*
X54575500Y-34369057D01*
X54575500Y-34210943D01*
X54554725Y-34133409D01*
X54550500Y-34101316D01*
X54550500Y-30414683D01*
X54554725Y-30382590D01*
X54560153Y-30362331D01*
X54575500Y-30305057D01*
X54575500Y-30146943D01*
X54554725Y-30069409D01*
X54550500Y-30037316D01*
X54550500Y-26731683D01*
X54554725Y-26699590D01*
X54575500Y-26622057D01*
X54575500Y-26463943D01*
X54554725Y-26386409D01*
X54550500Y-26354316D01*
X54550500Y-22921683D01*
X54554725Y-22889590D01*
X54555731Y-22885834D01*
X59673300Y-22885834D01*
X59673300Y-55805765D01*
X59712519Y-55952136D01*
X59750402Y-56017750D01*
X59788285Y-56083365D01*
X67157435Y-63452515D01*
X67288665Y-63528281D01*
X67435034Y-63567500D01*
X67435036Y-63567500D01*
X88091994Y-63567500D01*
X88091996Y-63567500D01*
X88238365Y-63528281D01*
X88369595Y-63452515D01*
X93258114Y-58563996D01*
X93295521Y-58499207D01*
X93333881Y-58432765D01*
X93373100Y-58286396D01*
X93373100Y-50483500D01*
X93392785Y-50416461D01*
X93445589Y-50370706D01*
X93497100Y-50359500D01*
X108838564Y-50359500D01*
X108838566Y-50359500D01*
X108984935Y-50320281D01*
X109116165Y-50244515D01*
X109731314Y-49629366D01*
X109742430Y-49610114D01*
X109807081Y-49498135D01*
X109816356Y-49463520D01*
X109846300Y-49351767D01*
X109846300Y-49200234D01*
X109846300Y-48692234D01*
X109846300Y-41072234D01*
X109846300Y-39040234D01*
X109846300Y-38024234D01*
X109846300Y-28880234D01*
X109846300Y-28880233D01*
X109846300Y-25832234D01*
X109807081Y-25685865D01*
X109731315Y-25554635D01*
X109624165Y-25447485D01*
X109610165Y-25433485D01*
X109538218Y-25391946D01*
X109478936Y-25357719D01*
X109391992Y-25334423D01*
X109332566Y-25318500D01*
X109332565Y-25318500D01*
X106915484Y-25318500D01*
X106883391Y-25314275D01*
X106847340Y-25304615D01*
X106805857Y-25293500D01*
X106647743Y-25293500D01*
X106495016Y-25334423D01*
X106495009Y-25334426D01*
X106358090Y-25413475D01*
X106358082Y-25413481D01*
X106246281Y-25525282D01*
X106246275Y-25525290D01*
X106167226Y-25662209D01*
X106167223Y-25662216D01*
X106126300Y-25814943D01*
X106126300Y-25973057D01*
X106166386Y-26122658D01*
X106167223Y-26125783D01*
X106167226Y-26125790D01*
X106246275Y-26262709D01*
X106246279Y-26262714D01*
X106246280Y-26262716D01*
X106358084Y-26374520D01*
X106358086Y-26374521D01*
X106358090Y-26374524D01*
X106467736Y-26437827D01*
X106495016Y-26453577D01*
X106647743Y-26494500D01*
X106647745Y-26494500D01*
X106805855Y-26494500D01*
X106805857Y-26494500D01*
X106871361Y-26476948D01*
X106883391Y-26473725D01*
X106915484Y-26469500D01*
X108571300Y-26469500D01*
X108638339Y-26489185D01*
X108684094Y-26541989D01*
X108695300Y-26593500D01*
X108695300Y-28194500D01*
X108675615Y-28261539D01*
X108622811Y-28307294D01*
X108571300Y-28318500D01*
X106915484Y-28318500D01*
X106883391Y-28314275D01*
X106847340Y-28304615D01*
X106805857Y-28293500D01*
X106647743Y-28293500D01*
X106495016Y-28334423D01*
X106495009Y-28334426D01*
X106358090Y-28413475D01*
X106358082Y-28413481D01*
X106246281Y-28525282D01*
X106246275Y-28525290D01*
X106167226Y-28662209D01*
X106167223Y-28662216D01*
X106126300Y-28814943D01*
X106126300Y-28973057D01*
X106162035Y-29106420D01*
X106167223Y-29125783D01*
X106167226Y-29125790D01*
X106246275Y-29262709D01*
X106246279Y-29262714D01*
X106246280Y-29262716D01*
X106358084Y-29374520D01*
X106358086Y-29374521D01*
X106358090Y-29374524D01*
X106446887Y-29425790D01*
X106495016Y-29453577D01*
X106647743Y-29494500D01*
X106647745Y-29494500D01*
X106805855Y-29494500D01*
X106805857Y-29494500D01*
X106871361Y-29476948D01*
X106883391Y-29473725D01*
X106915484Y-29469500D01*
X108571300Y-29469500D01*
X108638339Y-29489185D01*
X108684094Y-29541989D01*
X108695300Y-29593500D01*
X108695300Y-37594500D01*
X108675615Y-37661539D01*
X108622811Y-37707294D01*
X108571300Y-37718500D01*
X107115484Y-37718500D01*
X107083391Y-37714275D01*
X107047340Y-37704615D01*
X107005857Y-37693500D01*
X106847743Y-37693500D01*
X106695016Y-37734423D01*
X106695009Y-37734426D01*
X106558090Y-37813475D01*
X106558082Y-37813481D01*
X106446281Y-37925282D01*
X106446275Y-37925290D01*
X106367226Y-38062209D01*
X106367223Y-38062216D01*
X106326300Y-38214943D01*
X106326300Y-38373057D01*
X106349271Y-38458784D01*
X106367223Y-38525783D01*
X106367226Y-38525790D01*
X106446275Y-38662709D01*
X106446279Y-38662714D01*
X106446280Y-38662716D01*
X106558084Y-38774520D01*
X106558086Y-38774521D01*
X106558090Y-38774524D01*
X106695009Y-38853573D01*
X106695016Y-38853577D01*
X106847743Y-38894500D01*
X106847745Y-38894500D01*
X107005855Y-38894500D01*
X107005857Y-38894500D01*
X107071361Y-38876948D01*
X107083391Y-38873725D01*
X107115484Y-38869500D01*
X108571300Y-38869500D01*
X108638339Y-38889185D01*
X108684094Y-38941989D01*
X108695300Y-38993500D01*
X108695300Y-40448500D01*
X108675615Y-40515539D01*
X108622811Y-40561294D01*
X108571300Y-40572500D01*
X106997033Y-40572500D01*
X106850664Y-40611719D01*
X106782602Y-40651015D01*
X106719435Y-40687485D01*
X106719433Y-40687486D01*
X106719429Y-40687489D01*
X106653276Y-40753641D01*
X106627597Y-40773345D01*
X106558090Y-40813475D01*
X106558081Y-40813482D01*
X106446281Y-40925282D01*
X106446275Y-40925290D01*
X106367226Y-41062209D01*
X106367223Y-41062216D01*
X106326300Y-41214943D01*
X106326300Y-41373057D01*
X106364371Y-41515138D01*
X106367223Y-41525783D01*
X106367226Y-41525790D01*
X106446275Y-41662709D01*
X106446279Y-41662714D01*
X106446280Y-41662716D01*
X106558084Y-41774520D01*
X106627600Y-41814655D01*
X106653280Y-41834360D01*
X106681435Y-41862515D01*
X106812665Y-41938281D01*
X106959033Y-41977500D01*
X106959035Y-41977500D01*
X107110564Y-41977500D01*
X107110566Y-41977500D01*
X107256935Y-41938281D01*
X107388165Y-41862515D01*
X107490861Y-41759819D01*
X107552184Y-41726334D01*
X107578542Y-41723500D01*
X108571300Y-41723500D01*
X108638339Y-41743185D01*
X108684094Y-41795989D01*
X108695300Y-41847500D01*
X108695300Y-48986258D01*
X108686655Y-49015698D01*
X108680132Y-49045685D01*
X108676377Y-49050700D01*
X108675615Y-49053297D01*
X108658981Y-49073939D01*
X108560739Y-49172181D01*
X108499416Y-49205666D01*
X108473058Y-49208500D01*
X93087342Y-49208500D01*
X93020303Y-49188815D01*
X92999661Y-49172181D01*
X91899419Y-48071939D01*
X91865934Y-48010616D01*
X91863100Y-47984258D01*
X91863100Y-47020768D01*
X91882785Y-46953729D01*
X91918208Y-46917666D01*
X91957255Y-46891577D01*
X92103577Y-46745255D01*
X92218541Y-46573198D01*
X92286765Y-46408489D01*
X92330604Y-46354088D01*
X92396898Y-46332023D01*
X92464598Y-46349302D01*
X92512209Y-46400439D01*
X92519256Y-46417626D01*
X92576504Y-46593816D01*
X92672979Y-46783157D01*
X92797872Y-46955059D01*
X92797876Y-46955064D01*
X92948135Y-47105323D01*
X92948140Y-47105327D01*
X93120042Y-47230220D01*
X93309382Y-47326695D01*
X93511471Y-47392357D01*
X93577600Y-47402831D01*
X93577600Y-46508612D01*
X93634607Y-46541525D01*
X93761774Y-46575600D01*
X93893426Y-46575600D01*
X94020593Y-46541525D01*
X94077600Y-46508612D01*
X94077600Y-47402830D01*
X94143726Y-47392357D01*
X94143729Y-47392357D01*
X94345817Y-47326695D01*
X94535157Y-47230220D01*
X94707059Y-47105327D01*
X94707064Y-47105323D01*
X94857323Y-46955064D01*
X94857327Y-46955059D01*
X94982220Y-46783157D01*
X95078695Y-46593817D01*
X95144357Y-46391729D01*
X95144357Y-46391726D01*
X95154831Y-46325600D01*
X94260612Y-46325600D01*
X94293525Y-46268593D01*
X94327600Y-46141426D01*
X94327600Y-46009774D01*
X94293525Y-45882607D01*
X94260612Y-45825600D01*
X95154831Y-45825600D01*
X95144357Y-45759473D01*
X95144357Y-45759470D01*
X95078695Y-45557382D01*
X94982220Y-45368042D01*
X94857327Y-45196140D01*
X94857323Y-45196135D01*
X94707064Y-45045876D01*
X94707059Y-45045872D01*
X94535157Y-44920979D01*
X94345815Y-44824503D01*
X94143724Y-44758841D01*
X94077600Y-44748368D01*
X94077600Y-45642588D01*
X94020593Y-45609675D01*
X93893426Y-45575600D01*
X93761774Y-45575600D01*
X93634607Y-45609675D01*
X93577600Y-45642588D01*
X93577600Y-44748368D01*
X93577599Y-44748368D01*
X93511475Y-44758841D01*
X93309384Y-44824503D01*
X93120042Y-44920979D01*
X92948140Y-45045872D01*
X92948135Y-45045876D01*
X92797876Y-45196135D01*
X92797872Y-45196140D01*
X92672979Y-45368042D01*
X92576505Y-45557381D01*
X92519256Y-45733574D01*
X92479818Y-45791249D01*
X92415459Y-45818447D01*
X92346613Y-45806532D01*
X92295137Y-45759288D01*
X92286764Y-45742707D01*
X92218543Y-45578005D01*
X92103575Y-45405942D01*
X91957257Y-45259624D01*
X91789255Y-45147370D01*
X91785198Y-45144659D01*
X91766116Y-45136755D01*
X91594020Y-45065470D01*
X91594012Y-45065468D01*
X91391069Y-45025100D01*
X91391065Y-45025100D01*
X91184135Y-45025100D01*
X91184130Y-45025100D01*
X90981187Y-45065468D01*
X90981179Y-45065470D01*
X90790003Y-45144658D01*
X90617942Y-45259624D01*
X90471624Y-45405942D01*
X90356658Y-45578003D01*
X90277470Y-45769179D01*
X90277468Y-45769187D01*
X90237100Y-45972130D01*
X90237100Y-46179069D01*
X90277468Y-46382012D01*
X90277470Y-46382020D01*
X90343539Y-46541525D01*
X90356659Y-46573198D01*
X90370436Y-46593817D01*
X90471624Y-46745257D01*
X90617940Y-46891573D01*
X90617943Y-46891575D01*
X90617945Y-46891577D01*
X90656990Y-46917666D01*
X90701796Y-46971277D01*
X90712100Y-47020768D01*
X90712100Y-48349765D01*
X90751319Y-48496136D01*
X90783173Y-48551307D01*
X90827085Y-48627365D01*
X90827087Y-48627367D01*
X92185781Y-49986061D01*
X92219266Y-50047384D01*
X92222100Y-50073742D01*
X92222100Y-57920888D01*
X92202415Y-57987927D01*
X92185781Y-58008569D01*
X87814169Y-62380181D01*
X87752846Y-62413666D01*
X87726488Y-62416500D01*
X67800542Y-62416500D01*
X67733503Y-62396815D01*
X67712861Y-62380181D01*
X60860619Y-55527939D01*
X60827134Y-55466616D01*
X60824300Y-55440258D01*
X60824300Y-49704943D01*
X62188300Y-49704943D01*
X62188300Y-49863057D01*
X62225932Y-50003499D01*
X62229223Y-50015783D01*
X62229226Y-50015790D01*
X62308275Y-50152709D01*
X62308281Y-50152717D01*
X62351981Y-50196417D01*
X62385466Y-50257740D01*
X62388300Y-50284098D01*
X62388300Y-54916726D01*
X62415593Y-55018589D01*
X62419751Y-55025790D01*
X62468320Y-55109913D01*
X68892887Y-61534480D01*
X68984212Y-61587207D01*
X69086073Y-61614500D01*
X69086075Y-61614500D01*
X86205525Y-61614500D01*
X86205527Y-61614500D01*
X86307388Y-61587207D01*
X86398713Y-61534480D01*
X87886710Y-60046481D01*
X87886713Y-60046480D01*
X87961280Y-59971913D01*
X88005062Y-59896081D01*
X88014007Y-59880588D01*
X88041300Y-59778727D01*
X88041300Y-59673273D01*
X88041300Y-58188729D01*
X88041301Y-58188716D01*
X88041301Y-58073274D01*
X88023963Y-58008569D01*
X88014007Y-57971413D01*
X87963839Y-57884520D01*
X87961280Y-57880087D01*
X87886713Y-57805520D01*
X87886710Y-57805518D01*
X86847619Y-56766426D01*
X86814134Y-56705103D01*
X86811300Y-56678745D01*
X86811300Y-52951098D01*
X86830985Y-52884059D01*
X86847619Y-52863417D01*
X86891320Y-52819716D01*
X86970377Y-52682784D01*
X87011300Y-52530057D01*
X87011300Y-52371943D01*
X86970377Y-52219216D01*
X86950455Y-52184709D01*
X86891324Y-52082290D01*
X86891318Y-52082282D01*
X86779517Y-51970481D01*
X86779509Y-51970475D01*
X86642590Y-51891426D01*
X86642586Y-51891424D01*
X86642584Y-51891423D01*
X86489857Y-51850500D01*
X86331743Y-51850500D01*
X86179016Y-51891423D01*
X86179009Y-51891426D01*
X86042090Y-51970475D01*
X86042082Y-51970481D01*
X85930281Y-52082282D01*
X85930275Y-52082290D01*
X85851226Y-52219209D01*
X85851223Y-52219216D01*
X85810300Y-52371943D01*
X85810300Y-52530056D01*
X85851223Y-52682783D01*
X85851226Y-52682790D01*
X85930275Y-52819709D01*
X85930281Y-52819717D01*
X85973981Y-52863417D01*
X86007466Y-52924740D01*
X86010300Y-52951098D01*
X86010300Y-56948726D01*
X86037593Y-57050589D01*
X86063956Y-57096250D01*
X86090320Y-57141913D01*
X86090321Y-57141914D01*
X86090322Y-57141915D01*
X87203981Y-58255573D01*
X87237466Y-58316896D01*
X87240300Y-58343254D01*
X87240300Y-59508745D01*
X87220615Y-59575784D01*
X87203985Y-59596421D01*
X87154307Y-59646100D01*
X87140935Y-59659472D01*
X87079611Y-59692956D01*
X87009920Y-59687971D01*
X86953986Y-59646100D01*
X86929570Y-59580635D01*
X86933478Y-59539703D01*
X86960500Y-59438857D01*
X86960500Y-59280743D01*
X86919577Y-59128016D01*
X86919573Y-59128009D01*
X86840524Y-58991090D01*
X86840518Y-58991082D01*
X86728717Y-58879281D01*
X86728709Y-58879275D01*
X86591790Y-58800226D01*
X86591786Y-58800224D01*
X86591784Y-58800223D01*
X86439057Y-58759300D01*
X86280943Y-58759300D01*
X86203409Y-58780075D01*
X86171316Y-58784300D01*
X74077284Y-58784300D01*
X74045191Y-58780075D01*
X74009140Y-58770415D01*
X73967657Y-58759300D01*
X73809543Y-58759300D01*
X73656816Y-58800223D01*
X73656809Y-58800226D01*
X73519890Y-58879275D01*
X73519882Y-58879281D01*
X73408081Y-58991082D01*
X73408075Y-58991090D01*
X73329026Y-59128009D01*
X73329023Y-59128016D01*
X73288100Y-59280743D01*
X73288100Y-59438857D01*
X73324790Y-59575784D01*
X73329023Y-59591583D01*
X73329026Y-59591590D01*
X73408075Y-59728509D01*
X73408079Y-59728514D01*
X73408080Y-59728516D01*
X73519884Y-59840320D01*
X73519886Y-59840321D01*
X73519890Y-59840324D01*
X73656809Y-59919373D01*
X73656816Y-59919377D01*
X73809543Y-59960300D01*
X73809545Y-59960300D01*
X73967655Y-59960300D01*
X73967657Y-59960300D01*
X74033161Y-59942748D01*
X74045191Y-59939525D01*
X74077284Y-59935300D01*
X86171316Y-59935300D01*
X86203409Y-59939525D01*
X86218052Y-59943448D01*
X86280943Y-59960300D01*
X86280945Y-59960300D01*
X86439054Y-59960300D01*
X86439057Y-59960300D01*
X86539900Y-59933279D01*
X86609746Y-59934942D01*
X86667608Y-59974104D01*
X86695113Y-60038332D01*
X86683527Y-60107235D01*
X86659671Y-60140735D01*
X86023226Y-60777181D01*
X85961903Y-60810666D01*
X85935545Y-60813500D01*
X69356055Y-60813500D01*
X69289016Y-60793815D01*
X69268374Y-60777181D01*
X65816136Y-57324943D01*
X70316300Y-57324943D01*
X70316300Y-57483056D01*
X70357223Y-57635783D01*
X70357226Y-57635790D01*
X70436275Y-57772709D01*
X70436279Y-57772714D01*
X70436280Y-57772716D01*
X70548084Y-57884520D01*
X70548086Y-57884521D01*
X70548090Y-57884524D01*
X70685009Y-57963573D01*
X70685016Y-57963577D01*
X70837743Y-58004500D01*
X70837745Y-58004500D01*
X70995855Y-58004500D01*
X70995857Y-58004500D01*
X71148584Y-57963577D01*
X71285516Y-57884520D01*
X71329217Y-57840819D01*
X71390540Y-57807334D01*
X71416898Y-57804500D01*
X77573525Y-57804500D01*
X77573527Y-57804500D01*
X77675388Y-57777207D01*
X77766713Y-57724480D01*
X86528080Y-48963113D01*
X86580806Y-48871788D01*
X86580807Y-48871787D01*
X86608100Y-48769927D01*
X86608100Y-47129614D01*
X86627785Y-47062575D01*
X86680589Y-47016820D01*
X86684648Y-47015053D01*
X86705198Y-47006541D01*
X86877255Y-46891577D01*
X87023577Y-46745255D01*
X87138541Y-46573198D01*
X87217730Y-46382020D01*
X87258100Y-46179065D01*
X87258100Y-45972135D01*
X87217730Y-45769180D01*
X87138541Y-45578002D01*
X87023577Y-45405945D01*
X87023575Y-45405942D01*
X86877257Y-45259624D01*
X86709255Y-45147370D01*
X86705198Y-45144659D01*
X86686116Y-45136755D01*
X86514020Y-45065470D01*
X86514012Y-45065468D01*
X86311069Y-45025100D01*
X86311065Y-45025100D01*
X86104135Y-45025100D01*
X86104130Y-45025100D01*
X85901187Y-45065468D01*
X85901179Y-45065470D01*
X85710003Y-45144658D01*
X85537942Y-45259624D01*
X85391624Y-45405942D01*
X85276658Y-45578003D01*
X85197470Y-45769179D01*
X85197468Y-45769187D01*
X85157100Y-45972130D01*
X85157100Y-46179069D01*
X85197468Y-46382012D01*
X85197470Y-46382020D01*
X85263539Y-46541525D01*
X85276659Y-46573198D01*
X85290436Y-46593817D01*
X85391624Y-46745257D01*
X85537942Y-46891575D01*
X85537945Y-46891577D01*
X85710002Y-47006541D01*
X85730552Y-47015053D01*
X85784956Y-47058893D01*
X85807021Y-47125187D01*
X85807100Y-47129614D01*
X85807100Y-48499945D01*
X85787415Y-48566984D01*
X85770781Y-48587626D01*
X77391226Y-56967181D01*
X77329903Y-57000666D01*
X77303545Y-57003500D01*
X71416898Y-57003500D01*
X71349859Y-56983815D01*
X71329217Y-56967181D01*
X71285517Y-56923481D01*
X71285509Y-56923475D01*
X71148590Y-56844426D01*
X71148586Y-56844424D01*
X71148584Y-56844423D01*
X70995857Y-56803500D01*
X70837743Y-56803500D01*
X70685016Y-56844423D01*
X70685009Y-56844426D01*
X70548090Y-56923475D01*
X70548082Y-56923481D01*
X70436281Y-57035282D01*
X70436275Y-57035290D01*
X70357226Y-57172209D01*
X70357223Y-57172216D01*
X70316300Y-57324943D01*
X65816136Y-57324943D01*
X63225619Y-54734426D01*
X63214980Y-54714943D01*
X64026300Y-54714943D01*
X64026300Y-54873057D01*
X64042425Y-54933234D01*
X64067223Y-55025783D01*
X64067226Y-55025790D01*
X64146275Y-55162709D01*
X64146279Y-55162714D01*
X64146280Y-55162716D01*
X64258084Y-55274520D01*
X64258086Y-55274521D01*
X64258090Y-55274524D01*
X64395009Y-55353573D01*
X64395016Y-55353577D01*
X64547743Y-55394500D01*
X64609545Y-55394500D01*
X64676584Y-55414185D01*
X64697226Y-55430819D01*
X65720887Y-56454480D01*
X65812212Y-56507207D01*
X65914073Y-56534500D01*
X65914075Y-56534500D01*
X76303525Y-56534500D01*
X76303527Y-56534500D01*
X76405388Y-56507207D01*
X76496713Y-56454480D01*
X83988080Y-48963113D01*
X84040807Y-48871788D01*
X84068100Y-48769927D01*
X84068100Y-48664473D01*
X84068100Y-47250100D01*
X84087785Y-47183061D01*
X84140589Y-47137306D01*
X84192100Y-47126100D01*
X84537350Y-47126100D01*
X84537351Y-47126099D01*
X84552168Y-47123152D01*
X84595829Y-47114468D01*
X84595829Y-47114467D01*
X84595831Y-47114467D01*
X84662152Y-47070152D01*
X84706467Y-47003831D01*
X84706467Y-47003829D01*
X84706468Y-47003829D01*
X84718099Y-46945352D01*
X84718100Y-46945350D01*
X84718100Y-45205849D01*
X84718099Y-45205847D01*
X84706468Y-45147370D01*
X84706467Y-45147369D01*
X84662152Y-45081047D01*
X84595830Y-45036732D01*
X84595829Y-45036731D01*
X84537352Y-45025100D01*
X84537348Y-45025100D01*
X82797852Y-45025100D01*
X82797847Y-45025100D01*
X82739370Y-45036731D01*
X82739369Y-45036732D01*
X82673047Y-45081047D01*
X82628732Y-45147369D01*
X82628731Y-45147370D01*
X82617100Y-45205847D01*
X82617100Y-46945352D01*
X82628731Y-47003829D01*
X82628732Y-47003830D01*
X82673047Y-47070152D01*
X82739369Y-47114467D01*
X82739370Y-47114468D01*
X82797847Y-47126099D01*
X82797850Y-47126100D01*
X82797852Y-47126100D01*
X83143100Y-47126100D01*
X83210139Y-47145785D01*
X83255894Y-47198589D01*
X83267100Y-47250100D01*
X83267100Y-48499945D01*
X83247415Y-48566984D01*
X83230781Y-48587626D01*
X76121226Y-55697181D01*
X76059903Y-55730666D01*
X76033545Y-55733500D01*
X66184055Y-55733500D01*
X66117016Y-55713815D01*
X66096374Y-55697181D01*
X65263619Y-54864426D01*
X65230134Y-54803103D01*
X65227300Y-54776745D01*
X65227300Y-54714945D01*
X65227300Y-54714943D01*
X65186377Y-54562216D01*
X65128932Y-54462717D01*
X65107324Y-54425290D01*
X65107318Y-54425282D01*
X64995517Y-54313481D01*
X64995509Y-54313475D01*
X64858590Y-54234426D01*
X64858586Y-54234424D01*
X64858584Y-54234423D01*
X64705857Y-54193500D01*
X64547743Y-54193500D01*
X64395016Y-54234423D01*
X64395009Y-54234426D01*
X64258090Y-54313475D01*
X64258082Y-54313481D01*
X64146281Y-54425282D01*
X64146275Y-54425290D01*
X64067226Y-54562209D01*
X64067223Y-54562216D01*
X64026300Y-54714943D01*
X63214980Y-54714943D01*
X63192134Y-54673103D01*
X63189300Y-54646745D01*
X63189300Y-50284098D01*
X63208985Y-50217059D01*
X63225619Y-50196417D01*
X63269320Y-50152716D01*
X63348377Y-50015784D01*
X63389300Y-49863057D01*
X63389300Y-49704943D01*
X63348377Y-49552216D01*
X63348373Y-49552209D01*
X63269324Y-49415290D01*
X63269318Y-49415282D01*
X63157517Y-49303481D01*
X63157509Y-49303475D01*
X63020590Y-49224426D01*
X63020586Y-49224424D01*
X63020584Y-49224423D01*
X62867857Y-49183500D01*
X62709743Y-49183500D01*
X62557016Y-49224423D01*
X62557009Y-49224426D01*
X62420090Y-49303475D01*
X62420082Y-49303481D01*
X62308281Y-49415282D01*
X62308275Y-49415290D01*
X62229226Y-49552209D01*
X62229223Y-49552216D01*
X62188300Y-49704943D01*
X60824300Y-49704943D01*
X60824300Y-46873500D01*
X60843985Y-46806461D01*
X60896789Y-46760706D01*
X60948300Y-46749500D01*
X62303058Y-46749500D01*
X62370097Y-46769185D01*
X62390739Y-46785819D01*
X63954981Y-48350061D01*
X63988466Y-48411384D01*
X63991300Y-48437742D01*
X63991300Y-51627316D01*
X63987074Y-51659409D01*
X63966300Y-51736943D01*
X63966300Y-51895057D01*
X63986510Y-51970480D01*
X64007223Y-52047783D01*
X64007226Y-52047790D01*
X64086275Y-52184709D01*
X64086279Y-52184714D01*
X64086280Y-52184716D01*
X64198084Y-52296520D01*
X64198086Y-52296521D01*
X64198090Y-52296524D01*
X64328722Y-52371943D01*
X64335016Y-52375577D01*
X64487743Y-52416500D01*
X64487745Y-52416500D01*
X64645855Y-52416500D01*
X64645857Y-52416500D01*
X64798584Y-52375577D01*
X64935516Y-52296520D01*
X65047320Y-52184716D01*
X65126377Y-52047784D01*
X65167300Y-51895057D01*
X65167300Y-51736943D01*
X65146525Y-51659409D01*
X65142300Y-51627316D01*
X65142300Y-48072236D01*
X65142300Y-48072234D01*
X65103081Y-47925865D01*
X65027315Y-47794635D01*
X64920165Y-47687485D01*
X62946165Y-45713485D01*
X62874408Y-45672056D01*
X62814936Y-45637719D01*
X62710272Y-45609675D01*
X62668566Y-45598500D01*
X62668565Y-45598500D01*
X60948300Y-45598500D01*
X60881261Y-45578815D01*
X60835506Y-45526011D01*
X60824300Y-45474500D01*
X60824300Y-25314943D01*
X61126300Y-25314943D01*
X61126300Y-25473057D01*
X61151778Y-25568140D01*
X61167223Y-25625783D01*
X61167226Y-25625790D01*
X61246275Y-25762709D01*
X61246279Y-25762714D01*
X61246280Y-25762716D01*
X61358084Y-25874520D01*
X61358086Y-25874521D01*
X61358090Y-25874524D01*
X61495009Y-25953573D01*
X61495016Y-25953577D01*
X61647743Y-25994500D01*
X61647745Y-25994500D01*
X61805855Y-25994500D01*
X61805857Y-25994500D01*
X61958584Y-25953577D01*
X62095516Y-25874520D01*
X62207320Y-25762716D01*
X62207320Y-25762715D01*
X62213067Y-25756969D01*
X62215312Y-25759214D01*
X62259655Y-25726821D01*
X62301630Y-25719500D01*
X62906611Y-25719500D01*
X62973650Y-25739185D01*
X62994292Y-25755819D01*
X63639981Y-26401508D01*
X63673466Y-26462831D01*
X63676300Y-26489189D01*
X63676300Y-28760500D01*
X63656615Y-28827539D01*
X63603811Y-28873294D01*
X63552300Y-28884500D01*
X62313100Y-28884500D01*
X62246061Y-28864815D01*
X62213568Y-28830738D01*
X62212270Y-28831735D01*
X62207318Y-28825282D01*
X62095517Y-28713481D01*
X62095509Y-28713475D01*
X61958590Y-28634426D01*
X61958586Y-28634424D01*
X61958584Y-28634423D01*
X61805857Y-28593500D01*
X61647743Y-28593500D01*
X61495016Y-28634423D01*
X61495009Y-28634426D01*
X61358090Y-28713475D01*
X61358082Y-28713481D01*
X61246281Y-28825282D01*
X61246275Y-28825290D01*
X61167226Y-28962209D01*
X61167223Y-28962216D01*
X61126300Y-29114943D01*
X61126300Y-29273057D01*
X61153487Y-29374518D01*
X61167223Y-29425783D01*
X61167226Y-29425790D01*
X61246275Y-29562709D01*
X61246279Y-29562714D01*
X61246280Y-29562716D01*
X61358084Y-29674520D01*
X61358086Y-29674521D01*
X61358090Y-29674524D01*
X61462145Y-29734599D01*
X61495016Y-29753577D01*
X61647743Y-29794500D01*
X61647745Y-29794500D01*
X61805855Y-29794500D01*
X61805857Y-29794500D01*
X61958584Y-29753577D01*
X62095516Y-29674520D01*
X62198217Y-29571819D01*
X62259540Y-29538334D01*
X62285898Y-29535500D01*
X63101300Y-29535500D01*
X63168339Y-29555185D01*
X63214094Y-29607989D01*
X63225300Y-29659500D01*
X63225300Y-39412852D01*
X63247482Y-39495640D01*
X63268908Y-39532750D01*
X63290335Y-39569862D01*
X63290337Y-39569864D01*
X65728981Y-42008508D01*
X65762466Y-42069831D01*
X65765300Y-42096189D01*
X65765300Y-54144852D01*
X65787482Y-54227640D01*
X65801490Y-54251902D01*
X65830335Y-54301862D01*
X65830337Y-54301864D01*
X66436025Y-54907552D01*
X66455730Y-54933231D01*
X66490735Y-54993862D01*
X66551338Y-55054465D01*
X66551340Y-55054466D01*
X66551344Y-55054469D01*
X66625555Y-55097314D01*
X66625562Y-55097318D01*
X66708347Y-55119500D01*
X69833970Y-55119500D01*
X69901009Y-55139185D01*
X69921479Y-55158022D01*
X69922533Y-55156969D01*
X69928280Y-55162716D01*
X70040084Y-55274520D01*
X70040086Y-55274521D01*
X70040090Y-55274524D01*
X70177009Y-55353573D01*
X70177016Y-55353577D01*
X70329743Y-55394500D01*
X70329745Y-55394500D01*
X70487855Y-55394500D01*
X70487857Y-55394500D01*
X70640584Y-55353577D01*
X70777516Y-55274520D01*
X70889320Y-55162716D01*
X70968377Y-55025784D01*
X71009300Y-54873057D01*
X71009300Y-54714943D01*
X70968377Y-54562216D01*
X70910932Y-54462717D01*
X70889324Y-54425290D01*
X70889318Y-54425282D01*
X70777517Y-54313481D01*
X70777509Y-54313475D01*
X70640590Y-54234426D01*
X70640586Y-54234424D01*
X70640584Y-54234423D01*
X70487857Y-54193500D01*
X70329743Y-54193500D01*
X70177016Y-54234423D01*
X70177013Y-54234424D01*
X70174537Y-54235854D01*
X70172184Y-54236424D01*
X70171376Y-54236759D01*
X70169363Y-54238679D01*
X70137827Y-54244757D01*
X70106635Y-54252322D01*
X70103753Y-54251324D01*
X70100756Y-54251902D01*
X70070938Y-54239964D01*
X70040610Y-54229466D01*
X70038724Y-54227068D01*
X70035891Y-54225934D01*
X70017262Y-54199773D01*
X69997423Y-54174542D01*
X69997133Y-54171504D01*
X69995363Y-54169019D01*
X69993834Y-54136946D01*
X69990785Y-54104989D01*
X69992139Y-54101358D01*
X69992038Y-54099229D01*
X70005156Y-54066463D01*
X70007318Y-54062717D01*
X70007320Y-54062716D01*
X70034902Y-54014943D01*
X73626300Y-54014943D01*
X73626300Y-54173057D01*
X73663927Y-54313481D01*
X73667223Y-54325783D01*
X73667226Y-54325790D01*
X73746275Y-54462709D01*
X73746279Y-54462714D01*
X73746280Y-54462716D01*
X73858084Y-54574520D01*
X73858086Y-54574521D01*
X73858090Y-54574524D01*
X73995009Y-54653573D01*
X73995016Y-54653577D01*
X74147743Y-54694500D01*
X74147745Y-54694500D01*
X74305855Y-54694500D01*
X74305857Y-54694500D01*
X74458584Y-54653577D01*
X74595516Y-54574520D01*
X74707320Y-54462716D01*
X74786377Y-54325784D01*
X74827300Y-54173057D01*
X74827300Y-54014943D01*
X74827300Y-54006815D01*
X74830480Y-54006815D01*
X74838912Y-53952579D01*
X74863426Y-53917699D01*
X81591265Y-47189862D01*
X81634118Y-47115639D01*
X81656300Y-47032853D01*
X81656300Y-46947147D01*
X81656300Y-45348989D01*
X81675985Y-45281950D01*
X81692619Y-45261308D01*
X82418108Y-44535819D01*
X82479431Y-44502334D01*
X82505789Y-44499500D01*
X86659811Y-44499500D01*
X86726850Y-44519185D01*
X86747492Y-44535819D01*
X87750168Y-45538495D01*
X87783653Y-45599818D01*
X87778669Y-45669510D01*
X87777048Y-45673628D01*
X87737471Y-45769175D01*
X87737468Y-45769187D01*
X87697100Y-45972130D01*
X87697100Y-46179069D01*
X87737468Y-46382012D01*
X87737470Y-46382020D01*
X87803539Y-46541525D01*
X87816659Y-46573198D01*
X87830436Y-46593817D01*
X87931624Y-46745257D01*
X88077942Y-46891575D01*
X88077945Y-46891577D01*
X88250002Y-47006541D01*
X88441180Y-47085730D01*
X88585652Y-47114467D01*
X88644130Y-47126099D01*
X88644134Y-47126100D01*
X88644135Y-47126100D01*
X88851066Y-47126100D01*
X88851067Y-47126099D01*
X89054020Y-47085730D01*
X89245198Y-47006541D01*
X89417255Y-46891577D01*
X89563577Y-46745255D01*
X89678541Y-46573198D01*
X89757730Y-46382020D01*
X89798100Y-46179065D01*
X89798100Y-45972135D01*
X89757730Y-45769180D01*
X89678541Y-45578002D01*
X89563577Y-45405945D01*
X89563575Y-45405942D01*
X89417257Y-45259624D01*
X89249255Y-45147370D01*
X89245198Y-45144659D01*
X89226116Y-45136755D01*
X89054020Y-45065470D01*
X89054012Y-45065468D01*
X88851069Y-45025100D01*
X88851065Y-45025100D01*
X88644135Y-45025100D01*
X88644130Y-45025100D01*
X88441187Y-45065468D01*
X88441175Y-45065471D01*
X88345628Y-45105048D01*
X88276159Y-45112517D01*
X88213680Y-45081241D01*
X88210495Y-45078168D01*
X87045864Y-43913537D01*
X87045862Y-43913535D01*
X87008750Y-43892108D01*
X86971640Y-43870682D01*
X86930246Y-43859591D01*
X86888853Y-43848500D01*
X82276747Y-43848500D01*
X82193962Y-43870682D01*
X82193955Y-43870685D01*
X82119744Y-43913530D01*
X82119736Y-43913536D01*
X81070337Y-44962935D01*
X81070333Y-44962941D01*
X81027481Y-45037161D01*
X81027482Y-45037162D01*
X81005300Y-45119947D01*
X81005300Y-46803810D01*
X80985615Y-46870849D01*
X80968981Y-46891491D01*
X74403101Y-53457370D01*
X74341778Y-53490855D01*
X74313984Y-53492014D01*
X74313984Y-53493500D01*
X74147743Y-53493500D01*
X73995016Y-53534423D01*
X73995009Y-53534426D01*
X73858090Y-53613475D01*
X73858082Y-53613481D01*
X73746281Y-53725282D01*
X73746275Y-53725290D01*
X73667226Y-53862209D01*
X73667223Y-53862216D01*
X73626300Y-54014943D01*
X70034902Y-54014943D01*
X70086377Y-53925784D01*
X70127300Y-53773057D01*
X70127300Y-53614943D01*
X70086377Y-53462216D01*
X70083579Y-53457370D01*
X70007324Y-53325290D01*
X70007318Y-53325282D01*
X69895517Y-53213481D01*
X69895509Y-53213475D01*
X69758590Y-53134426D01*
X69758586Y-53134424D01*
X69758584Y-53134423D01*
X69605857Y-53093500D01*
X69447743Y-53093500D01*
X69295016Y-53134423D01*
X69295009Y-53134426D01*
X69158090Y-53213475D01*
X69158082Y-53213481D01*
X69046281Y-53325282D01*
X69046275Y-53325290D01*
X68967226Y-53462209D01*
X68967223Y-53462216D01*
X68926300Y-53614943D01*
X68926300Y-53773057D01*
X68931485Y-53792407D01*
X68929822Y-53862257D01*
X68890659Y-53920119D01*
X68826430Y-53947623D01*
X68811710Y-53948500D01*
X67128989Y-53948500D01*
X67099548Y-53939855D01*
X67069562Y-53933332D01*
X67064546Y-53929577D01*
X67061950Y-53928815D01*
X67041308Y-53912181D01*
X66904619Y-53775492D01*
X66871134Y-53714169D01*
X66868300Y-53687811D01*
X66868300Y-41767855D01*
X66868301Y-41767842D01*
X66868301Y-41672148D01*
X66865772Y-41662709D01*
X66846118Y-41589362D01*
X66835293Y-41570613D01*
X66803265Y-41515138D01*
X66742662Y-41454535D01*
X66742659Y-41454533D01*
X64363619Y-39075492D01*
X64330134Y-39014169D01*
X64327300Y-38987811D01*
X64327300Y-26260149D01*
X64327300Y-26260147D01*
X64305118Y-26177362D01*
X64305118Y-26177361D01*
X64262265Y-26103138D01*
X63292662Y-25133535D01*
X63252610Y-25110411D01*
X63218440Y-25090682D01*
X63177046Y-25079591D01*
X63135653Y-25068500D01*
X63135652Y-25068500D01*
X62301630Y-25068500D01*
X62234591Y-25048815D01*
X62214120Y-25029977D01*
X62213067Y-25031031D01*
X62095517Y-24913481D01*
X62095509Y-24913475D01*
X61958590Y-24834426D01*
X61958586Y-24834424D01*
X61958584Y-24834423D01*
X61805857Y-24793500D01*
X61647743Y-24793500D01*
X61495016Y-24834423D01*
X61495009Y-24834426D01*
X61358090Y-24913475D01*
X61358082Y-24913481D01*
X61246281Y-25025282D01*
X61246275Y-25025290D01*
X61167226Y-25162209D01*
X61167223Y-25162216D01*
X61126300Y-25314943D01*
X60824300Y-25314943D01*
X60824300Y-23251342D01*
X60843985Y-23184303D01*
X60860619Y-23163661D01*
X61619261Y-22405019D01*
X61680584Y-22371534D01*
X61706942Y-22368700D01*
X64785058Y-22368700D01*
X64814498Y-22377344D01*
X64844485Y-22383868D01*
X64849500Y-22387622D01*
X64852097Y-22388385D01*
X64872739Y-22405019D01*
X65014981Y-22547261D01*
X65048466Y-22608584D01*
X65051300Y-22634942D01*
X65051300Y-24612165D01*
X65090519Y-24758536D01*
X65118634Y-24807231D01*
X65166285Y-24889765D01*
X65273435Y-24996915D01*
X65404665Y-25072681D01*
X65551034Y-25111900D01*
X65551036Y-25111900D01*
X65702564Y-25111900D01*
X65702566Y-25111900D01*
X65761208Y-25096187D01*
X65831057Y-25097850D01*
X65888919Y-25137013D01*
X65916423Y-25201241D01*
X65917300Y-25215962D01*
X65917300Y-30284258D01*
X65897615Y-30351297D01*
X65880981Y-30371939D01*
X65647739Y-30605181D01*
X65586416Y-30638666D01*
X65560058Y-30641500D01*
X65547743Y-30641500D01*
X65395016Y-30682423D01*
X65395009Y-30682426D01*
X65258090Y-30761475D01*
X65258082Y-30761481D01*
X65146281Y-30873282D01*
X65146275Y-30873290D01*
X65067226Y-31010209D01*
X65067223Y-31010216D01*
X65026300Y-31162943D01*
X65026300Y-31321057D01*
X65063094Y-31458372D01*
X65067223Y-31473783D01*
X65067226Y-31473790D01*
X65146275Y-31610709D01*
X65146279Y-31610714D01*
X65146280Y-31610716D01*
X65258084Y-31722520D01*
X65258086Y-31722521D01*
X65258090Y-31722524D01*
X65395009Y-31801573D01*
X65395016Y-31801577D01*
X65547743Y-31842500D01*
X65547745Y-31842500D01*
X65705855Y-31842500D01*
X65705857Y-31842500D01*
X65771361Y-31824948D01*
X65783391Y-31821725D01*
X65815484Y-31817500D01*
X65900564Y-31817500D01*
X65900566Y-31817500D01*
X66046935Y-31778281D01*
X66178165Y-31702515D01*
X66953315Y-30927365D01*
X67029081Y-30796135D01*
X67068300Y-30649766D01*
X67068300Y-30498233D01*
X67068300Y-25978169D01*
X75971900Y-25978169D01*
X75971900Y-28774630D01*
X75978834Y-28831735D01*
X75994677Y-28962216D01*
X76007635Y-29068927D01*
X76078581Y-29356769D01*
X76183706Y-29633959D01*
X76321473Y-29896450D01*
X76321479Y-29896459D01*
X76489878Y-30140429D01*
X76489883Y-30140435D01*
X76686466Y-30362331D01*
X76686468Y-30362333D01*
X76876627Y-30530800D01*
X76809600Y-30530800D01*
X76149200Y-31191200D01*
X75996800Y-31191200D01*
X75996800Y-35966400D01*
X76657200Y-36626800D01*
X76918610Y-36626800D01*
X76911174Y-36635690D01*
X76736463Y-36790471D01*
X76539883Y-37012364D01*
X76539878Y-37012370D01*
X76371479Y-37256340D01*
X76371473Y-37256349D01*
X76233706Y-37518840D01*
X76128581Y-37796030D01*
X76060954Y-38070409D01*
X76057634Y-38083878D01*
X76047746Y-38165316D01*
X76021900Y-38378169D01*
X76021900Y-41174630D01*
X76026795Y-41214943D01*
X76051880Y-41421537D01*
X76057635Y-41468927D01*
X76128581Y-41756769D01*
X76233706Y-42033959D01*
X76371473Y-42296450D01*
X76371479Y-42296459D01*
X76539878Y-42540429D01*
X76539883Y-42540435D01*
X76736466Y-42762331D01*
X76736468Y-42762333D01*
X76958364Y-42958916D01*
X76958370Y-42958921D01*
X77202340Y-43127320D01*
X77202349Y-43127326D01*
X77464840Y-43265093D01*
X77742030Y-43370218D01*
X77742032Y-43370218D01*
X77742036Y-43370220D01*
X78029878Y-43441166D01*
X78276974Y-43471169D01*
X78324170Y-43476900D01*
X78324172Y-43476900D01*
X107495315Y-43476900D01*
X107530214Y-43468297D01*
X107636904Y-43442001D01*
X107766028Y-43374231D01*
X107875182Y-43277530D01*
X107958021Y-43157516D01*
X108009732Y-43021164D01*
X108027310Y-42876400D01*
X108009732Y-42731636D01*
X108009731Y-42731634D01*
X108009731Y-42731632D01*
X107981057Y-42656025D01*
X107958021Y-42595284D01*
X107875182Y-42475270D01*
X107766028Y-42378569D01*
X107766026Y-42378568D01*
X107766025Y-42378567D01*
X107636905Y-42310799D01*
X107495315Y-42275900D01*
X107495314Y-42275900D01*
X107422607Y-42275900D01*
X102450169Y-42275900D01*
X102383130Y-42256215D01*
X102376428Y-42250814D01*
X102371807Y-42248900D01*
X102271388Y-42248900D01*
X102271387Y-42248900D01*
X102248601Y-42258339D01*
X102248186Y-42257338D01*
X102219384Y-42273066D01*
X102193026Y-42275900D01*
X101922187Y-42275900D01*
X86477272Y-42275901D01*
X86467544Y-42275519D01*
X86286661Y-42261284D01*
X86267442Y-42258240D01*
X86095770Y-42217026D01*
X86077264Y-42211013D01*
X86076241Y-42210589D01*
X85914148Y-42143447D01*
X85896817Y-42134616D01*
X85791097Y-42069831D01*
X85746279Y-42042366D01*
X85730544Y-42030934D01*
X85596282Y-41916264D01*
X85582534Y-41902516D01*
X85467867Y-41768258D01*
X85456431Y-41752517D01*
X85364185Y-41601986D01*
X85355351Y-41584649D01*
X85287788Y-41421537D01*
X85281775Y-41403032D01*
X85262238Y-41321655D01*
X85240558Y-41231355D01*
X85237515Y-41212138D01*
X85223283Y-41031306D01*
X85222901Y-41021577D01*
X85222901Y-38531233D01*
X85223283Y-38521504D01*
X85230644Y-38427981D01*
X85237516Y-38340657D01*
X85240560Y-38321442D01*
X85244255Y-38306055D01*
X85281777Y-38149764D01*
X85287789Y-38131263D01*
X85307417Y-38083878D01*
X85355353Y-37968147D01*
X85364186Y-37950814D01*
X85378387Y-37927641D01*
X85456433Y-37800279D01*
X85467869Y-37784541D01*
X85582530Y-37650290D01*
X85596283Y-37636535D01*
X85730550Y-37521860D01*
X85746269Y-37510440D01*
X85896822Y-37418181D01*
X85914144Y-37409355D01*
X86077279Y-37341781D01*
X86095760Y-37335777D01*
X86267449Y-37294558D01*
X86286654Y-37291516D01*
X86467558Y-37277278D01*
X86477284Y-37276897D01*
X101947528Y-37276898D01*
X101947532Y-37276900D01*
X101972193Y-37276900D01*
X105670630Y-37276900D01*
X105714322Y-37271594D01*
X105964922Y-37241166D01*
X106252764Y-37170220D01*
X106529955Y-37065095D01*
X106792453Y-36927325D01*
X107036432Y-36758919D01*
X107258332Y-36562332D01*
X107272448Y-36546399D01*
X107357213Y-36450719D01*
X107454919Y-36340432D01*
X107623325Y-36096453D01*
X107761095Y-35833955D01*
X107866220Y-35556764D01*
X107937166Y-35268922D01*
X107972900Y-34974628D01*
X107972900Y-34826606D01*
X107972901Y-34826605D01*
X107972900Y-34826268D01*
X107972900Y-34825900D01*
X107972900Y-34776164D01*
X107972746Y-34774760D01*
X107965488Y-32333812D01*
X107965489Y-32185584D01*
X107929756Y-31891289D01*
X107917730Y-31842499D01*
X107892576Y-31740442D01*
X107858810Y-31603447D01*
X107858807Y-31603440D01*
X107858806Y-31603435D01*
X107753690Y-31326264D01*
X107753689Y-31326263D01*
X107753686Y-31326255D01*
X107615917Y-31063756D01*
X107605388Y-31048502D01*
X107447513Y-30819779D01*
X107447508Y-30819773D01*
X107250925Y-30597876D01*
X107250923Y-30597874D01*
X107029026Y-30401291D01*
X107029020Y-30401286D01*
X106785052Y-30232888D01*
X106785048Y-30232886D01*
X106785044Y-30232883D01*
X106522545Y-30095114D01*
X106522540Y-30095112D01*
X106522536Y-30095110D01*
X106522535Y-30095109D01*
X106245364Y-29989993D01*
X106245353Y-29989990D01*
X105957516Y-29919044D01*
X105663220Y-29883311D01*
X105663216Y-29883311D01*
X105515195Y-29883311D01*
X101997141Y-29875951D01*
X101996875Y-29875898D01*
X101972607Y-29875898D01*
X101948399Y-29875898D01*
X86464316Y-29875899D01*
X86454583Y-29875516D01*
X86273721Y-29861276D01*
X86254503Y-29858232D01*
X86082831Y-29817012D01*
X86064325Y-29810998D01*
X86024499Y-29794500D01*
X85901222Y-29743431D01*
X85883894Y-29734602D01*
X85733356Y-29642348D01*
X85717615Y-29630910D01*
X85583374Y-29516252D01*
X85569616Y-29502494D01*
X85454957Y-29368241D01*
X85443521Y-29352499D01*
X85351280Y-29201971D01*
X85342446Y-29184635D01*
X85318072Y-29125790D01*
X85274881Y-29021514D01*
X85268872Y-29003019D01*
X85227658Y-28831345D01*
X85224617Y-28812141D01*
X85210330Y-28630617D01*
X85209949Y-28620892D01*
X85209949Y-26131270D01*
X85210331Y-26121541D01*
X85217695Y-26027977D01*
X85224568Y-25940647D01*
X85227609Y-25921443D01*
X85268829Y-25749746D01*
X85274831Y-25731273D01*
X85342408Y-25568126D01*
X85351230Y-25550814D01*
X85443487Y-25400259D01*
X85454917Y-25384528D01*
X85477814Y-25357719D01*
X85569582Y-25250269D01*
X85583328Y-25236520D01*
X85717600Y-25121836D01*
X85733317Y-25110417D01*
X85883872Y-25018150D01*
X85901193Y-25009325D01*
X86064323Y-24941750D01*
X86082809Y-24935742D01*
X86254505Y-24894515D01*
X86273707Y-24891474D01*
X86441616Y-24878252D01*
X86453995Y-24877278D01*
X86463727Y-24876895D01*
X101897524Y-24876896D01*
X101897537Y-24876900D01*
X101922193Y-24876900D01*
X107371900Y-24876900D01*
X107445315Y-24876900D01*
X107480214Y-24868297D01*
X107586904Y-24842001D01*
X107716028Y-24774231D01*
X107825182Y-24677530D01*
X107908021Y-24557516D01*
X107959732Y-24421164D01*
X107977310Y-24276400D01*
X107959732Y-24131636D01*
X107959731Y-24131634D01*
X107959731Y-24131632D01*
X107928954Y-24050481D01*
X107908021Y-23995284D01*
X107825182Y-23875270D01*
X107716028Y-23778569D01*
X107716026Y-23778568D01*
X107716025Y-23778567D01*
X107586905Y-23710799D01*
X107445315Y-23675900D01*
X107445314Y-23675900D01*
X107372607Y-23675900D01*
X101972607Y-23675900D01*
X78422900Y-23675900D01*
X78422400Y-23675900D01*
X78274172Y-23675900D01*
X78274170Y-23675900D01*
X78137418Y-23692505D01*
X77979878Y-23711634D01*
X77979875Y-23711634D01*
X77979872Y-23711635D01*
X77692030Y-23782581D01*
X77414840Y-23887706D01*
X77152349Y-24025473D01*
X77152340Y-24025479D01*
X76908370Y-24193878D01*
X76908364Y-24193883D01*
X76686468Y-24390466D01*
X76686466Y-24390468D01*
X76489883Y-24612364D01*
X76489878Y-24612370D01*
X76321479Y-24856340D01*
X76321473Y-24856349D01*
X76183706Y-25118840D01*
X76078581Y-25396030D01*
X76012975Y-25662209D01*
X76007634Y-25683878D01*
X75998062Y-25762709D01*
X75971900Y-25978169D01*
X67068300Y-25978169D01*
X67068300Y-25083500D01*
X67087985Y-25016461D01*
X67140789Y-24970706D01*
X67192300Y-24959500D01*
X69722564Y-24959500D01*
X69722566Y-24959500D01*
X69868935Y-24920281D01*
X70000165Y-24844515D01*
X70687315Y-24157365D01*
X70763081Y-24026135D01*
X70802300Y-23879766D01*
X70802300Y-23728233D01*
X70802300Y-22382683D01*
X70806525Y-22350590D01*
X70819966Y-22300426D01*
X70827300Y-22273057D01*
X70827300Y-22114943D01*
X70786377Y-21962216D01*
X70741615Y-21884685D01*
X70707324Y-21825290D01*
X70707318Y-21825282D01*
X70595517Y-21713481D01*
X70595509Y-21713475D01*
X70458590Y-21634426D01*
X70458586Y-21634424D01*
X70458584Y-21634423D01*
X70305857Y-21593500D01*
X70147743Y-21593500D01*
X69995016Y-21634423D01*
X69995009Y-21634426D01*
X69858090Y-21713475D01*
X69858082Y-21713481D01*
X69746281Y-21825282D01*
X69746275Y-21825290D01*
X69667226Y-21962209D01*
X69667223Y-21962216D01*
X69626300Y-22114943D01*
X69626300Y-22273056D01*
X69647075Y-22350590D01*
X69651300Y-22382683D01*
X69651300Y-23514258D01*
X69642655Y-23543698D01*
X69636132Y-23573685D01*
X69632377Y-23578700D01*
X69631615Y-23581297D01*
X69614981Y-23601939D01*
X69444739Y-23772181D01*
X69383416Y-23805666D01*
X69357058Y-23808500D01*
X66326300Y-23808500D01*
X66259261Y-23788815D01*
X66213506Y-23736011D01*
X66202300Y-23684500D01*
X66202300Y-22269436D01*
X66202300Y-22269434D01*
X66163081Y-22123065D01*
X66087315Y-21991835D01*
X65980165Y-21884685D01*
X65428165Y-21332685D01*
X65362550Y-21294802D01*
X65296936Y-21256919D01*
X65223750Y-21237309D01*
X65150566Y-21217700D01*
X61492966Y-21217700D01*
X61341433Y-21217700D01*
X61195063Y-21256919D01*
X61063835Y-21332685D01*
X61063832Y-21332687D01*
X59788287Y-22608232D01*
X59788285Y-22608235D01*
X59712519Y-22739463D01*
X59673300Y-22885834D01*
X54555731Y-22885834D01*
X54566508Y-22845614D01*
X54575500Y-22812057D01*
X54575500Y-22653943D01*
X54534577Y-22501216D01*
X54491973Y-22427423D01*
X54455524Y-22364290D01*
X54455518Y-22364282D01*
X54343717Y-22252481D01*
X54343709Y-22252475D01*
X54206790Y-22173426D01*
X54206786Y-22173424D01*
X54206784Y-22173423D01*
X54054057Y-22132500D01*
X53895943Y-22132500D01*
X53743216Y-22173423D01*
X53743209Y-22173426D01*
X53606290Y-22252475D01*
X53606282Y-22252481D01*
X53494481Y-22364282D01*
X53494475Y-22364290D01*
X53415426Y-22501209D01*
X53415423Y-22501216D01*
X53374500Y-22653943D01*
X50731471Y-22653943D01*
X50724577Y-22628216D01*
X50654294Y-22506481D01*
X50645524Y-22491290D01*
X50645518Y-22491282D01*
X50533717Y-22379481D01*
X50533709Y-22379475D01*
X50396790Y-22300426D01*
X50396786Y-22300424D01*
X50396784Y-22300423D01*
X50244057Y-22259500D01*
X50085943Y-22259500D01*
X49933216Y-22300423D01*
X49933209Y-22300426D01*
X49796290Y-22379475D01*
X49796282Y-22379481D01*
X49684481Y-22491282D01*
X49684475Y-22491290D01*
X49605426Y-22628209D01*
X49605423Y-22628216D01*
X49564500Y-22780943D01*
X46955500Y-22780943D01*
X46955500Y-22653943D01*
X46914577Y-22501216D01*
X46871973Y-22427423D01*
X46835524Y-22364290D01*
X46835518Y-22364282D01*
X46723717Y-22252481D01*
X46723709Y-22252475D01*
X46586790Y-22173426D01*
X46586786Y-22173424D01*
X46586784Y-22173423D01*
X46434057Y-22132500D01*
X46275943Y-22132500D01*
X46123216Y-22173423D01*
X46123209Y-22173426D01*
X45986290Y-22252475D01*
X45986282Y-22252481D01*
X45874481Y-22364282D01*
X45874475Y-22364290D01*
X45795426Y-22501209D01*
X45795423Y-22501216D01*
X45754500Y-22653943D01*
X43145500Y-22653943D01*
X43104577Y-22501216D01*
X43061973Y-22427423D01*
X43025524Y-22364290D01*
X43025518Y-22364282D01*
X42913717Y-22252481D01*
X42913709Y-22252475D01*
X42776790Y-22173426D01*
X42776786Y-22173424D01*
X42776784Y-22173423D01*
X42624057Y-22132500D01*
X42465943Y-22132500D01*
X42313216Y-22173423D01*
X42313209Y-22173426D01*
X42176290Y-22252475D01*
X42176282Y-22252481D01*
X42064481Y-22364282D01*
X42064475Y-22364290D01*
X41985426Y-22501209D01*
X41985423Y-22501216D01*
X41944500Y-22653943D01*
X39208500Y-22653943D01*
X39167577Y-22501216D01*
X39124973Y-22427423D01*
X39088524Y-22364290D01*
X39088518Y-22364282D01*
X38976717Y-22252481D01*
X38976709Y-22252475D01*
X38839790Y-22173426D01*
X38839786Y-22173424D01*
X38839784Y-22173423D01*
X38687057Y-22132500D01*
X38528943Y-22132500D01*
X38376216Y-22173423D01*
X38376209Y-22173426D01*
X38239290Y-22252475D01*
X38239282Y-22252481D01*
X38127481Y-22364282D01*
X38127475Y-22364290D01*
X38048426Y-22501209D01*
X38048423Y-22501216D01*
X38007500Y-22653943D01*
X35491471Y-22653943D01*
X35484577Y-22628216D01*
X35414294Y-22506481D01*
X35405524Y-22491290D01*
X35405518Y-22491282D01*
X35293717Y-22379481D01*
X35293709Y-22379475D01*
X35156790Y-22300426D01*
X35156786Y-22300424D01*
X35156784Y-22300423D01*
X35004057Y-22259500D01*
X34845943Y-22259500D01*
X34693216Y-22300423D01*
X34693209Y-22300426D01*
X34556290Y-22379475D01*
X34556282Y-22379481D01*
X34444481Y-22491282D01*
X34444475Y-22491290D01*
X34365426Y-22628209D01*
X34365423Y-22628216D01*
X34324500Y-22780943D01*
X31554471Y-22780943D01*
X31547577Y-22755216D01*
X31538482Y-22739463D01*
X31468524Y-22618290D01*
X31468518Y-22618282D01*
X31356717Y-22506481D01*
X31356709Y-22506475D01*
X31219790Y-22427426D01*
X31219786Y-22427424D01*
X31219784Y-22427423D01*
X31067057Y-22386500D01*
X30908943Y-22386500D01*
X30756216Y-22427423D01*
X30756209Y-22427426D01*
X30619290Y-22506475D01*
X30619282Y-22506481D01*
X30507481Y-22618282D01*
X30507475Y-22618290D01*
X30428426Y-22755209D01*
X30428423Y-22755216D01*
X30387500Y-22907943D01*
X28032500Y-22907943D01*
X28032500Y-22780943D01*
X27991577Y-22628216D01*
X27921294Y-22506481D01*
X27912524Y-22491290D01*
X27912518Y-22491282D01*
X27800717Y-22379481D01*
X27800709Y-22379475D01*
X27663790Y-22300426D01*
X27663786Y-22300424D01*
X27663784Y-22300423D01*
X27511057Y-22259500D01*
X27352943Y-22259500D01*
X27200216Y-22300423D01*
X27200209Y-22300426D01*
X27063290Y-22379475D01*
X27063282Y-22379481D01*
X26951481Y-22491282D01*
X26951475Y-22491290D01*
X26872426Y-22628209D01*
X26872423Y-22628216D01*
X26831500Y-22780943D01*
X23000500Y-22780943D01*
X23000500Y-20304427D01*
X23000816Y-20295581D01*
X23000816Y-20295580D01*
X23015131Y-20095434D01*
X23017646Y-20077938D01*
X23059356Y-19886199D01*
X23064333Y-19869248D01*
X23132911Y-19685385D01*
X23140259Y-19669298D01*
X23189539Y-19579048D01*
X23234291Y-19497089D01*
X23243845Y-19482221D01*
X23361448Y-19325123D01*
X23373020Y-19311769D01*
X23511769Y-19173020D01*
X23525123Y-19161448D01*
X23682221Y-19043845D01*
X23697089Y-19034291D01*
X23869298Y-18940258D01*
X23885385Y-18932911D01*
X24069248Y-18864333D01*
X24086199Y-18859356D01*
X24277938Y-18817646D01*
X24295436Y-18815130D01*
X24495582Y-18800816D01*
X24504428Y-18800500D01*
X110245572Y-18800500D01*
X110254418Y-18800816D01*
G37*
%TD.AperFunction*%
%TD*%
M02*
