%TF.GenerationSoftware,KiCad,Pcbnew,9.0.1*%
%TF.CreationDate,2025-06-09T22:47:13-04:00*%
%TF.ProjectId,blankBusinessCard,626c616e-6b42-4757-9369-6e6573734361,rev?*%
%TF.SameCoordinates,Original*%
%TF.FileFunction,Soldermask,Top*%
%TF.FilePolarity,Negative*%
%FSLAX46Y46*%
G04 Gerber Fmt 4.6, Leading zero omitted, Abs format (unit mm)*
G04 Created by KiCad (PCBNEW 9.0.1) date 2025-06-09 22:47:13*
%MOMM*%
%LPD*%
G01*
G04 APERTURE LIST*
G04 Aperture macros list*
%AMRoundRect*
0 Rectangle with rounded corners*
0 $1 Rounding radius*
0 $2 $3 $4 $5 $6 $7 $8 $9 X,Y pos of 4 corners*
0 Add a 4 corners polygon primitive as box body*
4,1,4,$2,$3,$4,$5,$6,$7,$8,$9,$2,$3,0*
0 Add four circle primitives for the rounded corners*
1,1,$1+$1,$2,$3*
1,1,$1+$1,$4,$5*
1,1,$1+$1,$6,$7*
1,1,$1+$1,$8,$9*
0 Add four rect primitives between the rounded corners*
20,1,$1+$1,$2,$3,$4,$5,0*
20,1,$1+$1,$4,$5,$6,$7,0*
20,1,$1+$1,$6,$7,$8,$9,0*
20,1,$1+$1,$8,$9,$2,$3,0*%
G04 Aperture macros list end*
%ADD10C,0.300000*%
%ADD11C,0.375000*%
%ADD12C,0.100000*%
%ADD13C,1.200000*%
%ADD14RoundRect,0.243750X0.494975X0.150260X0.150260X0.494975X-0.494975X-0.150260X-0.150260X-0.494975X0*%
%ADD15RoundRect,0.102000X0.400000X-0.450000X0.400000X0.450000X-0.400000X0.450000X-0.400000X-0.450000X0*%
%ADD16RoundRect,0.650000X-0.650000X-1.800000X0.650000X-1.800000X0.650000X1.800000X-0.650000X1.800000X0*%
%ADD17RoundRect,0.612500X-0.612500X-1.837500X0.612500X-1.837500X0.612500X1.837500X-0.612500X1.837500X0*%
%ADD18R,1.700000X1.000000*%
%ADD19RoundRect,0.200000X-0.200000X-0.275000X0.200000X-0.275000X0.200000X0.275000X-0.200000X0.275000X0*%
%ADD20RoundRect,0.200000X0.275000X-0.200000X0.275000X0.200000X-0.275000X0.200000X-0.275000X-0.200000X0*%
%ADD21R,1.700000X1.700000*%
%ADD22O,1.700000X1.700000*%
%ADD23RoundRect,0.225000X-0.225000X-0.250000X0.225000X-0.250000X0.225000X0.250000X-0.225000X0.250000X0*%
%ADD24RoundRect,0.200000X-0.275000X0.200000X-0.275000X-0.200000X0.275000X-0.200000X0.275000X0.200000X0*%
%ADD25RoundRect,0.100000X0.637500X0.100000X-0.637500X0.100000X-0.637500X-0.100000X0.637500X-0.100000X0*%
%ADD26RoundRect,0.225000X0.250000X-0.225000X0.250000X0.225000X-0.250000X0.225000X-0.250000X-0.225000X0*%
%ADD27RoundRect,0.225000X-0.250000X0.225000X-0.250000X-0.225000X0.250000X-0.225000X0.250000X0.225000X0*%
%ADD28R,1.050000X0.299999*%
G04 APERTURE END LIST*
D10*
G36*
X28897283Y-59302888D02*
G01*
X27594919Y-57318568D01*
X28544871Y-57318568D01*
X29279187Y-58613879D01*
X30057742Y-57318568D01*
X30963669Y-57318568D01*
X29661305Y-59302888D01*
X29661305Y-60779001D01*
X28897283Y-60779001D01*
X28897283Y-59302888D01*
G37*
G36*
X32176231Y-58366677D02*
G01*
X32424608Y-58432224D01*
X32652635Y-58539929D01*
X32845621Y-58683550D01*
X33004843Y-58862663D01*
X33127294Y-59076567D01*
X33183577Y-59232462D01*
X33218178Y-59402497D01*
X33230090Y-59589049D01*
X33218181Y-59775602D01*
X33183583Y-59945712D01*
X33127294Y-60101746D01*
X33004856Y-60315470D01*
X32845621Y-60494549D01*
X32652635Y-60638170D01*
X32424608Y-60745875D01*
X32176231Y-60811422D01*
X31908065Y-60833711D01*
X31639898Y-60811422D01*
X31391522Y-60745875D01*
X31163457Y-60638180D01*
X30970294Y-60494549D01*
X30811230Y-60315485D01*
X30688835Y-60101746D01*
X30632546Y-59945712D01*
X30597949Y-59775602D01*
X30586039Y-59589049D01*
X31320569Y-59589049D01*
X31338893Y-59762421D01*
X31390709Y-59905421D01*
X31474656Y-60024595D01*
X31587522Y-60114742D01*
X31729205Y-60170776D01*
X31908278Y-60190864D01*
X32087203Y-60170776D01*
X32228742Y-60114744D01*
X32341474Y-60024595D01*
X32425545Y-59905405D01*
X32477428Y-59762406D01*
X32495774Y-59589049D01*
X32477424Y-59415697D01*
X32425537Y-59272776D01*
X32341474Y-59153717D01*
X32228725Y-59063443D01*
X32087185Y-59007345D01*
X31908278Y-58987235D01*
X31729222Y-59007345D01*
X31587539Y-59063445D01*
X31474656Y-59153717D01*
X31390717Y-59272760D01*
X31338898Y-59415682D01*
X31320569Y-59589049D01*
X30586039Y-59589049D01*
X30597952Y-59402497D01*
X30632552Y-59232462D01*
X30688835Y-59076567D01*
X30811244Y-58862648D01*
X30970294Y-58683550D01*
X31163457Y-58539919D01*
X31391522Y-58432224D01*
X31639898Y-58366677D01*
X31908065Y-58344388D01*
X32176231Y-58366677D01*
G37*
G36*
X35954283Y-60779001D02*
G01*
X35249246Y-60779001D01*
X35249246Y-60453944D01*
X35239415Y-60453944D01*
X35138970Y-60590292D01*
X35072175Y-60653925D01*
X34989585Y-60712108D01*
X34897061Y-60759945D01*
X34788909Y-60799517D01*
X34673133Y-60824914D01*
X34543995Y-60833711D01*
X34358969Y-60822924D01*
X34210062Y-60793347D01*
X34090924Y-60748226D01*
X33935422Y-60644916D01*
X33821646Y-60511005D01*
X33743376Y-60349355D01*
X33694487Y-60154319D01*
X33670902Y-59944504D01*
X33662644Y-59709369D01*
X33662644Y-58399098D01*
X34397174Y-58399098D01*
X34397174Y-59564259D01*
X34404440Y-59777330D01*
X34419455Y-59884353D01*
X34448465Y-59980357D01*
X34495285Y-60065156D01*
X34561092Y-60132093D01*
X34648091Y-60174628D01*
X34779078Y-60190864D01*
X34912437Y-60176915D01*
X35009033Y-60139573D01*
X35087265Y-60079124D01*
X35143886Y-60002369D01*
X35182053Y-59912452D01*
X35205007Y-59808960D01*
X35219753Y-59583920D01*
X35219753Y-58399098D01*
X35954283Y-58399098D01*
X35954283Y-60779001D01*
G37*
G36*
X36473391Y-58399098D02*
G01*
X37207921Y-58399098D01*
X37207921Y-58782712D01*
X37217752Y-58782712D01*
X37350629Y-58585846D01*
X37496860Y-58454022D01*
X37609414Y-58394839D01*
X37743286Y-58357610D01*
X37903341Y-58344388D01*
X38030500Y-58347166D01*
X38148042Y-58358065D01*
X38148042Y-59038526D01*
X37993742Y-59000058D01*
X37834739Y-58987235D01*
X37636669Y-59003680D01*
X37501775Y-59046006D01*
X37392345Y-59117318D01*
X37313067Y-59210137D01*
X37259577Y-59322922D01*
X37227369Y-59462104D01*
X37207921Y-59785237D01*
X37207921Y-60779001D01*
X36473391Y-60779001D01*
X36473391Y-58399098D01*
G37*
G36*
X40009905Y-57318568D02*
G01*
X41047907Y-57318568D01*
X42521668Y-59723261D01*
X42531499Y-59723261D01*
X42531499Y-57318568D01*
X43295521Y-57318568D01*
X43295521Y-60779001D01*
X42296629Y-60779001D01*
X40783544Y-58315537D01*
X40773714Y-58315537D01*
X40773714Y-60779001D01*
X40009905Y-60779001D01*
X40009905Y-57318568D01*
G37*
G36*
X45296646Y-58366605D02*
G01*
X45520482Y-58425171D01*
X45652466Y-58488772D01*
X45762554Y-58567673D01*
X45853446Y-58662178D01*
X45957819Y-58832783D01*
X46027408Y-59046006D01*
X46063293Y-59282326D01*
X46076348Y-59571525D01*
X46076348Y-60779001D01*
X45400589Y-60779001D01*
X45400589Y-60471468D01*
X45390972Y-60471468D01*
X45299350Y-60589475D01*
X45191409Y-60681358D01*
X45065274Y-60749508D01*
X44857144Y-60812539D01*
X44636781Y-60833711D01*
X44472705Y-60822078D01*
X44315998Y-60787549D01*
X44169651Y-60729215D01*
X44044156Y-60649063D01*
X43939231Y-60546112D01*
X43858226Y-60420818D01*
X43807494Y-60277213D01*
X43789624Y-60105165D01*
X43792851Y-60074177D01*
X44494876Y-60074177D01*
X44507685Y-60153633D01*
X44544407Y-60215963D01*
X44607502Y-60265449D01*
X44723272Y-60312287D01*
X44842372Y-60327640D01*
X44948651Y-60320427D01*
X45050528Y-60299002D01*
X45146542Y-60263868D01*
X45229192Y-60217791D01*
X45299693Y-60157810D01*
X45354000Y-60083794D01*
X45388465Y-59997305D01*
X45400589Y-59892521D01*
X45400589Y-59739503D01*
X45219361Y-59739503D01*
X45011419Y-59746769D01*
X44888422Y-59760547D01*
X44771420Y-59787375D01*
X44663407Y-59829971D01*
X44575659Y-59887819D01*
X44515772Y-59966255D01*
X44494876Y-60074177D01*
X43792851Y-60074177D01*
X43809787Y-59911547D01*
X43865492Y-59760233D01*
X43954883Y-59631458D01*
X44071084Y-59527073D01*
X44208564Y-59445885D01*
X44367503Y-59383885D01*
X44536308Y-59339645D01*
X44712649Y-59308445D01*
X45069976Y-59279380D01*
X45400589Y-59274465D01*
X45384431Y-59151127D01*
X45338191Y-59049737D01*
X45261035Y-58965009D01*
X45162951Y-58901642D01*
X45053888Y-58863547D01*
X44930635Y-58850459D01*
X44755774Y-58869794D01*
X44600022Y-58926327D01*
X44459662Y-59015595D01*
X44333309Y-59134483D01*
X43941574Y-58731421D01*
X44085780Y-58613457D01*
X44245140Y-58516916D01*
X44421358Y-58441200D01*
X44700107Y-58368652D01*
X44989406Y-58344388D01*
X45296646Y-58366605D01*
G37*
G36*
X46536685Y-58399098D02*
G01*
X47241936Y-58399098D01*
X47241936Y-58722659D01*
X47251553Y-58722659D01*
X47349433Y-58586951D01*
X47501169Y-58465776D01*
X47593875Y-58417929D01*
X47702059Y-58378368D01*
X47817826Y-58353131D01*
X47946973Y-58344388D01*
X48110844Y-58356267D01*
X48257606Y-58390594D01*
X48389999Y-58446329D01*
X48507256Y-58526200D01*
X48603951Y-58631728D01*
X48681503Y-58766684D01*
X48776644Y-58623848D01*
X48879288Y-58517347D01*
X48989890Y-58441627D01*
X49114345Y-58389365D01*
X49261393Y-58356187D01*
X49435481Y-58344388D01*
X49663504Y-58366022D01*
X49839398Y-58425171D01*
X49987644Y-58521508D01*
X50099058Y-58645081D01*
X50179948Y-58793984D01*
X50236048Y-58972703D01*
X50267013Y-59164769D01*
X50277722Y-59375978D01*
X50277722Y-60779001D01*
X49543192Y-60779001D01*
X49543192Y-59393502D01*
X49524650Y-59235465D01*
X49472239Y-59107128D01*
X49415370Y-59042545D01*
X49334239Y-59002167D01*
X49220059Y-58987235D01*
X49099133Y-58998448D01*
X49006987Y-59028909D01*
X48929341Y-59078800D01*
X48869784Y-59143886D01*
X48826322Y-59222308D01*
X48796481Y-59315284D01*
X48774468Y-59520875D01*
X48774468Y-60779001D01*
X48039938Y-60779001D01*
X48039938Y-59520875D01*
X48035023Y-59364224D01*
X48000615Y-59188125D01*
X47962151Y-59110927D01*
X47905300Y-59046006D01*
X47828549Y-59003377D01*
X47711890Y-58987235D01*
X47578518Y-59001231D01*
X47481721Y-59038740D01*
X47403674Y-59099003D01*
X47347082Y-59175729D01*
X47308864Y-59265644D01*
X47285747Y-59369139D01*
X47271215Y-59594178D01*
X47271215Y-60779001D01*
X46536685Y-60779001D01*
X46536685Y-58399098D01*
G37*
G36*
X52292461Y-58367060D02*
G01*
X52508667Y-58432437D01*
X52701628Y-58539974D01*
X52861292Y-58684404D01*
X52987738Y-58862096D01*
X53083981Y-59078063D01*
X53142040Y-59316469D01*
X53162413Y-59591614D01*
X53162413Y-59821569D01*
X51458270Y-59821569D01*
X51500251Y-59952334D01*
X51563796Y-60060767D01*
X51649329Y-60150472D01*
X51753057Y-60217635D01*
X51872484Y-60258638D01*
X52011785Y-60272929D01*
X52182550Y-60251714D01*
X52317608Y-60192146D01*
X52433851Y-60100444D01*
X52535594Y-59983990D01*
X53049787Y-60361406D01*
X52922339Y-60500425D01*
X52774531Y-60616533D01*
X52604196Y-60710826D01*
X52421473Y-60779398D01*
X52235993Y-60820119D01*
X52045979Y-60833711D01*
X51777783Y-60811426D01*
X51529222Y-60745875D01*
X51301195Y-60638170D01*
X51108209Y-60494549D01*
X50949145Y-60315485D01*
X50826749Y-60101746D01*
X50770460Y-59945712D01*
X50735863Y-59775602D01*
X50723954Y-59589049D01*
X50735866Y-59402497D01*
X50753569Y-59315497D01*
X51458270Y-59315497D01*
X52427883Y-59315497D01*
X52416302Y-59200119D01*
X52375982Y-59098297D01*
X52305426Y-59006255D01*
X52213582Y-58935588D01*
X52105797Y-58892770D01*
X51977377Y-58877814D01*
X51859575Y-58887801D01*
X51761741Y-58915855D01*
X51674320Y-58960024D01*
X51602739Y-59013522D01*
X51543865Y-59077900D01*
X51499944Y-59151366D01*
X51471123Y-59231705D01*
X51458270Y-59315497D01*
X50753569Y-59315497D01*
X50770466Y-59232462D01*
X50826749Y-59076567D01*
X50949158Y-58862648D01*
X51108209Y-58683550D01*
X51301371Y-58539919D01*
X51529436Y-58432224D01*
X51777812Y-58366677D01*
X52045979Y-58344388D01*
X52292461Y-58367060D01*
G37*
D11*
G36*
X29006247Y-61805045D02*
G01*
X29144659Y-61831780D01*
X29273661Y-61875522D01*
X29395675Y-61935997D01*
X29503891Y-62009017D01*
X29599603Y-62094852D01*
X29683061Y-62192861D01*
X29753891Y-62302384D01*
X29812339Y-62424580D01*
X29854714Y-62553250D01*
X29880496Y-62689740D01*
X29889275Y-62835397D01*
X29880496Y-62981053D01*
X29854714Y-63117543D01*
X29812339Y-63246213D01*
X29753891Y-63368409D01*
X29683061Y-63477932D01*
X29599603Y-63575941D01*
X29503891Y-63661776D01*
X29395675Y-63734796D01*
X29273661Y-63795271D01*
X29144659Y-63839013D01*
X29006247Y-63865748D01*
X28856861Y-63874894D01*
X28707394Y-63865747D01*
X28568941Y-63839010D01*
X28439938Y-63795271D01*
X28317919Y-63734801D01*
X28209661Y-63661782D01*
X28113874Y-63575941D01*
X28030489Y-63477939D01*
X27959700Y-63368417D01*
X27901261Y-63246213D01*
X27858886Y-63117543D01*
X27833103Y-62981053D01*
X27824324Y-62835397D01*
X28109722Y-62835397D01*
X28123179Y-62994189D01*
X28162845Y-63141921D01*
X28227790Y-63277544D01*
X28313909Y-63392515D01*
X28421039Y-63487603D01*
X28548993Y-63561897D01*
X28642310Y-63596314D01*
X28744432Y-63617490D01*
X28856861Y-63624789D01*
X28969208Y-63617492D01*
X29071291Y-63596317D01*
X29164607Y-63561897D01*
X29292538Y-63487597D01*
X29399569Y-63392515D01*
X29485756Y-63277531D01*
X29550633Y-63141921D01*
X29590391Y-62994184D01*
X29603878Y-62835397D01*
X29590389Y-62676626D01*
X29550633Y-62528994D01*
X29485743Y-62393302D01*
X29399569Y-62278401D01*
X29292525Y-62183248D01*
X29164607Y-62109018D01*
X29071284Y-62074530D01*
X28969202Y-62053315D01*
X28856861Y-62046004D01*
X28744437Y-62053317D01*
X28642316Y-62074533D01*
X28548993Y-62109018D01*
X28421052Y-62183242D01*
X28313909Y-62278401D01*
X28227803Y-62393289D01*
X28162845Y-62528994D01*
X28123181Y-62676621D01*
X28109722Y-62835397D01*
X27824324Y-62835397D01*
X27833103Y-62689740D01*
X27858886Y-62553250D01*
X27901261Y-62424580D01*
X27959700Y-62302376D01*
X28030489Y-62192854D01*
X28113874Y-62094852D01*
X28209661Y-62009011D01*
X28317919Y-61935992D01*
X28439938Y-61875522D01*
X28568941Y-61831783D01*
X28707394Y-61805046D01*
X28856861Y-61795899D01*
X29006247Y-61805045D01*
G37*
G36*
X31160682Y-62851028D02*
G01*
X31087448Y-62785776D01*
X31013769Y-62740386D01*
X30931984Y-62712513D01*
X30830587Y-62702528D01*
X30731547Y-62712447D01*
X30650092Y-62740386D01*
X30579269Y-62785408D01*
X30521376Y-62844189D01*
X30476205Y-62914314D01*
X30442974Y-62995498D01*
X30423150Y-63082376D01*
X30416474Y-63173429D01*
X30424257Y-63264034D01*
X30447248Y-63348673D01*
X30484617Y-63426605D01*
X30533954Y-63493020D01*
X30595231Y-63547861D01*
X30668166Y-63589741D01*
X30750020Y-63615740D01*
X30844509Y-63624789D01*
X30945821Y-63614792D01*
X31026348Y-63587054D01*
X31097917Y-63541393D01*
X31166299Y-63476290D01*
X31345329Y-63655198D01*
X31275630Y-63721730D01*
X31199852Y-63773567D01*
X31117206Y-63811757D01*
X30984121Y-63847244D01*
X30841700Y-63859263D01*
X30692436Y-63846321D01*
X30560455Y-63808949D01*
X30441208Y-63747907D01*
X30340880Y-63667532D01*
X30259510Y-63568189D01*
X30198121Y-63449179D01*
X30160751Y-63317182D01*
X30147806Y-63167811D01*
X30160719Y-63018364D01*
X30198121Y-62885222D01*
X30259231Y-62764625D01*
X30339415Y-62664060D01*
X30438699Y-62582286D01*
X30557646Y-62519835D01*
X30690054Y-62481422D01*
X30841700Y-62468055D01*
X30984335Y-62481062D01*
X31120015Y-62519835D01*
X31204764Y-62560328D01*
X31281471Y-62612742D01*
X31350947Y-62677738D01*
X31160682Y-62851028D01*
G37*
G36*
X32508902Y-62851028D02*
G01*
X32435669Y-62785776D01*
X32361990Y-62740386D01*
X32280205Y-62712513D01*
X32178808Y-62702528D01*
X32079767Y-62712447D01*
X31998312Y-62740386D01*
X31927489Y-62785408D01*
X31869596Y-62844189D01*
X31824425Y-62914314D01*
X31791194Y-62995498D01*
X31771371Y-63082376D01*
X31764694Y-63173429D01*
X31772478Y-63264034D01*
X31795469Y-63348673D01*
X31832838Y-63426605D01*
X31882175Y-63493020D01*
X31943451Y-63547861D01*
X32016386Y-63589741D01*
X32098240Y-63615740D01*
X32192730Y-63624789D01*
X32294042Y-63614792D01*
X32374569Y-63587054D01*
X32446137Y-63541393D01*
X32514520Y-63476290D01*
X32693550Y-63655198D01*
X32623851Y-63721730D01*
X32548073Y-63773567D01*
X32465427Y-63811757D01*
X32332341Y-63847244D01*
X32189921Y-63859263D01*
X32040657Y-63846321D01*
X31908675Y-63808949D01*
X31789429Y-63747907D01*
X31689101Y-63667532D01*
X31607731Y-63568189D01*
X31546341Y-63449179D01*
X31508972Y-63317182D01*
X31496027Y-63167811D01*
X31508940Y-63018364D01*
X31546341Y-62885222D01*
X31607451Y-62764625D01*
X31687636Y-62664060D01*
X31786920Y-62582286D01*
X31905866Y-62519835D01*
X32038274Y-62481422D01*
X32189921Y-62468055D01*
X32332555Y-62481062D01*
X32468236Y-62519835D01*
X32552984Y-62560328D01*
X32629691Y-62612742D01*
X32699167Y-62677738D01*
X32508902Y-62851028D01*
G37*
G36*
X34083780Y-63828000D02*
G01*
X33831966Y-63828000D01*
X33831966Y-63621981D01*
X33826348Y-63621981D01*
X33787874Y-63686932D01*
X33733640Y-63743950D01*
X33661240Y-63793683D01*
X33580590Y-63829535D01*
X33490751Y-63851612D01*
X33389886Y-63859263D01*
X33293983Y-63851786D01*
X33205116Y-63829831D01*
X33123508Y-63792371D01*
X33052709Y-63738973D01*
X32994583Y-63670118D01*
X32947806Y-63580948D01*
X32918996Y-63478994D01*
X32908606Y-63352825D01*
X32908606Y-62499318D01*
X33160420Y-62499318D01*
X33160420Y-63283216D01*
X33167159Y-63371777D01*
X33185577Y-63441485D01*
X33215730Y-63502160D01*
X33252744Y-63547853D01*
X33297965Y-63582869D01*
X33349220Y-63606593D01*
X33404721Y-63620216D01*
X33462670Y-63624789D01*
X33538949Y-63618365D01*
X33608117Y-63599632D01*
X33670827Y-63567191D01*
X33725598Y-63519765D01*
X33769560Y-63459353D01*
X33804000Y-63381279D01*
X33824495Y-63292906D01*
X33831966Y-63182466D01*
X33831966Y-62499318D01*
X34083780Y-62499318D01*
X34083780Y-63828000D01*
G37*
G36*
X35331737Y-62481759D02*
G01*
X35461432Y-62521178D01*
X35577437Y-62585079D01*
X35674045Y-62669189D01*
X35751671Y-62771610D01*
X35809722Y-62891328D01*
X35845242Y-63021773D01*
X35857349Y-63163659D01*
X35845190Y-63307901D01*
X35809722Y-63438799D01*
X35751608Y-63558280D01*
X35674045Y-63659594D01*
X35577549Y-63742562D01*
X35461432Y-63806262D01*
X35331743Y-63845589D01*
X35182995Y-63859263D01*
X35044177Y-63844160D01*
X34914450Y-63799179D01*
X34835384Y-63753155D01*
X34771651Y-63698795D01*
X34721376Y-63635780D01*
X34715758Y-63635780D01*
X34715758Y-64617392D01*
X34463944Y-64617392D01*
X34463944Y-63163659D01*
X34715758Y-63163659D01*
X34723651Y-63261633D01*
X34746533Y-63349528D01*
X34784124Y-63429361D01*
X34833239Y-63494852D01*
X34894951Y-63548230D01*
X34970381Y-63589863D01*
X35055007Y-63615773D01*
X35152342Y-63624789D01*
X35249554Y-63615773D01*
X35334059Y-63589863D01*
X35409571Y-63548216D01*
X35471201Y-63494852D01*
X35520413Y-63429351D01*
X35558030Y-63349528D01*
X35580912Y-63261633D01*
X35588804Y-63163659D01*
X35580912Y-63065684D01*
X35558030Y-62977790D01*
X35520413Y-62897966D01*
X35471201Y-62832466D01*
X35409571Y-62779102D01*
X35334059Y-62737455D01*
X35249554Y-62711545D01*
X35152342Y-62702528D01*
X35055007Y-62711545D01*
X34970381Y-62737455D01*
X34894951Y-62779088D01*
X34833239Y-62832466D01*
X34784124Y-62897957D01*
X34746533Y-62977790D01*
X34723651Y-63065684D01*
X34715758Y-63163659D01*
X34463944Y-63163659D01*
X34463944Y-62499318D01*
X34715758Y-62499318D01*
X34715758Y-62691538D01*
X34721376Y-62691538D01*
X34775261Y-62626754D01*
X34841418Y-62571982D01*
X34921411Y-62526796D01*
X35051108Y-62482589D01*
X35182995Y-62468055D01*
X35331737Y-62481759D01*
G37*
G36*
X36845034Y-62477805D02*
G01*
X36955709Y-62504448D01*
X37053319Y-62548355D01*
X37127779Y-62602389D01*
X37186535Y-62668988D01*
X37227063Y-62743683D01*
X37251228Y-62825088D01*
X37259303Y-62910135D01*
X37259303Y-63587298D01*
X37262112Y-63716136D01*
X37270539Y-63828000D01*
X37046690Y-63828000D01*
X37038264Y-63625400D01*
X37032646Y-63625400D01*
X36971065Y-63704854D01*
X36905003Y-63764291D01*
X36833954Y-63806384D01*
X36713165Y-63845442D01*
X36568218Y-63859263D01*
X36477420Y-63852925D01*
X36391875Y-63834228D01*
X36312443Y-63802547D01*
X36244963Y-63759123D01*
X36188828Y-63703204D01*
X36145678Y-63635170D01*
X36118774Y-63557299D01*
X36109286Y-63463956D01*
X36110870Y-63444660D01*
X36361100Y-63444660D01*
X36370478Y-63515584D01*
X36396256Y-63568035D01*
X36438037Y-63606715D01*
X36491607Y-63632789D01*
X36559884Y-63649818D01*
X36646498Y-63656053D01*
X36745183Y-63646908D01*
X36822719Y-63621736D01*
X36889417Y-63581579D01*
X36940200Y-63532588D01*
X36978752Y-63474479D01*
X37004558Y-63410466D01*
X37019377Y-63343020D01*
X37024220Y-63277232D01*
X37024220Y-63194922D01*
X36889886Y-63194922D01*
X36706582Y-63204570D01*
X36615572Y-63218916D01*
X36535978Y-63241572D01*
X36464778Y-63275316D01*
X36410071Y-63318509D01*
X36373661Y-63373902D01*
X36361100Y-63444660D01*
X36110870Y-63444660D01*
X36116160Y-63380221D01*
X36135584Y-63309578D01*
X36166561Y-63249632D01*
X36233589Y-63172078D01*
X36323243Y-63109071D01*
X36428456Y-63063254D01*
X36555518Y-63031035D01*
X36691019Y-63013435D01*
X36839572Y-63007344D01*
X37024220Y-63007344D01*
X37024220Y-62951290D01*
X37019391Y-62901394D01*
X37004558Y-62850540D01*
X36980252Y-62802807D01*
X36945818Y-62759559D01*
X36902527Y-62723571D01*
X36847998Y-62695079D01*
X36785859Y-62677603D01*
X36708047Y-62671265D01*
X36637669Y-62674952D01*
X36580675Y-62685065D01*
X36481390Y-62719381D01*
X36400301Y-62767497D01*
X36330326Y-62819765D01*
X36179261Y-62663450D01*
X36293618Y-62578189D01*
X36425458Y-62516904D01*
X36566368Y-62480095D01*
X36705238Y-62468055D01*
X36845034Y-62477805D01*
G37*
G36*
X38336170Y-62718160D02*
G01*
X37975179Y-62718160D01*
X37975179Y-63319730D01*
X37977988Y-63430372D01*
X37984836Y-63482979D01*
X37998993Y-63528314D01*
X38022136Y-63567562D01*
X38054924Y-63598289D01*
X38098114Y-63617339D01*
X38165444Y-63624789D01*
X38257646Y-63616485D01*
X38303533Y-63604448D01*
X38344474Y-63585711D01*
X38344474Y-63814566D01*
X38295583Y-63835097D01*
X38228337Y-63849493D01*
X38117817Y-63859263D01*
X37981598Y-63847776D01*
X37892625Y-63818718D01*
X37822041Y-63771015D01*
X37775144Y-63713816D01*
X37745262Y-63646250D01*
X37730326Y-63569835D01*
X37723365Y-63409001D01*
X37723365Y-62718160D01*
X37432349Y-62718160D01*
X37432349Y-62499318D01*
X37723365Y-62499318D01*
X37723365Y-62124161D01*
X37975179Y-62124161D01*
X37975179Y-62499318D01*
X38336170Y-62499318D01*
X38336170Y-62718160D01*
G37*
G36*
X38680552Y-62499318D02*
G01*
X38932367Y-62499318D01*
X38932367Y-63828000D01*
X38680552Y-63828000D01*
X38680552Y-62499318D01*
G37*
G36*
X38621812Y-62026464D02*
G01*
X38635374Y-61956782D01*
X38676400Y-61897138D01*
X38736398Y-61856314D01*
X38806582Y-61842794D01*
X38876661Y-61856308D01*
X38936641Y-61897138D01*
X38977667Y-61956782D01*
X38991229Y-62026464D01*
X38977671Y-62096168D01*
X38936641Y-62155913D01*
X38876670Y-62196647D01*
X38806582Y-62210135D01*
X38736388Y-62196641D01*
X38676400Y-62155913D01*
X38635370Y-62096168D01*
X38621812Y-62026464D01*
G37*
G36*
X40116351Y-62481868D02*
G01*
X40248958Y-62522521D01*
X40369804Y-62587475D01*
X40472806Y-62671998D01*
X40557632Y-62774420D01*
X40622527Y-62892672D01*
X40663272Y-63022277D01*
X40677116Y-63163659D01*
X40663305Y-63305249D01*
X40622527Y-63436112D01*
X40557487Y-63555249D01*
X40472806Y-63656785D01*
X40369908Y-63740143D01*
X40248958Y-63804796D01*
X40116351Y-63845450D01*
X39971987Y-63859263D01*
X39827622Y-63845450D01*
X39695015Y-63804796D01*
X39574065Y-63740143D01*
X39471167Y-63656785D01*
X39386487Y-63555249D01*
X39321446Y-63436112D01*
X39280668Y-63305249D01*
X39266857Y-63163659D01*
X39535525Y-63163659D01*
X39543417Y-63261633D01*
X39566299Y-63349528D01*
X39603890Y-63429361D01*
X39653005Y-63494852D01*
X39714617Y-63548223D01*
X39790026Y-63589863D01*
X39874651Y-63615773D01*
X39971987Y-63624789D01*
X40069305Y-63615770D01*
X40153825Y-63589863D01*
X40229337Y-63548216D01*
X40290968Y-63494852D01*
X40340083Y-63429361D01*
X40377674Y-63349528D01*
X40400556Y-63261633D01*
X40408448Y-63163659D01*
X40400556Y-63065684D01*
X40377674Y-62977790D01*
X40340083Y-62897957D01*
X40290968Y-62832466D01*
X40229337Y-62779102D01*
X40153825Y-62737455D01*
X40069305Y-62711548D01*
X39971987Y-62702528D01*
X39874651Y-62711545D01*
X39790026Y-62737455D01*
X39714617Y-62779094D01*
X39653005Y-62832466D01*
X39603890Y-62897957D01*
X39566299Y-62977790D01*
X39543417Y-63065684D01*
X39535525Y-63163659D01*
X39266857Y-63163659D01*
X39280701Y-63022277D01*
X39321446Y-62892672D01*
X39386341Y-62774420D01*
X39471167Y-62671998D01*
X39574169Y-62587475D01*
X39695015Y-62522521D01*
X39827622Y-62481868D01*
X39971987Y-62468055D01*
X40116351Y-62481868D01*
G37*
G36*
X40994021Y-62499318D02*
G01*
X41245835Y-62499318D01*
X41245835Y-62705948D01*
X41251453Y-62705948D01*
X41289932Y-62640827D01*
X41344132Y-62583689D01*
X41416439Y-62533879D01*
X41497180Y-62497885D01*
X41587062Y-62475730D01*
X41687915Y-62468055D01*
X41781563Y-62475454D01*
X41871219Y-62497487D01*
X41954069Y-62535031D01*
X42025092Y-62588345D01*
X42083210Y-62657218D01*
X42129994Y-62746492D01*
X42158802Y-62848339D01*
X42169195Y-62974493D01*
X42169195Y-63828000D01*
X41917381Y-63828000D01*
X41917381Y-63044102D01*
X41910639Y-62955556D01*
X41892224Y-62885955D01*
X41862057Y-62825198D01*
X41825057Y-62779587D01*
X41779808Y-62744481D01*
X41728459Y-62720725D01*
X41673062Y-62707105D01*
X41615130Y-62702528D01*
X41538857Y-62708983D01*
X41469684Y-62727808D01*
X41406956Y-62760149D01*
X41352081Y-62807553D01*
X41308221Y-62867972D01*
X41273801Y-62946161D01*
X41253308Y-63034427D01*
X41245835Y-63144852D01*
X41245835Y-63828000D01*
X40994021Y-63828000D01*
X40994021Y-62499318D01*
G37*
D12*
%TO.C,J1*%
X85322400Y-28626400D02*
X85322400Y-26126400D01*
X85322403Y-41026400D02*
X85322403Y-38526400D01*
X85372403Y-38826400D02*
X85380774Y-39069839D01*
X86422402Y-24976400D02*
X101872402Y-24976400D01*
X101872402Y-29776400D01*
X86422402Y-29776400D01*
X86422402Y-24976400D01*
G36*
X86422402Y-24976400D02*
G01*
X101872402Y-24976400D01*
X101872402Y-29776400D01*
X86422402Y-29776400D01*
X86422402Y-24976400D01*
G37*
X86472402Y-37376400D02*
X101922402Y-37376400D01*
X101922402Y-42176400D01*
X86472402Y-42176400D01*
X86472402Y-37376400D01*
G36*
X86472402Y-37376400D02*
G01*
X101922402Y-37376400D01*
X101922402Y-42176400D01*
X86472402Y-42176400D01*
X86472402Y-37376400D01*
G37*
D13*
X87072400Y-26126400D02*
G75*
G02*
X85872400Y-26126400I-600000J0D01*
G01*
X85872400Y-26126400D02*
G75*
G02*
X87072400Y-26126400I600000J0D01*
G01*
X87072400Y-28626402D02*
G75*
G02*
X85872400Y-28626402I-600000J0D01*
G01*
X85872400Y-28626402D02*
G75*
G02*
X87072400Y-28626402I600000J0D01*
G01*
X87080774Y-38519839D02*
G75*
G02*
X85880774Y-38519839I-600000J0D01*
G01*
X85880774Y-38519839D02*
G75*
G02*
X87080774Y-38519839I600000J0D01*
G01*
X87080774Y-41019841D02*
G75*
G02*
X85880774Y-41019841I-600000J0D01*
G01*
X85880774Y-41019841D02*
G75*
G02*
X87080774Y-41019841I600000J0D01*
G01*
D12*
X87672398Y-26226400D02*
X87672400Y-28726402D01*
X85372400Y-28326400D01*
X85372400Y-26676400D01*
X87472400Y-25926400D01*
X87672398Y-26226400D01*
G36*
X87672398Y-26226400D02*
G01*
X87672400Y-28726402D01*
X85372400Y-28326400D01*
X85372400Y-26676400D01*
X87472400Y-25926400D01*
X87672398Y-26226400D01*
G37*
X87680772Y-38619839D02*
X87680774Y-41119841D01*
X85380774Y-40719839D01*
X85380774Y-39069839D01*
X87480774Y-38319839D01*
X87680772Y-38619839D01*
G36*
X87680772Y-38619839D02*
G01*
X87680774Y-41119841D01*
X85380774Y-40719839D01*
X85380774Y-39069839D01*
X87480774Y-38319839D01*
X87680772Y-38619839D01*
G37*
%TD*%
D14*
%TO.C,D20*%
X48668913Y-40286913D03*
X47343087Y-38961087D03*
%TD*%
%TO.C,D28*%
X44858913Y-40286913D03*
X43533087Y-38961087D03*
%TD*%
%TO.C,D60*%
X29718000Y-28829000D03*
X28392174Y-27503174D03*
%TD*%
%TO.C,D61*%
X41048913Y-25046913D03*
X39723087Y-23721087D03*
%TD*%
%TO.C,D58*%
X37338000Y-28829000D03*
X36012174Y-27503174D03*
%TD*%
%TO.C,D46*%
X37338001Y-40231087D03*
X36012175Y-38905261D03*
%TD*%
%TO.C,D64*%
X29618913Y-25046913D03*
X28293087Y-23721087D03*
%TD*%
%TO.C,D41*%
X41175914Y-44069000D03*
X39850088Y-42743174D03*
%TD*%
%TO.C,D25*%
X44858912Y-51716913D03*
X43533086Y-50391087D03*
%TD*%
%TO.C,D35*%
X33528000Y-51661087D03*
X32202174Y-50335261D03*
%TD*%
%TO.C,D16*%
X52450999Y-24919913D03*
X51125173Y-23594087D03*
%TD*%
%TO.C,D14*%
X52534739Y-32611087D03*
X51208913Y-31285261D03*
%TD*%
%TO.C,D1*%
X56288913Y-51716913D03*
X54963087Y-50391087D03*
%TD*%
D15*
%TO.C,Y1*%
X77451800Y-53694000D03*
X77451800Y-51844000D03*
X76001800Y-51844000D03*
X76001800Y-53694000D03*
%TD*%
D14*
%TO.C,D3*%
X56062826Y-44168087D03*
X54737000Y-42842261D03*
%TD*%
D16*
%TO.C,J1*%
X102472400Y-39776400D03*
D17*
X102497400Y-27376400D03*
%TD*%
D14*
%TO.C,D21*%
X48569826Y-36576000D03*
X47244000Y-35250174D03*
%TD*%
%TO.C,D52*%
X29718001Y-36421087D03*
X28392175Y-35095261D03*
%TD*%
%TO.C,D34*%
X37338000Y-51661087D03*
X36012174Y-50335261D03*
%TD*%
%TO.C,D37*%
X41148001Y-47851087D03*
X39822175Y-46525261D03*
%TD*%
%TO.C,D18*%
X48641000Y-47879000D03*
X47315174Y-46553174D03*
%TD*%
%TO.C,D39*%
X33528001Y-47851087D03*
X32202175Y-46525261D03*
%TD*%
%TO.C,D10*%
X52478913Y-47851087D03*
X51153087Y-46525261D03*
%TD*%
%TO.C,D29*%
X44731913Y-36603913D03*
X43406087Y-35278087D03*
%TD*%
D18*
%TO.C,SW2*%
X99796200Y-57790000D03*
X106096200Y-57790000D03*
X99796200Y-61590000D03*
X106096200Y-61590000D03*
%TD*%
D14*
%TO.C,D32*%
X44830999Y-24919913D03*
X43505173Y-23594087D03*
%TD*%
D19*
%TO.C,R4*%
X58675000Y-44450000D03*
X60325000Y-44450000D03*
%TD*%
D20*
%TO.C,R15*%
X73726800Y-25269000D03*
X73726800Y-23619000D03*
%TD*%
D21*
%TO.C,J2*%
X83667600Y-46075600D03*
D22*
X86207600Y-46075600D03*
X88747600Y-46075600D03*
X91287600Y-46075600D03*
X93827600Y-46075600D03*
%TD*%
D14*
%TO.C,D19*%
X48414913Y-44196000D03*
X47089087Y-42870174D03*
%TD*%
%TO.C,D50*%
X37338001Y-36421087D03*
X36012175Y-35095261D03*
%TD*%
%TO.C,D59*%
X33528000Y-28829000D03*
X32202174Y-27503174D03*
%TD*%
D23*
%TO.C,C1*%
X75251800Y-56294000D03*
X76801800Y-56294000D03*
%TD*%
D14*
%TO.C,D17*%
X48668912Y-51716913D03*
X47343086Y-50391087D03*
%TD*%
D23*
%TO.C,C2*%
X65626800Y-32294000D03*
X67176800Y-32294000D03*
%TD*%
D14*
%TO.C,D38*%
X37338001Y-47851087D03*
X36012175Y-46525261D03*
%TD*%
D24*
%TO.C,R12*%
X87350600Y-53506400D03*
X87350600Y-55156400D03*
%TD*%
D14*
%TO.C,D48*%
X29745914Y-40259000D03*
X28420088Y-38933174D03*
%TD*%
D20*
%TO.C,R1*%
X87376000Y-58255200D03*
X87376000Y-56605200D03*
%TD*%
D25*
%TO.C,U1*%
X72589300Y-55119000D03*
X72589300Y-54469000D03*
X72589300Y-53819000D03*
X72589300Y-53169000D03*
X72589300Y-52519000D03*
X72589300Y-51869000D03*
X72589300Y-51219000D03*
X72589300Y-50569000D03*
X72589300Y-49919000D03*
X72589300Y-49269000D03*
X66864300Y-49269000D03*
X66864300Y-49919000D03*
X66864300Y-50569000D03*
X66864300Y-51219000D03*
X66864300Y-51869000D03*
X66864300Y-52519000D03*
X66864300Y-53169000D03*
X66864300Y-53819000D03*
X66864300Y-54469000D03*
X66864300Y-55119000D03*
%TD*%
D14*
%TO.C,D40*%
X29718001Y-47851087D03*
X28392175Y-46525261D03*
%TD*%
%TO.C,D45*%
X41148001Y-40231087D03*
X39822175Y-38905261D03*
%TD*%
%TO.C,D57*%
X41148000Y-28829000D03*
X39822174Y-27503174D03*
%TD*%
%TO.C,D23*%
X48613086Y-28829000D03*
X47287260Y-27503174D03*
%TD*%
%TO.C,D44*%
X29718001Y-44041087D03*
X28392175Y-42715261D03*
%TD*%
%TO.C,D30*%
X44886826Y-32639000D03*
X43561000Y-31313174D03*
%TD*%
%TO.C,D11*%
X52224913Y-44196000D03*
X50899087Y-42870174D03*
%TD*%
%TO.C,D51*%
X33528001Y-36421087D03*
X32202175Y-35095261D03*
%TD*%
D19*
%TO.C,R7*%
X58675000Y-33020000D03*
X60325000Y-33020000D03*
%TD*%
%TO.C,R6*%
X58675000Y-36830000D03*
X60325000Y-36830000D03*
%TD*%
D14*
%TO.C,D13*%
X52407739Y-36548087D03*
X51081913Y-35222261D03*
%TD*%
%TO.C,D7*%
X56261000Y-28801087D03*
X54935174Y-27475261D03*
%TD*%
%TO.C,D22*%
X48668913Y-32666913D03*
X47343087Y-31341087D03*
%TD*%
D24*
%TO.C,R10*%
X83185000Y-53442400D03*
X83185000Y-55092400D03*
%TD*%
D14*
%TO.C,D42*%
X37365914Y-44069000D03*
X36040088Y-42743174D03*
%TD*%
%TO.C,D15*%
X52450999Y-28801087D03*
X51125173Y-27475261D03*
%TD*%
%TO.C,D12*%
X52506826Y-40259000D03*
X51181000Y-38933174D03*
%TD*%
%TO.C,D2*%
X56288913Y-47851087D03*
X54963087Y-46525261D03*
%TD*%
%TO.C,D43*%
X33555914Y-44069000D03*
X32230088Y-42743174D03*
%TD*%
%TO.C,D62*%
X37238913Y-25046913D03*
X35913087Y-23721087D03*
%TD*%
D20*
%TO.C,R11*%
X83210400Y-58267400D03*
X83210400Y-56617400D03*
%TD*%
D14*
%TO.C,D53*%
X41148001Y-32611087D03*
X39822175Y-31285261D03*
%TD*%
D19*
%TO.C,R8*%
X58675000Y-29210000D03*
X60325000Y-29210000D03*
%TD*%
D14*
%TO.C,D33*%
X41120087Y-51633174D03*
X39794261Y-50307348D03*
%TD*%
%TO.C,D47*%
X33528001Y-40231087D03*
X32202175Y-38905261D03*
%TD*%
D18*
%TO.C,SW1*%
X106197800Y-54097000D03*
X99897800Y-54097000D03*
X106197800Y-50297000D03*
X99897800Y-50297000D03*
%TD*%
D14*
%TO.C,D54*%
X37338001Y-32611087D03*
X36012175Y-31285261D03*
%TD*%
D26*
%TO.C,C4*%
X85369400Y-55093200D03*
X85369400Y-53543200D03*
%TD*%
D14*
%TO.C,D26*%
X44831000Y-47879000D03*
X43505174Y-46553174D03*
%TD*%
%TO.C,D31*%
X44803086Y-28829000D03*
X43477260Y-27503174D03*
%TD*%
D20*
%TO.C,R14*%
X71976800Y-25269000D03*
X71976800Y-23619000D03*
%TD*%
D19*
%TO.C,R3*%
X58675000Y-48260000D03*
X60325000Y-48260000D03*
%TD*%
D14*
%TO.C,D24*%
X48640999Y-24919913D03*
X47315173Y-23594087D03*
%TD*%
%TO.C,D36*%
X29690087Y-51633174D03*
X28364261Y-50307348D03*
%TD*%
%TO.C,D4*%
X56316826Y-40259000D03*
X54991000Y-38933174D03*
%TD*%
%TO.C,D56*%
X29773827Y-32666913D03*
X28448001Y-31341087D03*
%TD*%
D27*
%TO.C,C3*%
X85369400Y-56642000D03*
X85369400Y-58192000D03*
%TD*%
D20*
%TO.C,R13*%
X70226800Y-25269000D03*
X70226800Y-23619000D03*
%TD*%
D19*
%TO.C,R9*%
X58675000Y-25400000D03*
X60325000Y-25400000D03*
%TD*%
%TO.C,R2*%
X58675000Y-52070000D03*
X60325000Y-52070000D03*
%TD*%
D14*
%TO.C,D27*%
X44604913Y-44196000D03*
X43279087Y-42870174D03*
%TD*%
%TO.C,D55*%
X33528001Y-32611087D03*
X32202175Y-31285261D03*
%TD*%
%TO.C,D5*%
X56217739Y-36548087D03*
X54891913Y-35222261D03*
%TD*%
%TO.C,D63*%
X33428913Y-25046913D03*
X32103087Y-23721087D03*
%TD*%
D19*
%TO.C,R5*%
X58675000Y-40640000D03*
X60325000Y-40640000D03*
%TD*%
D14*
%TO.C,D9*%
X52506826Y-51689000D03*
X51181000Y-50363174D03*
%TD*%
D28*
%TO.C,U2*%
X69226799Y-30193998D03*
X69226799Y-29693999D03*
X69226799Y-29193997D03*
X69226799Y-28693998D03*
X69226799Y-28193996D03*
X69226799Y-27693998D03*
X69226799Y-27193999D03*
X69226799Y-26694000D03*
X66226800Y-26694000D03*
X66226800Y-27193999D03*
X66226800Y-27694000D03*
X66226800Y-28193999D03*
X66226800Y-28694001D03*
X66226800Y-29194000D03*
X66226800Y-29693999D03*
X66226800Y-30194000D03*
%TD*%
D14*
%TO.C,D6*%
X56344739Y-32611087D03*
X55018913Y-31285261D03*
%TD*%
%TO.C,D49*%
X41148001Y-36421087D03*
X39822175Y-35095261D03*
%TD*%
%TO.C,D8*%
X56288912Y-24892000D03*
X54963086Y-23566174D03*
%TD*%
M02*
