%TF.GenerationSoftware,KiCad,Pcbnew,9.0.1*%
%TF.CreationDate,2025-06-09T22:47:13-04:00*%
%TF.ProjectId,blankBusinessCard,626c616e-6b42-4757-9369-6e6573734361,rev?*%
%TF.SameCoordinates,Original*%
%TF.FileFunction,Legend,Top*%
%TF.FilePolarity,Positive*%
%FSLAX46Y46*%
G04 Gerber Fmt 4.6, Leading zero omitted, Abs format (unit mm)*
G04 Created by KiCad (PCBNEW 9.0.1) date 2025-06-09 22:47:13*
%MOMM*%
%LPD*%
G01*
G04 APERTURE LIST*
%ADD10C,0.120000*%
%ADD11C,0.127000*%
%ADD12C,0.200000*%
G04 APERTURE END LIST*
D10*
%TO.C,D20*%
X46620071Y-39595716D02*
X48518652Y-41494297D01*
X48518652Y-41494297D02*
X49876297Y-40136652D01*
X49876297Y-40136652D02*
X47977716Y-38238071D01*
%TO.C,D28*%
X42810071Y-39595716D02*
X44708652Y-41494297D01*
X44708652Y-41494297D02*
X46066297Y-40136652D01*
X46066297Y-40136652D02*
X44167716Y-38238071D01*
%TO.C,D60*%
X27669158Y-28137803D02*
X29567739Y-30036384D01*
X29567739Y-30036384D02*
X30925384Y-28678739D01*
X30925384Y-28678739D02*
X29026803Y-26780158D01*
%TO.C,D61*%
X39000071Y-24355716D02*
X40898652Y-26254297D01*
X40898652Y-26254297D02*
X42256297Y-24896652D01*
X42256297Y-24896652D02*
X40357716Y-22998071D01*
%TO.C,D58*%
X35289158Y-28137803D02*
X37187739Y-30036384D01*
X37187739Y-30036384D02*
X38545384Y-28678739D01*
X38545384Y-28678739D02*
X36646803Y-26780158D01*
%TO.C,D46*%
X35289159Y-39539890D02*
X37187740Y-41438471D01*
X37187740Y-41438471D02*
X38545385Y-40080826D01*
X38545385Y-40080826D02*
X36646804Y-38182245D01*
%TO.C,D64*%
X27570071Y-24355716D02*
X29468652Y-26254297D01*
X29468652Y-26254297D02*
X30826297Y-24896652D01*
X30826297Y-24896652D02*
X28927716Y-22998071D01*
%TO.C,D41*%
X39127072Y-43377803D02*
X41025653Y-45276384D01*
X41025653Y-45276384D02*
X42383298Y-43918739D01*
X42383298Y-43918739D02*
X40484717Y-42020158D01*
%TO.C,D25*%
X42810070Y-51025716D02*
X44708651Y-52924297D01*
X44708651Y-52924297D02*
X46066296Y-51566652D01*
X46066296Y-51566652D02*
X44167715Y-49668071D01*
%TO.C,D35*%
X31479158Y-50969890D02*
X33377739Y-52868471D01*
X33377739Y-52868471D02*
X34735384Y-51510826D01*
X34735384Y-51510826D02*
X32836803Y-49612245D01*
%TO.C,D16*%
X50402157Y-24228716D02*
X52300738Y-26127297D01*
X52300738Y-26127297D02*
X53658383Y-24769652D01*
X53658383Y-24769652D02*
X51759802Y-22871071D01*
%TO.C,D14*%
X50485897Y-31919890D02*
X52384478Y-33818471D01*
X52384478Y-33818471D02*
X53742123Y-32460826D01*
X53742123Y-32460826D02*
X51843542Y-30562245D01*
%TO.C,D1*%
X54240071Y-51025716D02*
X56138652Y-52924297D01*
X56138652Y-52924297D02*
X57496297Y-51566652D01*
X57496297Y-51566652D02*
X55597716Y-49668071D01*
D11*
%TO.C,Y1*%
X75726800Y-52990000D02*
X75726800Y-52548000D01*
X77726800Y-52990000D02*
X77726800Y-52548000D01*
D12*
X77676800Y-54669000D02*
G75*
G02*
X77476800Y-54669000I-100000J0D01*
G01*
X77476800Y-54669000D02*
G75*
G02*
X77676800Y-54669000I100000J0D01*
G01*
D10*
%TO.C,D3*%
X54013984Y-43476890D02*
X55912565Y-45375471D01*
X55912565Y-45375471D02*
X57270210Y-44017826D01*
X57270210Y-44017826D02*
X55371629Y-42119245D01*
%TO.C,D21*%
X46520984Y-35884803D02*
X48419565Y-37783384D01*
X48419565Y-37783384D02*
X49777210Y-36425739D01*
X49777210Y-36425739D02*
X47878629Y-34527158D01*
%TO.C,D52*%
X27669159Y-35729890D02*
X29567740Y-37628471D01*
X29567740Y-37628471D02*
X30925385Y-36270826D01*
X30925385Y-36270826D02*
X29026804Y-34372245D01*
%TO.C,D34*%
X35289158Y-50969890D02*
X37187739Y-52868471D01*
X37187739Y-52868471D02*
X38545384Y-51510826D01*
X38545384Y-51510826D02*
X36646803Y-49612245D01*
%TO.C,D37*%
X39099159Y-47159890D02*
X40997740Y-49058471D01*
X40997740Y-49058471D02*
X42355385Y-47700826D01*
X42355385Y-47700826D02*
X40456804Y-45802245D01*
%TO.C,D18*%
X46592158Y-47187803D02*
X48490739Y-49086384D01*
X48490739Y-49086384D02*
X49848384Y-47728739D01*
X49848384Y-47728739D02*
X47949803Y-45830158D01*
%TO.C,D39*%
X31479159Y-47159890D02*
X33377740Y-49058471D01*
X33377740Y-49058471D02*
X34735385Y-47700826D01*
X34735385Y-47700826D02*
X32836804Y-45802245D01*
%TO.C,D10*%
X50430071Y-47159890D02*
X52328652Y-49058471D01*
X52328652Y-49058471D02*
X53686297Y-47700826D01*
X53686297Y-47700826D02*
X51787716Y-45802245D01*
%TO.C,D29*%
X42683071Y-35912716D02*
X44581652Y-37811297D01*
X44581652Y-37811297D02*
X45939297Y-36453652D01*
X45939297Y-36453652D02*
X44040716Y-34555071D01*
%TO.C,SW2*%
X100196200Y-58690000D02*
X100196200Y-60690000D01*
X101246200Y-57390000D02*
X101696200Y-56940000D01*
X101246200Y-61990000D02*
X101696200Y-62440000D01*
X101696200Y-56940000D02*
X104196200Y-56940000D01*
X101696200Y-62440000D02*
X104196200Y-62440000D01*
X104646200Y-57390000D02*
X104196200Y-56940000D01*
X104646200Y-61990000D02*
X104196200Y-62440000D01*
X105696200Y-58690000D02*
X105696200Y-60690000D01*
%TO.C,D32*%
X42782157Y-24228716D02*
X44680738Y-26127297D01*
X44680738Y-26127297D02*
X46038383Y-24769652D01*
X46038383Y-24769652D02*
X44139802Y-22871071D01*
%TO.C,R4*%
X59262742Y-43927500D02*
X59737258Y-43927500D01*
X59262742Y-44972500D02*
X59737258Y-44972500D01*
%TO.C,R15*%
X73204300Y-24681258D02*
X73204300Y-24206742D01*
X74249300Y-24681258D02*
X74249300Y-24206742D01*
%TO.C,J2*%
X82337600Y-47405600D02*
X82337600Y-46075600D01*
X83667600Y-47405600D02*
X82337600Y-47405600D01*
X84937600Y-44745600D02*
X95157600Y-44745600D01*
X84937600Y-47405600D02*
X84937600Y-44745600D01*
X84937600Y-47405600D02*
X95157600Y-47405600D01*
X95157600Y-47405600D02*
X95157600Y-44745600D01*
%TO.C,D19*%
X46366071Y-43504803D02*
X48264652Y-45403384D01*
X48264652Y-45403384D02*
X49622297Y-44045739D01*
X49622297Y-44045739D02*
X47723716Y-42147158D01*
%TO.C,D50*%
X35289159Y-35729890D02*
X37187740Y-37628471D01*
X37187740Y-37628471D02*
X38545385Y-36270826D01*
X38545385Y-36270826D02*
X36646804Y-34372245D01*
%TO.C,D59*%
X31479158Y-28137803D02*
X33377739Y-30036384D01*
X33377739Y-30036384D02*
X34735384Y-28678739D01*
X34735384Y-28678739D02*
X32836803Y-26780158D01*
%TO.C,C1*%
X75886220Y-55784000D02*
X76167380Y-55784000D01*
X75886220Y-56804000D02*
X76167380Y-56804000D01*
%TO.C,D17*%
X46620070Y-51025716D02*
X48518651Y-52924297D01*
X48518651Y-52924297D02*
X49876296Y-51566652D01*
X49876296Y-51566652D02*
X47977715Y-49668071D01*
%TO.C,C2*%
X66261220Y-31784000D02*
X66542380Y-31784000D01*
X66261220Y-32804000D02*
X66542380Y-32804000D01*
%TO.C,D38*%
X35289159Y-47159890D02*
X37187740Y-49058471D01*
X37187740Y-49058471D02*
X38545385Y-47700826D01*
X38545385Y-47700826D02*
X36646804Y-45802245D01*
%TO.C,R12*%
X86828100Y-54094142D02*
X86828100Y-54568658D01*
X87873100Y-54094142D02*
X87873100Y-54568658D01*
%TO.C,D48*%
X27697072Y-39567803D02*
X29595653Y-41466384D01*
X29595653Y-41466384D02*
X30953298Y-40108739D01*
X30953298Y-40108739D02*
X29054717Y-38210158D01*
%TO.C,R1*%
X86853500Y-57667458D02*
X86853500Y-57192942D01*
X87898500Y-57667458D02*
X87898500Y-57192942D01*
%TO.C,U1*%
X69726800Y-48809000D02*
X67526800Y-48809000D01*
X69726800Y-48809000D02*
X71926800Y-48809000D01*
X69726800Y-55579000D02*
X67526800Y-55579000D01*
X69726800Y-55579000D02*
X73326800Y-55579000D01*
%TO.C,D40*%
X27669159Y-47159890D02*
X29567740Y-49058471D01*
X29567740Y-49058471D02*
X30925385Y-47700826D01*
X30925385Y-47700826D02*
X29026804Y-45802245D01*
%TO.C,D45*%
X39099159Y-39539890D02*
X40997740Y-41438471D01*
X40997740Y-41438471D02*
X42355385Y-40080826D01*
X42355385Y-40080826D02*
X40456804Y-38182245D01*
%TO.C,D57*%
X39099158Y-28137803D02*
X40997739Y-30036384D01*
X40997739Y-30036384D02*
X42355384Y-28678739D01*
X42355384Y-28678739D02*
X40456803Y-26780158D01*
%TO.C,D23*%
X46564244Y-28137803D02*
X48462825Y-30036384D01*
X48462825Y-30036384D02*
X49820470Y-28678739D01*
X49820470Y-28678739D02*
X47921889Y-26780158D01*
%TO.C,D44*%
X27669159Y-43349890D02*
X29567740Y-45248471D01*
X29567740Y-45248471D02*
X30925385Y-43890826D01*
X30925385Y-43890826D02*
X29026804Y-41992245D01*
%TO.C,D30*%
X42837984Y-31947803D02*
X44736565Y-33846384D01*
X44736565Y-33846384D02*
X46094210Y-32488739D01*
X46094210Y-32488739D02*
X44195629Y-30590158D01*
%TO.C,D11*%
X50176071Y-43504803D02*
X52074652Y-45403384D01*
X52074652Y-45403384D02*
X53432297Y-44045739D01*
X53432297Y-44045739D02*
X51533716Y-42147158D01*
%TO.C,D51*%
X31479159Y-35729890D02*
X33377740Y-37628471D01*
X33377740Y-37628471D02*
X34735385Y-36270826D01*
X34735385Y-36270826D02*
X32836804Y-34372245D01*
%TO.C,R7*%
X59262742Y-32497500D02*
X59737258Y-32497500D01*
X59262742Y-33542500D02*
X59737258Y-33542500D01*
%TO.C,R6*%
X59262742Y-36307500D02*
X59737258Y-36307500D01*
X59262742Y-37352500D02*
X59737258Y-37352500D01*
%TO.C,D13*%
X50358897Y-35856890D02*
X52257478Y-37755471D01*
X52257478Y-37755471D02*
X53615123Y-36397826D01*
X53615123Y-36397826D02*
X51716542Y-34499245D01*
%TO.C,D7*%
X54212158Y-28109890D02*
X56110739Y-30008471D01*
X56110739Y-30008471D02*
X57468384Y-28650826D01*
X57468384Y-28650826D02*
X55569803Y-26752245D01*
%TO.C,D22*%
X46620071Y-31975716D02*
X48518652Y-33874297D01*
X48518652Y-33874297D02*
X49876297Y-32516652D01*
X49876297Y-32516652D02*
X47977716Y-30618071D01*
%TO.C,R10*%
X82662500Y-54030142D02*
X82662500Y-54504658D01*
X83707500Y-54030142D02*
X83707500Y-54504658D01*
%TO.C,D42*%
X35317072Y-43377803D02*
X37215653Y-45276384D01*
X37215653Y-45276384D02*
X38573298Y-43918739D01*
X38573298Y-43918739D02*
X36674717Y-42020158D01*
%TO.C,D15*%
X50402157Y-28109890D02*
X52300738Y-30008471D01*
X52300738Y-30008471D02*
X53658383Y-28650826D01*
X53658383Y-28650826D02*
X51759802Y-26752245D01*
%TO.C,D12*%
X50457984Y-39567803D02*
X52356565Y-41466384D01*
X52356565Y-41466384D02*
X53714210Y-40108739D01*
X53714210Y-40108739D02*
X51815629Y-38210158D01*
%TO.C,D2*%
X54240071Y-47159890D02*
X56138652Y-49058471D01*
X56138652Y-49058471D02*
X57496297Y-47700826D01*
X57496297Y-47700826D02*
X55597716Y-45802245D01*
%TO.C,D43*%
X31507072Y-43377803D02*
X33405653Y-45276384D01*
X33405653Y-45276384D02*
X34763298Y-43918739D01*
X34763298Y-43918739D02*
X32864717Y-42020158D01*
%TO.C,D62*%
X35190071Y-24355716D02*
X37088652Y-26254297D01*
X37088652Y-26254297D02*
X38446297Y-24896652D01*
X38446297Y-24896652D02*
X36547716Y-22998071D01*
%TO.C,R11*%
X82687900Y-57679658D02*
X82687900Y-57205142D01*
X83732900Y-57679658D02*
X83732900Y-57205142D01*
%TO.C,D53*%
X39099159Y-31919890D02*
X40997740Y-33818471D01*
X40997740Y-33818471D02*
X42355385Y-32460826D01*
X42355385Y-32460826D02*
X40456804Y-30562245D01*
%TO.C,R8*%
X59262742Y-28687500D02*
X59737258Y-28687500D01*
X59262742Y-29732500D02*
X59737258Y-29732500D01*
%TO.C,D33*%
X39071245Y-50941977D02*
X40969826Y-52840558D01*
X40969826Y-52840558D02*
X42327471Y-51482913D01*
X42327471Y-51482913D02*
X40428890Y-49584332D01*
%TO.C,D47*%
X31479159Y-39539890D02*
X33377740Y-41438471D01*
X33377740Y-41438471D02*
X34735385Y-40080826D01*
X34735385Y-40080826D02*
X32836804Y-38182245D01*
%TO.C,SW1*%
X100297800Y-53197000D02*
X100297800Y-51197000D01*
X101347800Y-49897000D02*
X101797800Y-49447000D01*
X101347800Y-54497000D02*
X101797800Y-54947000D01*
X104297800Y-49447000D02*
X101797800Y-49447000D01*
X104297800Y-54947000D02*
X101797800Y-54947000D01*
X104747800Y-49897000D02*
X104297800Y-49447000D01*
X104747800Y-54497000D02*
X104297800Y-54947000D01*
X105797800Y-53197000D02*
X105797800Y-51197000D01*
%TO.C,D54*%
X35289159Y-31919890D02*
X37187740Y-33818471D01*
X37187740Y-33818471D02*
X38545385Y-32460826D01*
X38545385Y-32460826D02*
X36646804Y-30562245D01*
%TO.C,C4*%
X84859400Y-54458780D02*
X84859400Y-54177620D01*
X85879400Y-54458780D02*
X85879400Y-54177620D01*
%TO.C,D26*%
X42782158Y-47187803D02*
X44680739Y-49086384D01*
X44680739Y-49086384D02*
X46038384Y-47728739D01*
X46038384Y-47728739D02*
X44139803Y-45830158D01*
%TO.C,D31*%
X42754244Y-28137803D02*
X44652825Y-30036384D01*
X44652825Y-30036384D02*
X46010470Y-28678739D01*
X46010470Y-28678739D02*
X44111889Y-26780158D01*
%TO.C,R14*%
X71454300Y-24681258D02*
X71454300Y-24206742D01*
X72499300Y-24681258D02*
X72499300Y-24206742D01*
%TO.C,R3*%
X59262742Y-47737500D02*
X59737258Y-47737500D01*
X59262742Y-48782500D02*
X59737258Y-48782500D01*
%TO.C,D24*%
X46592157Y-24228716D02*
X48490738Y-26127297D01*
X48490738Y-26127297D02*
X49848383Y-24769652D01*
X49848383Y-24769652D02*
X47949802Y-22871071D01*
%TO.C,D36*%
X27641245Y-50941977D02*
X29539826Y-52840558D01*
X29539826Y-52840558D02*
X30897471Y-51482913D01*
X30897471Y-51482913D02*
X28998890Y-49584332D01*
%TO.C,D4*%
X54267984Y-39567803D02*
X56166565Y-41466384D01*
X56166565Y-41466384D02*
X57524210Y-40108739D01*
X57524210Y-40108739D02*
X55625629Y-38210158D01*
%TO.C,D56*%
X27724985Y-31975716D02*
X29623566Y-33874297D01*
X29623566Y-33874297D02*
X30981211Y-32516652D01*
X30981211Y-32516652D02*
X29082630Y-30618071D01*
%TO.C,C3*%
X84859400Y-57276420D02*
X84859400Y-57557580D01*
X85879400Y-57276420D02*
X85879400Y-57557580D01*
%TO.C,R13*%
X69704300Y-24681258D02*
X69704300Y-24206742D01*
X70749300Y-24681258D02*
X70749300Y-24206742D01*
%TO.C,R9*%
X59262742Y-24877500D02*
X59737258Y-24877500D01*
X59262742Y-25922500D02*
X59737258Y-25922500D01*
%TO.C,R2*%
X59262742Y-51547500D02*
X59737258Y-51547500D01*
X59262742Y-52592500D02*
X59737258Y-52592500D01*
%TO.C,D27*%
X42556071Y-43504803D02*
X44454652Y-45403384D01*
X44454652Y-45403384D02*
X45812297Y-44045739D01*
X45812297Y-44045739D02*
X43913716Y-42147158D01*
%TO.C,D55*%
X31479159Y-31919890D02*
X33377740Y-33818471D01*
X33377740Y-33818471D02*
X34735385Y-32460826D01*
X34735385Y-32460826D02*
X32836804Y-30562245D01*
%TO.C,D5*%
X54168897Y-35856890D02*
X56067478Y-37755471D01*
X56067478Y-37755471D02*
X57425123Y-36397826D01*
X57425123Y-36397826D02*
X55526542Y-34499245D01*
%TO.C,D63*%
X31380071Y-24355716D02*
X33278652Y-26254297D01*
X33278652Y-26254297D02*
X34636297Y-24896652D01*
X34636297Y-24896652D02*
X32737716Y-22998071D01*
%TO.C,R5*%
X59262742Y-40117500D02*
X59737258Y-40117500D01*
X59262742Y-41162500D02*
X59737258Y-41162500D01*
%TO.C,D9*%
X50457984Y-50997803D02*
X52356565Y-52896384D01*
X52356565Y-52896384D02*
X53714210Y-51538739D01*
X53714210Y-51538739D02*
X51815629Y-49640158D01*
%TO.C,D6*%
X54295897Y-31919890D02*
X56194478Y-33818471D01*
X56194478Y-33818471D02*
X57552123Y-32460826D01*
X57552123Y-32460826D02*
X55653542Y-30562245D01*
%TO.C,D49*%
X39099159Y-35729890D02*
X40997740Y-37628471D01*
X40997740Y-37628471D02*
X42355385Y-36270826D01*
X42355385Y-36270826D02*
X40456804Y-34372245D01*
%TO.C,D8*%
X54240070Y-24200803D02*
X56138651Y-26099384D01*
X56138651Y-26099384D02*
X57496296Y-24741739D01*
X57496296Y-24741739D02*
X55597715Y-22843158D01*
%TD*%
M02*
