%TF.GenerationSoftware,KiCad,Pcbnew,9.0.1*%
%TF.CreationDate,2025-06-09T22:47:13-04:00*%
%TF.ProjectId,blankBusinessCard,626c616e-6b42-4757-9369-6e6573734361,rev?*%
%TF.SameCoordinates,Original*%
%TF.FileFunction,Copper,L1,Top*%
%TF.FilePolarity,Positive*%
%FSLAX46Y46*%
G04 Gerber Fmt 4.6, Leading zero omitted, Abs format (unit mm)*
G04 Created by KiCad (PCBNEW 9.0.1) date 2025-06-09 22:47:13*
%MOMM*%
%LPD*%
G01*
G04 APERTURE LIST*
G04 Aperture macros list*
%AMRoundRect*
0 Rectangle with rounded corners*
0 $1 Rounding radius*
0 $2 $3 $4 $5 $6 $7 $8 $9 X,Y pos of 4 corners*
0 Add a 4 corners polygon primitive as box body*
4,1,4,$2,$3,$4,$5,$6,$7,$8,$9,$2,$3,0*
0 Add four circle primitives for the rounded corners*
1,1,$1+$1,$2,$3*
1,1,$1+$1,$4,$5*
1,1,$1+$1,$6,$7*
1,1,$1+$1,$8,$9*
0 Add four rect primitives between the rounded corners*
20,1,$1+$1,$2,$3,$4,$5,0*
20,1,$1+$1,$4,$5,$6,$7,0*
20,1,$1+$1,$6,$7,$8,$9,0*
20,1,$1+$1,$8,$9,$2,$3,0*%
G04 Aperture macros list end*
%TA.AperFunction,NonConductor*%
%ADD10C,0.200000*%
%TD*%
%ADD11C,0.375000*%
%ADD12C,0.300000*%
%TA.AperFunction,EtchedComponent*%
%ADD13C,0.100000*%
%TD*%
%TA.AperFunction,EtchedComponent*%
%ADD14C,0.200000*%
%TD*%
%TA.AperFunction,EtchedComponent*%
%ADD15C,1.200000*%
%TD*%
%TA.AperFunction,SMDPad,CuDef*%
%ADD16RoundRect,0.243750X0.494975X0.150260X0.150260X0.494975X-0.494975X-0.150260X-0.150260X-0.494975X0*%
%TD*%
%TA.AperFunction,SMDPad,CuDef*%
%ADD17R,0.800000X0.900000*%
%TD*%
%TA.AperFunction,SMDPad,CuDef*%
%ADD18RoundRect,0.650000X-0.650000X-1.800000X0.650000X-1.800000X0.650000X1.800000X-0.650000X1.800000X0*%
%TD*%
%TA.AperFunction,SMDPad,CuDef*%
%ADD19RoundRect,0.612500X-0.612500X-1.837500X0.612500X-1.837500X0.612500X1.837500X-0.612500X1.837500X0*%
%TD*%
%TA.AperFunction,SMDPad,CuDef*%
%ADD20R,1.700000X1.000000*%
%TD*%
%TA.AperFunction,SMDPad,CuDef*%
%ADD21RoundRect,0.200000X-0.200000X-0.275000X0.200000X-0.275000X0.200000X0.275000X-0.200000X0.275000X0*%
%TD*%
%TA.AperFunction,SMDPad,CuDef*%
%ADD22RoundRect,0.200000X0.275000X-0.200000X0.275000X0.200000X-0.275000X0.200000X-0.275000X-0.200000X0*%
%TD*%
%TA.AperFunction,ComponentPad*%
%ADD23R,1.700000X1.700000*%
%TD*%
%TA.AperFunction,ComponentPad*%
%ADD24O,1.700000X1.700000*%
%TD*%
%TA.AperFunction,SMDPad,CuDef*%
%ADD25RoundRect,0.225000X-0.225000X-0.250000X0.225000X-0.250000X0.225000X0.250000X-0.225000X0.250000X0*%
%TD*%
%TA.AperFunction,SMDPad,CuDef*%
%ADD26RoundRect,0.200000X-0.275000X0.200000X-0.275000X-0.200000X0.275000X-0.200000X0.275000X0.200000X0*%
%TD*%
%TA.AperFunction,SMDPad,CuDef*%
%ADD27RoundRect,0.100000X0.637500X0.100000X-0.637500X0.100000X-0.637500X-0.100000X0.637500X-0.100000X0*%
%TD*%
%TA.AperFunction,SMDPad,CuDef*%
%ADD28RoundRect,0.225000X0.250000X-0.225000X0.250000X0.225000X-0.250000X0.225000X-0.250000X-0.225000X0*%
%TD*%
%TA.AperFunction,SMDPad,CuDef*%
%ADD29RoundRect,0.225000X-0.250000X0.225000X-0.250000X-0.225000X0.250000X-0.225000X0.250000X0.225000X0*%
%TD*%
%TA.AperFunction,SMDPad,CuDef*%
%ADD30R,1.050000X0.299999*%
%TD*%
%TA.AperFunction,ViaPad*%
%ADD31C,0.800000*%
%TD*%
%TA.AperFunction,Conductor*%
%ADD32C,0.750000*%
%TD*%
%TA.AperFunction,Conductor*%
%ADD33C,0.250000*%
%TD*%
%TA.AperFunction,Conductor*%
%ADD34C,0.400000*%
%TD*%
%TA.AperFunction,Conductor*%
%ADD35C,0.550000*%
%TD*%
%TA.AperFunction,Conductor*%
%ADD36C,0.300000*%
%TD*%
%TA.AperFunction,Conductor*%
%ADD37C,1.000000*%
%TD*%
G04 APERTURE END LIST*
D10*
X107086400Y-39776400D02*
X104800400Y-39776400D01*
X105943400Y-40919400D02*
X105943400Y-38633400D01*
X107086400Y-27432000D02*
X104800400Y-27432000D01*
X105943400Y-28575000D02*
X105943400Y-26289000D01*
X92329000Y-33578800D02*
X90043000Y-33578800D01*
D11*
G36*
X29006247Y-61805045D02*
G01*
X29144659Y-61831780D01*
X29273661Y-61875522D01*
X29395675Y-61935997D01*
X29503891Y-62009017D01*
X29599603Y-62094852D01*
X29683061Y-62192861D01*
X29753891Y-62302384D01*
X29812339Y-62424580D01*
X29854714Y-62553250D01*
X29880496Y-62689740D01*
X29889275Y-62835397D01*
X29880496Y-62981053D01*
X29854714Y-63117543D01*
X29812339Y-63246213D01*
X29753891Y-63368409D01*
X29683061Y-63477932D01*
X29599603Y-63575941D01*
X29503891Y-63661776D01*
X29395675Y-63734796D01*
X29273661Y-63795271D01*
X29144659Y-63839013D01*
X29006247Y-63865748D01*
X28856861Y-63874894D01*
X28707394Y-63865747D01*
X28568941Y-63839010D01*
X28439938Y-63795271D01*
X28317919Y-63734801D01*
X28209661Y-63661782D01*
X28113874Y-63575941D01*
X28030489Y-63477939D01*
X27959700Y-63368417D01*
X27901261Y-63246213D01*
X27858886Y-63117543D01*
X27833103Y-62981053D01*
X27824324Y-62835397D01*
X28109722Y-62835397D01*
X28123179Y-62994189D01*
X28162845Y-63141921D01*
X28227790Y-63277544D01*
X28313909Y-63392515D01*
X28421039Y-63487603D01*
X28548993Y-63561897D01*
X28642310Y-63596314D01*
X28744432Y-63617490D01*
X28856861Y-63624789D01*
X28969208Y-63617492D01*
X29071291Y-63596317D01*
X29164607Y-63561897D01*
X29292538Y-63487597D01*
X29399569Y-63392515D01*
X29485756Y-63277531D01*
X29550633Y-63141921D01*
X29590391Y-62994184D01*
X29603878Y-62835397D01*
X29590389Y-62676626D01*
X29550633Y-62528994D01*
X29485743Y-62393302D01*
X29399569Y-62278401D01*
X29292525Y-62183248D01*
X29164607Y-62109018D01*
X29071284Y-62074530D01*
X28969202Y-62053315D01*
X28856861Y-62046004D01*
X28744437Y-62053317D01*
X28642316Y-62074533D01*
X28548993Y-62109018D01*
X28421052Y-62183242D01*
X28313909Y-62278401D01*
X28227803Y-62393289D01*
X28162845Y-62528994D01*
X28123181Y-62676621D01*
X28109722Y-62835397D01*
X27824324Y-62835397D01*
X27833103Y-62689740D01*
X27858886Y-62553250D01*
X27901261Y-62424580D01*
X27959700Y-62302376D01*
X28030489Y-62192854D01*
X28113874Y-62094852D01*
X28209661Y-62009011D01*
X28317919Y-61935992D01*
X28439938Y-61875522D01*
X28568941Y-61831783D01*
X28707394Y-61805046D01*
X28856861Y-61795899D01*
X29006247Y-61805045D01*
G37*
G36*
X31160682Y-62851028D02*
G01*
X31087448Y-62785776D01*
X31013769Y-62740386D01*
X30931984Y-62712513D01*
X30830587Y-62702528D01*
X30731547Y-62712447D01*
X30650092Y-62740386D01*
X30579269Y-62785408D01*
X30521376Y-62844189D01*
X30476205Y-62914314D01*
X30442974Y-62995498D01*
X30423150Y-63082376D01*
X30416474Y-63173429D01*
X30424257Y-63264034D01*
X30447248Y-63348673D01*
X30484617Y-63426605D01*
X30533954Y-63493020D01*
X30595231Y-63547861D01*
X30668166Y-63589741D01*
X30750020Y-63615740D01*
X30844509Y-63624789D01*
X30945821Y-63614792D01*
X31026348Y-63587054D01*
X31097917Y-63541393D01*
X31166299Y-63476290D01*
X31345329Y-63655198D01*
X31275630Y-63721730D01*
X31199852Y-63773567D01*
X31117206Y-63811757D01*
X30984121Y-63847244D01*
X30841700Y-63859263D01*
X30692436Y-63846321D01*
X30560455Y-63808949D01*
X30441208Y-63747907D01*
X30340880Y-63667532D01*
X30259510Y-63568189D01*
X30198121Y-63449179D01*
X30160751Y-63317182D01*
X30147806Y-63167811D01*
X30160719Y-63018364D01*
X30198121Y-62885222D01*
X30259231Y-62764625D01*
X30339415Y-62664060D01*
X30438699Y-62582286D01*
X30557646Y-62519835D01*
X30690054Y-62481422D01*
X30841700Y-62468055D01*
X30984335Y-62481062D01*
X31120015Y-62519835D01*
X31204764Y-62560328D01*
X31281471Y-62612742D01*
X31350947Y-62677738D01*
X31160682Y-62851028D01*
G37*
G36*
X32508902Y-62851028D02*
G01*
X32435669Y-62785776D01*
X32361990Y-62740386D01*
X32280205Y-62712513D01*
X32178808Y-62702528D01*
X32079767Y-62712447D01*
X31998312Y-62740386D01*
X31927489Y-62785408D01*
X31869596Y-62844189D01*
X31824425Y-62914314D01*
X31791194Y-62995498D01*
X31771371Y-63082376D01*
X31764694Y-63173429D01*
X31772478Y-63264034D01*
X31795469Y-63348673D01*
X31832838Y-63426605D01*
X31882175Y-63493020D01*
X31943451Y-63547861D01*
X32016386Y-63589741D01*
X32098240Y-63615740D01*
X32192730Y-63624789D01*
X32294042Y-63614792D01*
X32374569Y-63587054D01*
X32446137Y-63541393D01*
X32514520Y-63476290D01*
X32693550Y-63655198D01*
X32623851Y-63721730D01*
X32548073Y-63773567D01*
X32465427Y-63811757D01*
X32332341Y-63847244D01*
X32189921Y-63859263D01*
X32040657Y-63846321D01*
X31908675Y-63808949D01*
X31789429Y-63747907D01*
X31689101Y-63667532D01*
X31607731Y-63568189D01*
X31546341Y-63449179D01*
X31508972Y-63317182D01*
X31496027Y-63167811D01*
X31508940Y-63018364D01*
X31546341Y-62885222D01*
X31607451Y-62764625D01*
X31687636Y-62664060D01*
X31786920Y-62582286D01*
X31905866Y-62519835D01*
X32038274Y-62481422D01*
X32189921Y-62468055D01*
X32332555Y-62481062D01*
X32468236Y-62519835D01*
X32552984Y-62560328D01*
X32629691Y-62612742D01*
X32699167Y-62677738D01*
X32508902Y-62851028D01*
G37*
G36*
X34083780Y-63828000D02*
G01*
X33831966Y-63828000D01*
X33831966Y-63621981D01*
X33826348Y-63621981D01*
X33787874Y-63686932D01*
X33733640Y-63743950D01*
X33661240Y-63793683D01*
X33580590Y-63829535D01*
X33490751Y-63851612D01*
X33389886Y-63859263D01*
X33293983Y-63851786D01*
X33205116Y-63829831D01*
X33123508Y-63792371D01*
X33052709Y-63738973D01*
X32994583Y-63670118D01*
X32947806Y-63580948D01*
X32918996Y-63478994D01*
X32908606Y-63352825D01*
X32908606Y-62499318D01*
X33160420Y-62499318D01*
X33160420Y-63283216D01*
X33167159Y-63371777D01*
X33185577Y-63441485D01*
X33215730Y-63502160D01*
X33252744Y-63547853D01*
X33297965Y-63582869D01*
X33349220Y-63606593D01*
X33404721Y-63620216D01*
X33462670Y-63624789D01*
X33538949Y-63618365D01*
X33608117Y-63599632D01*
X33670827Y-63567191D01*
X33725598Y-63519765D01*
X33769560Y-63459353D01*
X33804000Y-63381279D01*
X33824495Y-63292906D01*
X33831966Y-63182466D01*
X33831966Y-62499318D01*
X34083780Y-62499318D01*
X34083780Y-63828000D01*
G37*
G36*
X35331737Y-62481759D02*
G01*
X35461432Y-62521178D01*
X35577437Y-62585079D01*
X35674045Y-62669189D01*
X35751671Y-62771610D01*
X35809722Y-62891328D01*
X35845242Y-63021773D01*
X35857349Y-63163659D01*
X35845190Y-63307901D01*
X35809722Y-63438799D01*
X35751608Y-63558280D01*
X35674045Y-63659594D01*
X35577549Y-63742562D01*
X35461432Y-63806262D01*
X35331743Y-63845589D01*
X35182995Y-63859263D01*
X35044177Y-63844160D01*
X34914450Y-63799179D01*
X34835384Y-63753155D01*
X34771651Y-63698795D01*
X34721376Y-63635780D01*
X34715758Y-63635780D01*
X34715758Y-64617392D01*
X34463944Y-64617392D01*
X34463944Y-63163659D01*
X34715758Y-63163659D01*
X34723651Y-63261633D01*
X34746533Y-63349528D01*
X34784124Y-63429361D01*
X34833239Y-63494852D01*
X34894951Y-63548230D01*
X34970381Y-63589863D01*
X35055007Y-63615773D01*
X35152342Y-63624789D01*
X35249554Y-63615773D01*
X35334059Y-63589863D01*
X35409571Y-63548216D01*
X35471201Y-63494852D01*
X35520413Y-63429351D01*
X35558030Y-63349528D01*
X35580912Y-63261633D01*
X35588804Y-63163659D01*
X35580912Y-63065684D01*
X35558030Y-62977790D01*
X35520413Y-62897966D01*
X35471201Y-62832466D01*
X35409571Y-62779102D01*
X35334059Y-62737455D01*
X35249554Y-62711545D01*
X35152342Y-62702528D01*
X35055007Y-62711545D01*
X34970381Y-62737455D01*
X34894951Y-62779088D01*
X34833239Y-62832466D01*
X34784124Y-62897957D01*
X34746533Y-62977790D01*
X34723651Y-63065684D01*
X34715758Y-63163659D01*
X34463944Y-63163659D01*
X34463944Y-62499318D01*
X34715758Y-62499318D01*
X34715758Y-62691538D01*
X34721376Y-62691538D01*
X34775261Y-62626754D01*
X34841418Y-62571982D01*
X34921411Y-62526796D01*
X35051108Y-62482589D01*
X35182995Y-62468055D01*
X35331737Y-62481759D01*
G37*
G36*
X36845034Y-62477805D02*
G01*
X36955709Y-62504448D01*
X37053319Y-62548355D01*
X37127779Y-62602389D01*
X37186535Y-62668988D01*
X37227063Y-62743683D01*
X37251228Y-62825088D01*
X37259303Y-62910135D01*
X37259303Y-63587298D01*
X37262112Y-63716136D01*
X37270539Y-63828000D01*
X37046690Y-63828000D01*
X37038264Y-63625400D01*
X37032646Y-63625400D01*
X36971065Y-63704854D01*
X36905003Y-63764291D01*
X36833954Y-63806384D01*
X36713165Y-63845442D01*
X36568218Y-63859263D01*
X36477420Y-63852925D01*
X36391875Y-63834228D01*
X36312443Y-63802547D01*
X36244963Y-63759123D01*
X36188828Y-63703204D01*
X36145678Y-63635170D01*
X36118774Y-63557299D01*
X36109286Y-63463956D01*
X36110870Y-63444660D01*
X36361100Y-63444660D01*
X36370478Y-63515584D01*
X36396256Y-63568035D01*
X36438037Y-63606715D01*
X36491607Y-63632789D01*
X36559884Y-63649818D01*
X36646498Y-63656053D01*
X36745183Y-63646908D01*
X36822719Y-63621736D01*
X36889417Y-63581579D01*
X36940200Y-63532588D01*
X36978752Y-63474479D01*
X37004558Y-63410466D01*
X37019377Y-63343020D01*
X37024220Y-63277232D01*
X37024220Y-63194922D01*
X36889886Y-63194922D01*
X36706582Y-63204570D01*
X36615572Y-63218916D01*
X36535978Y-63241572D01*
X36464778Y-63275316D01*
X36410071Y-63318509D01*
X36373661Y-63373902D01*
X36361100Y-63444660D01*
X36110870Y-63444660D01*
X36116160Y-63380221D01*
X36135584Y-63309578D01*
X36166561Y-63249632D01*
X36233589Y-63172078D01*
X36323243Y-63109071D01*
X36428456Y-63063254D01*
X36555518Y-63031035D01*
X36691019Y-63013435D01*
X36839572Y-63007344D01*
X37024220Y-63007344D01*
X37024220Y-62951290D01*
X37019391Y-62901394D01*
X37004558Y-62850540D01*
X36980252Y-62802807D01*
X36945818Y-62759559D01*
X36902527Y-62723571D01*
X36847998Y-62695079D01*
X36785859Y-62677603D01*
X36708047Y-62671265D01*
X36637669Y-62674952D01*
X36580675Y-62685065D01*
X36481390Y-62719381D01*
X36400301Y-62767497D01*
X36330326Y-62819765D01*
X36179261Y-62663450D01*
X36293618Y-62578189D01*
X36425458Y-62516904D01*
X36566368Y-62480095D01*
X36705238Y-62468055D01*
X36845034Y-62477805D01*
G37*
G36*
X38336170Y-62718160D02*
G01*
X37975179Y-62718160D01*
X37975179Y-63319730D01*
X37977988Y-63430372D01*
X37984836Y-63482979D01*
X37998993Y-63528314D01*
X38022136Y-63567562D01*
X38054924Y-63598289D01*
X38098114Y-63617339D01*
X38165444Y-63624789D01*
X38257646Y-63616485D01*
X38303533Y-63604448D01*
X38344474Y-63585711D01*
X38344474Y-63814566D01*
X38295583Y-63835097D01*
X38228337Y-63849493D01*
X38117817Y-63859263D01*
X37981598Y-63847776D01*
X37892625Y-63818718D01*
X37822041Y-63771015D01*
X37775144Y-63713816D01*
X37745262Y-63646250D01*
X37730326Y-63569835D01*
X37723365Y-63409001D01*
X37723365Y-62718160D01*
X37432349Y-62718160D01*
X37432349Y-62499318D01*
X37723365Y-62499318D01*
X37723365Y-62124161D01*
X37975179Y-62124161D01*
X37975179Y-62499318D01*
X38336170Y-62499318D01*
X38336170Y-62718160D01*
G37*
G36*
X38680552Y-62499318D02*
G01*
X38932367Y-62499318D01*
X38932367Y-63828000D01*
X38680552Y-63828000D01*
X38680552Y-62499318D01*
G37*
G36*
X38621812Y-62026464D02*
G01*
X38635374Y-61956782D01*
X38676400Y-61897138D01*
X38736398Y-61856314D01*
X38806582Y-61842794D01*
X38876661Y-61856308D01*
X38936641Y-61897138D01*
X38977667Y-61956782D01*
X38991229Y-62026464D01*
X38977671Y-62096168D01*
X38936641Y-62155913D01*
X38876670Y-62196647D01*
X38806582Y-62210135D01*
X38736388Y-62196641D01*
X38676400Y-62155913D01*
X38635370Y-62096168D01*
X38621812Y-62026464D01*
G37*
G36*
X40116351Y-62481868D02*
G01*
X40248958Y-62522521D01*
X40369804Y-62587475D01*
X40472806Y-62671998D01*
X40557632Y-62774420D01*
X40622527Y-62892672D01*
X40663272Y-63022277D01*
X40677116Y-63163659D01*
X40663305Y-63305249D01*
X40622527Y-63436112D01*
X40557487Y-63555249D01*
X40472806Y-63656785D01*
X40369908Y-63740143D01*
X40248958Y-63804796D01*
X40116351Y-63845450D01*
X39971987Y-63859263D01*
X39827622Y-63845450D01*
X39695015Y-63804796D01*
X39574065Y-63740143D01*
X39471167Y-63656785D01*
X39386487Y-63555249D01*
X39321446Y-63436112D01*
X39280668Y-63305249D01*
X39266857Y-63163659D01*
X39535525Y-63163659D01*
X39543417Y-63261633D01*
X39566299Y-63349528D01*
X39603890Y-63429361D01*
X39653005Y-63494852D01*
X39714617Y-63548223D01*
X39790026Y-63589863D01*
X39874651Y-63615773D01*
X39971987Y-63624789D01*
X40069305Y-63615770D01*
X40153825Y-63589863D01*
X40229337Y-63548216D01*
X40290968Y-63494852D01*
X40340083Y-63429361D01*
X40377674Y-63349528D01*
X40400556Y-63261633D01*
X40408448Y-63163659D01*
X40400556Y-63065684D01*
X40377674Y-62977790D01*
X40340083Y-62897957D01*
X40290968Y-62832466D01*
X40229337Y-62779102D01*
X40153825Y-62737455D01*
X40069305Y-62711548D01*
X39971987Y-62702528D01*
X39874651Y-62711545D01*
X39790026Y-62737455D01*
X39714617Y-62779094D01*
X39653005Y-62832466D01*
X39603890Y-62897957D01*
X39566299Y-62977790D01*
X39543417Y-63065684D01*
X39535525Y-63163659D01*
X39266857Y-63163659D01*
X39280701Y-63022277D01*
X39321446Y-62892672D01*
X39386341Y-62774420D01*
X39471167Y-62671998D01*
X39574169Y-62587475D01*
X39695015Y-62522521D01*
X39827622Y-62481868D01*
X39971987Y-62468055D01*
X40116351Y-62481868D01*
G37*
G36*
X40994021Y-62499318D02*
G01*
X41245835Y-62499318D01*
X41245835Y-62705948D01*
X41251453Y-62705948D01*
X41289932Y-62640827D01*
X41344132Y-62583689D01*
X41416439Y-62533879D01*
X41497180Y-62497885D01*
X41587062Y-62475730D01*
X41687915Y-62468055D01*
X41781563Y-62475454D01*
X41871219Y-62497487D01*
X41954069Y-62535031D01*
X42025092Y-62588345D01*
X42083210Y-62657218D01*
X42129994Y-62746492D01*
X42158802Y-62848339D01*
X42169195Y-62974493D01*
X42169195Y-63828000D01*
X41917381Y-63828000D01*
X41917381Y-63044102D01*
X41910639Y-62955556D01*
X41892224Y-62885955D01*
X41862057Y-62825198D01*
X41825057Y-62779587D01*
X41779808Y-62744481D01*
X41728459Y-62720725D01*
X41673062Y-62707105D01*
X41615130Y-62702528D01*
X41538857Y-62708983D01*
X41469684Y-62727808D01*
X41406956Y-62760149D01*
X41352081Y-62807553D01*
X41308221Y-62867972D01*
X41273801Y-62946161D01*
X41253308Y-63034427D01*
X41245835Y-63144852D01*
X41245835Y-63828000D01*
X40994021Y-63828000D01*
X40994021Y-62499318D01*
G37*
D12*
G36*
X28897283Y-59302888D02*
G01*
X27594919Y-57318568D01*
X28544871Y-57318568D01*
X29279187Y-58613879D01*
X30057742Y-57318568D01*
X30963669Y-57318568D01*
X29661305Y-59302888D01*
X29661305Y-60779001D01*
X28897283Y-60779001D01*
X28897283Y-59302888D01*
G37*
G36*
X32176231Y-58366677D02*
G01*
X32424608Y-58432224D01*
X32652635Y-58539929D01*
X32845621Y-58683550D01*
X33004843Y-58862663D01*
X33127294Y-59076567D01*
X33183577Y-59232462D01*
X33218178Y-59402497D01*
X33230090Y-59589049D01*
X33218181Y-59775602D01*
X33183583Y-59945712D01*
X33127294Y-60101746D01*
X33004856Y-60315470D01*
X32845621Y-60494549D01*
X32652635Y-60638170D01*
X32424608Y-60745875D01*
X32176231Y-60811422D01*
X31908065Y-60833711D01*
X31639898Y-60811422D01*
X31391522Y-60745875D01*
X31163457Y-60638180D01*
X30970294Y-60494549D01*
X30811230Y-60315485D01*
X30688835Y-60101746D01*
X30632546Y-59945712D01*
X30597949Y-59775602D01*
X30586039Y-59589049D01*
X31320569Y-59589049D01*
X31338893Y-59762421D01*
X31390709Y-59905421D01*
X31474656Y-60024595D01*
X31587522Y-60114742D01*
X31729205Y-60170776D01*
X31908278Y-60190864D01*
X32087203Y-60170776D01*
X32228742Y-60114744D01*
X32341474Y-60024595D01*
X32425545Y-59905405D01*
X32477428Y-59762406D01*
X32495774Y-59589049D01*
X32477424Y-59415697D01*
X32425537Y-59272776D01*
X32341474Y-59153717D01*
X32228725Y-59063443D01*
X32087185Y-59007345D01*
X31908278Y-58987235D01*
X31729222Y-59007345D01*
X31587539Y-59063445D01*
X31474656Y-59153717D01*
X31390717Y-59272760D01*
X31338898Y-59415682D01*
X31320569Y-59589049D01*
X30586039Y-59589049D01*
X30597952Y-59402497D01*
X30632552Y-59232462D01*
X30688835Y-59076567D01*
X30811244Y-58862648D01*
X30970294Y-58683550D01*
X31163457Y-58539919D01*
X31391522Y-58432224D01*
X31639898Y-58366677D01*
X31908065Y-58344388D01*
X32176231Y-58366677D01*
G37*
G36*
X35954283Y-60779001D02*
G01*
X35249246Y-60779001D01*
X35249246Y-60453944D01*
X35239415Y-60453944D01*
X35138970Y-60590292D01*
X35072175Y-60653925D01*
X34989585Y-60712108D01*
X34897061Y-60759945D01*
X34788909Y-60799517D01*
X34673133Y-60824914D01*
X34543995Y-60833711D01*
X34358969Y-60822924D01*
X34210062Y-60793347D01*
X34090924Y-60748226D01*
X33935422Y-60644916D01*
X33821646Y-60511005D01*
X33743376Y-60349355D01*
X33694487Y-60154319D01*
X33670902Y-59944504D01*
X33662644Y-59709369D01*
X33662644Y-58399098D01*
X34397174Y-58399098D01*
X34397174Y-59564259D01*
X34404440Y-59777330D01*
X34419455Y-59884353D01*
X34448465Y-59980357D01*
X34495285Y-60065156D01*
X34561092Y-60132093D01*
X34648091Y-60174628D01*
X34779078Y-60190864D01*
X34912437Y-60176915D01*
X35009033Y-60139573D01*
X35087265Y-60079124D01*
X35143886Y-60002369D01*
X35182053Y-59912452D01*
X35205007Y-59808960D01*
X35219753Y-59583920D01*
X35219753Y-58399098D01*
X35954283Y-58399098D01*
X35954283Y-60779001D01*
G37*
G36*
X36473391Y-58399098D02*
G01*
X37207921Y-58399098D01*
X37207921Y-58782712D01*
X37217752Y-58782712D01*
X37350629Y-58585846D01*
X37496860Y-58454022D01*
X37609414Y-58394839D01*
X37743286Y-58357610D01*
X37903341Y-58344388D01*
X38030500Y-58347166D01*
X38148042Y-58358065D01*
X38148042Y-59038526D01*
X37993742Y-59000058D01*
X37834739Y-58987235D01*
X37636669Y-59003680D01*
X37501775Y-59046006D01*
X37392345Y-59117318D01*
X37313067Y-59210137D01*
X37259577Y-59322922D01*
X37227369Y-59462104D01*
X37207921Y-59785237D01*
X37207921Y-60779001D01*
X36473391Y-60779001D01*
X36473391Y-58399098D01*
G37*
G36*
X40009905Y-57318568D02*
G01*
X41047907Y-57318568D01*
X42521668Y-59723261D01*
X42531499Y-59723261D01*
X42531499Y-57318568D01*
X43295521Y-57318568D01*
X43295521Y-60779001D01*
X42296629Y-60779001D01*
X40783544Y-58315537D01*
X40773714Y-58315537D01*
X40773714Y-60779001D01*
X40009905Y-60779001D01*
X40009905Y-57318568D01*
G37*
G36*
X45296646Y-58366605D02*
G01*
X45520482Y-58425171D01*
X45652466Y-58488772D01*
X45762554Y-58567673D01*
X45853446Y-58662178D01*
X45957819Y-58832783D01*
X46027408Y-59046006D01*
X46063293Y-59282326D01*
X46076348Y-59571525D01*
X46076348Y-60779001D01*
X45400589Y-60779001D01*
X45400589Y-60471468D01*
X45390972Y-60471468D01*
X45299350Y-60589475D01*
X45191409Y-60681358D01*
X45065274Y-60749508D01*
X44857144Y-60812539D01*
X44636781Y-60833711D01*
X44472705Y-60822078D01*
X44315998Y-60787549D01*
X44169651Y-60729215D01*
X44044156Y-60649063D01*
X43939231Y-60546112D01*
X43858226Y-60420818D01*
X43807494Y-60277213D01*
X43789624Y-60105165D01*
X43792851Y-60074177D01*
X44494876Y-60074177D01*
X44507685Y-60153633D01*
X44544407Y-60215963D01*
X44607502Y-60265449D01*
X44723272Y-60312287D01*
X44842372Y-60327640D01*
X44948651Y-60320427D01*
X45050528Y-60299002D01*
X45146542Y-60263868D01*
X45229192Y-60217791D01*
X45299693Y-60157810D01*
X45354000Y-60083794D01*
X45388465Y-59997305D01*
X45400589Y-59892521D01*
X45400589Y-59739503D01*
X45219361Y-59739503D01*
X45011419Y-59746769D01*
X44888422Y-59760547D01*
X44771420Y-59787375D01*
X44663407Y-59829971D01*
X44575659Y-59887819D01*
X44515772Y-59966255D01*
X44494876Y-60074177D01*
X43792851Y-60074177D01*
X43809787Y-59911547D01*
X43865492Y-59760233D01*
X43954883Y-59631458D01*
X44071084Y-59527073D01*
X44208564Y-59445885D01*
X44367503Y-59383885D01*
X44536308Y-59339645D01*
X44712649Y-59308445D01*
X45069976Y-59279380D01*
X45400589Y-59274465D01*
X45384431Y-59151127D01*
X45338191Y-59049737D01*
X45261035Y-58965009D01*
X45162951Y-58901642D01*
X45053888Y-58863547D01*
X44930635Y-58850459D01*
X44755774Y-58869794D01*
X44600022Y-58926327D01*
X44459662Y-59015595D01*
X44333309Y-59134483D01*
X43941574Y-58731421D01*
X44085780Y-58613457D01*
X44245140Y-58516916D01*
X44421358Y-58441200D01*
X44700107Y-58368652D01*
X44989406Y-58344388D01*
X45296646Y-58366605D01*
G37*
G36*
X46536685Y-58399098D02*
G01*
X47241936Y-58399098D01*
X47241936Y-58722659D01*
X47251553Y-58722659D01*
X47349433Y-58586951D01*
X47501169Y-58465776D01*
X47593875Y-58417929D01*
X47702059Y-58378368D01*
X47817826Y-58353131D01*
X47946973Y-58344388D01*
X48110844Y-58356267D01*
X48257606Y-58390594D01*
X48389999Y-58446329D01*
X48507256Y-58526200D01*
X48603951Y-58631728D01*
X48681503Y-58766684D01*
X48776644Y-58623848D01*
X48879288Y-58517347D01*
X48989890Y-58441627D01*
X49114345Y-58389365D01*
X49261393Y-58356187D01*
X49435481Y-58344388D01*
X49663504Y-58366022D01*
X49839398Y-58425171D01*
X49987644Y-58521508D01*
X50099058Y-58645081D01*
X50179948Y-58793984D01*
X50236048Y-58972703D01*
X50267013Y-59164769D01*
X50277722Y-59375978D01*
X50277722Y-60779001D01*
X49543192Y-60779001D01*
X49543192Y-59393502D01*
X49524650Y-59235465D01*
X49472239Y-59107128D01*
X49415370Y-59042545D01*
X49334239Y-59002167D01*
X49220059Y-58987235D01*
X49099133Y-58998448D01*
X49006987Y-59028909D01*
X48929341Y-59078800D01*
X48869784Y-59143886D01*
X48826322Y-59222308D01*
X48796481Y-59315284D01*
X48774468Y-59520875D01*
X48774468Y-60779001D01*
X48039938Y-60779001D01*
X48039938Y-59520875D01*
X48035023Y-59364224D01*
X48000615Y-59188125D01*
X47962151Y-59110927D01*
X47905300Y-59046006D01*
X47828549Y-59003377D01*
X47711890Y-58987235D01*
X47578518Y-59001231D01*
X47481721Y-59038740D01*
X47403674Y-59099003D01*
X47347082Y-59175729D01*
X47308864Y-59265644D01*
X47285747Y-59369139D01*
X47271215Y-59594178D01*
X47271215Y-60779001D01*
X46536685Y-60779001D01*
X46536685Y-58399098D01*
G37*
G36*
X52292461Y-58367060D02*
G01*
X52508667Y-58432437D01*
X52701628Y-58539974D01*
X52861292Y-58684404D01*
X52987738Y-58862096D01*
X53083981Y-59078063D01*
X53142040Y-59316469D01*
X53162413Y-59591614D01*
X53162413Y-59821569D01*
X51458270Y-59821569D01*
X51500251Y-59952334D01*
X51563796Y-60060767D01*
X51649329Y-60150472D01*
X51753057Y-60217635D01*
X51872484Y-60258638D01*
X52011785Y-60272929D01*
X52182550Y-60251714D01*
X52317608Y-60192146D01*
X52433851Y-60100444D01*
X52535594Y-59983990D01*
X53049787Y-60361406D01*
X52922339Y-60500425D01*
X52774531Y-60616533D01*
X52604196Y-60710826D01*
X52421473Y-60779398D01*
X52235993Y-60820119D01*
X52045979Y-60833711D01*
X51777783Y-60811426D01*
X51529222Y-60745875D01*
X51301195Y-60638170D01*
X51108209Y-60494549D01*
X50949145Y-60315485D01*
X50826749Y-60101746D01*
X50770460Y-59945712D01*
X50735863Y-59775602D01*
X50723954Y-59589049D01*
X50735866Y-59402497D01*
X50753569Y-59315497D01*
X51458270Y-59315497D01*
X52427883Y-59315497D01*
X52416302Y-59200119D01*
X52375982Y-59098297D01*
X52305426Y-59006255D01*
X52213582Y-58935588D01*
X52105797Y-58892770D01*
X51977377Y-58877814D01*
X51859575Y-58887801D01*
X51761741Y-58915855D01*
X51674320Y-58960024D01*
X51602739Y-59013522D01*
X51543865Y-59077900D01*
X51499944Y-59151366D01*
X51471123Y-59231705D01*
X51458270Y-59315497D01*
X50753569Y-59315497D01*
X50770466Y-59232462D01*
X50826749Y-59076567D01*
X50949158Y-58862648D01*
X51108209Y-58683550D01*
X51301371Y-58539919D01*
X51529436Y-58432224D01*
X51777812Y-58366677D01*
X52045979Y-58344388D01*
X52292461Y-58367060D01*
G37*
D13*
%TO.C,J1*%
X85322400Y-28626400D02*
X85322400Y-26126400D01*
X85322403Y-41026400D02*
X85322403Y-38526400D01*
D14*
X85372403Y-38876400D02*
X85372403Y-39276400D01*
D13*
X86422400Y-24976398D02*
X101872400Y-24976398D01*
X101872400Y-29776398D01*
X86422400Y-29776398D01*
X86422400Y-24976398D01*
%TA.AperFunction,EtchedComponent*%
G36*
X86422400Y-24976398D02*
G01*
X101872400Y-24976398D01*
X101872400Y-29776398D01*
X86422400Y-29776398D01*
X86422400Y-24976398D01*
G37*
%TD.AperFunction*%
X86472400Y-37376400D02*
X101922400Y-37376400D01*
X101922400Y-42176400D01*
X86472400Y-42176400D01*
X86472400Y-37376400D01*
%TA.AperFunction,EtchedComponent*%
G36*
X86472400Y-37376400D02*
G01*
X101922400Y-37376400D01*
X101922400Y-42176400D01*
X86472400Y-42176400D01*
X86472400Y-37376400D01*
G37*
%TD.AperFunction*%
D15*
X87072400Y-26126400D02*
G75*
G02*
X85872400Y-26126400I-600000J0D01*
G01*
X85872400Y-26126400D02*
G75*
G02*
X87072400Y-26126400I600000J0D01*
G01*
X87072400Y-28626402D02*
G75*
G02*
X85872400Y-28626402I-600000J0D01*
G01*
X85872400Y-28626402D02*
G75*
G02*
X87072400Y-28626402I600000J0D01*
G01*
X87072403Y-38526400D02*
G75*
G02*
X85872403Y-38526400I-600000J0D01*
G01*
X85872403Y-38526400D02*
G75*
G02*
X87072403Y-38526400I600000J0D01*
G01*
X87072403Y-41026402D02*
G75*
G02*
X85872403Y-41026402I-600000J0D01*
G01*
X85872403Y-41026402D02*
G75*
G02*
X87072403Y-41026402I600000J0D01*
G01*
D13*
X87672398Y-26226400D02*
X87672400Y-28726402D01*
X85372400Y-28326400D01*
X85372400Y-26676400D01*
X87472400Y-25926400D01*
X87672398Y-26226400D01*
%TA.AperFunction,EtchedComponent*%
G36*
X87672398Y-26226400D02*
G01*
X87672400Y-28726402D01*
X85372400Y-28326400D01*
X85372400Y-26676400D01*
X87472400Y-25926400D01*
X87672398Y-26226400D01*
G37*
%TD.AperFunction*%
X87672401Y-38626400D02*
X87672403Y-41126402D01*
X85372403Y-40726400D01*
X85372403Y-39076400D01*
X87472403Y-38326400D01*
X87672401Y-38626400D01*
%TA.AperFunction,EtchedComponent*%
G36*
X87672401Y-38626400D02*
G01*
X87672403Y-41126402D01*
X85372403Y-40726400D01*
X85372403Y-39076400D01*
X87472403Y-38326400D01*
X87672401Y-38626400D01*
G37*
%TD.AperFunction*%
%TD*%
D16*
%TO.P,D20,1,K*%
%TO.N,Net-(D12-K)*%
X48668913Y-40286913D03*
%TO.P,D20,2,A*%
%TO.N,Row3*%
X47343087Y-38961087D03*
%TD*%
%TO.P,D28,1,K*%
%TO.N,Net-(D12-K)*%
X44858913Y-40286913D03*
%TO.P,D28,2,A*%
%TO.N,Row4*%
X43533087Y-38961087D03*
%TD*%
%TO.P,D60,1,K*%
%TO.N,Net-(D15-K)*%
X29718000Y-28829000D03*
%TO.P,D60,2,A*%
%TO.N,Row8*%
X28392174Y-27503174D03*
%TD*%
%TO.P,D61,1,K*%
%TO.N,Net-(D16-K)*%
X41048913Y-25046913D03*
%TO.P,D61,2,A*%
%TO.N,Row5*%
X39723087Y-23721087D03*
%TD*%
%TO.P,D58,1,K*%
%TO.N,Net-(D15-K)*%
X37338000Y-28829000D03*
%TO.P,D58,2,A*%
%TO.N,Row6*%
X36012174Y-27503174D03*
%TD*%
%TO.P,D46,1,K*%
%TO.N,Net-(D12-K)*%
X37338001Y-40231087D03*
%TO.P,D46,2,A*%
%TO.N,Row6*%
X36012175Y-38905261D03*
%TD*%
%TO.P,D64,1,K*%
%TO.N,Net-(D16-K)*%
X29618913Y-25046913D03*
%TO.P,D64,2,A*%
%TO.N,Row8*%
X28293087Y-23721087D03*
%TD*%
%TO.P,D41,1,K*%
%TO.N,Net-(D11-K)*%
X41175914Y-44069000D03*
%TO.P,D41,2,A*%
%TO.N,Row5*%
X39850088Y-42743174D03*
%TD*%
%TO.P,D25,1,K*%
%TO.N,Net-(D1-K)*%
X44858912Y-51716913D03*
%TO.P,D25,2,A*%
%TO.N,Row4*%
X43533086Y-50391087D03*
%TD*%
%TO.P,D35,1,K*%
%TO.N,Net-(D1-K)*%
X33528000Y-51661087D03*
%TO.P,D35,2,A*%
%TO.N,Row7*%
X32202174Y-50335261D03*
%TD*%
%TO.P,D16,1,K*%
%TO.N,Net-(D16-K)*%
X52450999Y-24919913D03*
%TO.P,D16,2,A*%
%TO.N,Row2*%
X51125173Y-23594087D03*
%TD*%
%TO.P,D14,1,K*%
%TO.N,Net-(D14-K)*%
X52534739Y-32611087D03*
%TO.P,D14,2,A*%
%TO.N,Row2*%
X51208913Y-31285261D03*
%TD*%
%TO.P,D1,1,K*%
%TO.N,Net-(D1-K)*%
X56288913Y-51716913D03*
%TO.P,D1,2,A*%
%TO.N,Row1*%
X54963087Y-50391087D03*
%TD*%
D17*
%TO.P,Y1,1,TRI_STATE*%
%TO.N,unconnected-(Y1-TRI_STATE-Pad1)*%
X77451800Y-53694000D03*
%TO.P,Y1,2,GND*%
%TO.N,GND*%
X77451800Y-51844000D03*
%TO.P,Y1,3,OUTPUT*%
%TO.N,CLK*%
X76001800Y-51844000D03*
%TO.P,Y1,4,VDD*%
%TO.N,+3V0*%
X76001800Y-53694000D03*
%TD*%
D16*
%TO.P,D3,1,K*%
%TO.N,Net-(D11-K)*%
X56062826Y-44168087D03*
%TO.P,D3,2,A*%
%TO.N,Row1*%
X54737000Y-42842261D03*
%TD*%
D18*
%TO.P,J1,1,Pin_1*%
%TO.N,+3V0*%
X102472400Y-39776400D03*
D19*
X102497400Y-27376400D03*
%TD*%
D16*
%TO.P,D21,1,K*%
%TO.N,Net-(D13-K)*%
X48569826Y-36576000D03*
%TO.P,D21,2,A*%
%TO.N,Row3*%
X47244000Y-35250174D03*
%TD*%
%TO.P,D52,1,K*%
%TO.N,Net-(D13-K)*%
X29718001Y-36421087D03*
%TO.P,D52,2,A*%
%TO.N,Row8*%
X28392175Y-35095261D03*
%TD*%
%TO.P,D34,1,K*%
%TO.N,Net-(D1-K)*%
X37338000Y-51661087D03*
%TO.P,D34,2,A*%
%TO.N,Row6*%
X36012174Y-50335261D03*
%TD*%
%TO.P,D37,1,K*%
%TO.N,Net-(D10-K)*%
X41148001Y-47851087D03*
%TO.P,D37,2,A*%
%TO.N,Row5*%
X39822175Y-46525261D03*
%TD*%
%TO.P,D18,1,K*%
%TO.N,Net-(D10-K)*%
X48641000Y-47879000D03*
%TO.P,D18,2,A*%
%TO.N,Row3*%
X47315174Y-46553174D03*
%TD*%
%TO.P,D39,1,K*%
%TO.N,Net-(D10-K)*%
X33528001Y-47851087D03*
%TO.P,D39,2,A*%
%TO.N,Row7*%
X32202175Y-46525261D03*
%TD*%
%TO.P,D10,1,K*%
%TO.N,Net-(D10-K)*%
X52478913Y-47851087D03*
%TO.P,D10,2,A*%
%TO.N,Row2*%
X51153087Y-46525261D03*
%TD*%
%TO.P,D29,1,K*%
%TO.N,Net-(D13-K)*%
X44731913Y-36603913D03*
%TO.P,D29,2,A*%
%TO.N,Row4*%
X43406087Y-35278087D03*
%TD*%
D20*
%TO.P,SW2,1,1*%
%TO.N,BUTTON2*%
X99796200Y-57790000D03*
X106096200Y-57790000D03*
%TO.P,SW2,2,2*%
%TO.N,Net-(R11-Pad1)*%
X99796200Y-61590000D03*
X106096200Y-61590000D03*
%TD*%
D16*
%TO.P,D32,1,K*%
%TO.N,Net-(D16-K)*%
X44830999Y-24919913D03*
%TO.P,D32,2,A*%
%TO.N,Row4*%
X43505173Y-23594087D03*
%TD*%
D21*
%TO.P,R4,1*%
%TO.N,Net-(D11-K)*%
X58675000Y-44450000D03*
%TO.P,R4,2*%
%TO.N,Col3*%
X60325000Y-44450000D03*
%TD*%
D22*
%TO.P,R15,1*%
%TO.N,Net-(U2-~{LE})*%
X73726800Y-25269000D03*
%TO.P,R15,2*%
%TO.N,GND*%
X73726800Y-23619000D03*
%TD*%
D23*
%TO.P,J2,1,Pin_1*%
%TO.N,SW_DIO*%
X83667600Y-46075600D03*
D24*
%TO.P,J2,2,Pin_2*%
%TO.N,SW_CLK*%
X86207600Y-46075600D03*
%TO.P,J2,3,Pin_3*%
%TO.N,RESET*%
X88747600Y-46075600D03*
%TO.P,J2,4,Pin_4*%
%TO.N,+3V0*%
X91287600Y-46075600D03*
%TO.P,J2,5,Pin_5*%
%TO.N,GND*%
X93827600Y-46075600D03*
%TD*%
D16*
%TO.P,D19,1,K*%
%TO.N,Net-(D11-K)*%
X48414913Y-44196000D03*
%TO.P,D19,2,A*%
%TO.N,Row3*%
X47089087Y-42870174D03*
%TD*%
%TO.P,D50,1,K*%
%TO.N,Net-(D13-K)*%
X37338001Y-36421087D03*
%TO.P,D50,2,A*%
%TO.N,Row6*%
X36012175Y-35095261D03*
%TD*%
%TO.P,D59,1,K*%
%TO.N,Net-(D15-K)*%
X33528000Y-28829000D03*
%TO.P,D59,2,A*%
%TO.N,Row7*%
X32202174Y-27503174D03*
%TD*%
D25*
%TO.P,C1,1*%
%TO.N,+3V0*%
X75251800Y-56294000D03*
%TO.P,C1,2*%
%TO.N,GND*%
X76801800Y-56294000D03*
%TD*%
D16*
%TO.P,D17,1,K*%
%TO.N,Net-(D1-K)*%
X48668912Y-51716913D03*
%TO.P,D17,2,A*%
%TO.N,Row3*%
X47343086Y-50391087D03*
%TD*%
D25*
%TO.P,C2,1*%
%TO.N,+3V0*%
X65626800Y-32294000D03*
%TO.P,C2,2*%
%TO.N,GND*%
X67176800Y-32294000D03*
%TD*%
D16*
%TO.P,D38,1,K*%
%TO.N,Net-(D10-K)*%
X37338001Y-47851087D03*
%TO.P,D38,2,A*%
%TO.N,Row6*%
X36012175Y-46525261D03*
%TD*%
D26*
%TO.P,R12,1*%
%TO.N,BUTTON*%
X87350600Y-53506400D03*
%TO.P,R12,2*%
%TO.N,GND*%
X87350600Y-55156400D03*
%TD*%
D16*
%TO.P,D48,1,K*%
%TO.N,Net-(D12-K)*%
X29745914Y-40259000D03*
%TO.P,D48,2,A*%
%TO.N,Row8*%
X28420088Y-38933174D03*
%TD*%
D22*
%TO.P,R1,1*%
%TO.N,BUTTON2*%
X87376000Y-58255200D03*
%TO.P,R1,2*%
%TO.N,GND*%
X87376000Y-56605200D03*
%TD*%
D27*
%TO.P,U1,1,PB9*%
%TO.N,BUTTON2*%
X72589300Y-55119000D03*
%TO.P,U1,2,PC14*%
%TO.N,Col7*%
X72589300Y-54469000D03*
%TO.P,U1,3,PC15*%
%TO.N,Col8*%
X72589300Y-53819000D03*
%TO.P,U1,4,NRST*%
%TO.N,RESET*%
X72589300Y-53169000D03*
%TO.P,U1,5,VDDA*%
%TO.N,+3V0*%
X72589300Y-52519000D03*
%TO.P,U1,6,PA0*%
%TO.N,CLK*%
X72589300Y-51869000D03*
%TO.P,U1,7,PA1*%
%TO.N,A0*%
X72589300Y-51219000D03*
%TO.P,U1,8,PA2*%
%TO.N,A1*%
X72589300Y-50569000D03*
%TO.P,U1,9,PA3*%
%TO.N,A2*%
X72589300Y-49919000D03*
%TO.P,U1,10,PA4*%
%TO.N,Col6*%
X72589300Y-49269000D03*
%TO.P,U1,11,PA5*%
%TO.N,Col5*%
X66864300Y-49269000D03*
%TO.P,U1,12,PA6*%
%TO.N,Col4*%
X66864300Y-49919000D03*
%TO.P,U1,13,PA7*%
%TO.N,Col3*%
X66864300Y-50569000D03*
%TO.P,U1,14,PB1*%
%TO.N,BUTTON*%
X66864300Y-51219000D03*
%TO.P,U1,15,VSS*%
%TO.N,GND*%
X66864300Y-51869000D03*
%TO.P,U1,16,VDD*%
%TO.N,+3V0*%
X66864300Y-52519000D03*
%TO.P,U1,17,PA9*%
%TO.N,Col2*%
X66864300Y-53169000D03*
%TO.P,U1,18,PA10*%
%TO.N,Col1*%
X66864300Y-53819000D03*
%TO.P,U1,19,PA13*%
%TO.N,SW_DIO*%
X66864300Y-54469000D03*
%TO.P,U1,20,PA14*%
%TO.N,SW_CLK*%
X66864300Y-55119000D03*
%TD*%
D16*
%TO.P,D40,1,K*%
%TO.N,Net-(D10-K)*%
X29718001Y-47851087D03*
%TO.P,D40,2,A*%
%TO.N,Row8*%
X28392175Y-46525261D03*
%TD*%
%TO.P,D45,1,K*%
%TO.N,Net-(D12-K)*%
X41148001Y-40231087D03*
%TO.P,D45,2,A*%
%TO.N,Row5*%
X39822175Y-38905261D03*
%TD*%
%TO.P,D57,1,K*%
%TO.N,Net-(D15-K)*%
X41148000Y-28829000D03*
%TO.P,D57,2,A*%
%TO.N,Row5*%
X39822174Y-27503174D03*
%TD*%
%TO.P,D23,1,K*%
%TO.N,Net-(D15-K)*%
X48613086Y-28829000D03*
%TO.P,D23,2,A*%
%TO.N,Row3*%
X47287260Y-27503174D03*
%TD*%
%TO.P,D44,1,K*%
%TO.N,Net-(D11-K)*%
X29718001Y-44041087D03*
%TO.P,D44,2,A*%
%TO.N,Row8*%
X28392175Y-42715261D03*
%TD*%
%TO.P,D30,1,K*%
%TO.N,Net-(D14-K)*%
X44886826Y-32639000D03*
%TO.P,D30,2,A*%
%TO.N,Row4*%
X43561000Y-31313174D03*
%TD*%
%TO.P,D11,1,K*%
%TO.N,Net-(D11-K)*%
X52224913Y-44196000D03*
%TO.P,D11,2,A*%
%TO.N,Row2*%
X50899087Y-42870174D03*
%TD*%
%TO.P,D51,1,K*%
%TO.N,Net-(D13-K)*%
X33528001Y-36421087D03*
%TO.P,D51,2,A*%
%TO.N,Row7*%
X32202175Y-35095261D03*
%TD*%
D21*
%TO.P,R7,1*%
%TO.N,Net-(D14-K)*%
X58675000Y-33020000D03*
%TO.P,R7,2*%
%TO.N,Col6*%
X60325000Y-33020000D03*
%TD*%
%TO.P,R6,1*%
%TO.N,Net-(D13-K)*%
X58675000Y-36830000D03*
%TO.P,R6,2*%
%TO.N,Col5*%
X60325000Y-36830000D03*
%TD*%
D16*
%TO.P,D13,1,K*%
%TO.N,Net-(D13-K)*%
X52407739Y-36548087D03*
%TO.P,D13,2,A*%
%TO.N,Row2*%
X51081913Y-35222261D03*
%TD*%
%TO.P,D7,1,K*%
%TO.N,Net-(D15-K)*%
X56261000Y-28801087D03*
%TO.P,D7,2,A*%
%TO.N,Row1*%
X54935174Y-27475261D03*
%TD*%
%TO.P,D22,1,K*%
%TO.N,Net-(D14-K)*%
X48668913Y-32666913D03*
%TO.P,D22,2,A*%
%TO.N,Row3*%
X47343087Y-31341087D03*
%TD*%
D26*
%TO.P,R10,1*%
%TO.N,Net-(R10-Pad1)*%
X83185000Y-53442400D03*
%TO.P,R10,2*%
%TO.N,+3V0*%
X83185000Y-55092400D03*
%TD*%
D16*
%TO.P,D42,1,K*%
%TO.N,Net-(D11-K)*%
X37365914Y-44069000D03*
%TO.P,D42,2,A*%
%TO.N,Row6*%
X36040088Y-42743174D03*
%TD*%
%TO.P,D15,1,K*%
%TO.N,Net-(D15-K)*%
X52450999Y-28801087D03*
%TO.P,D15,2,A*%
%TO.N,Row2*%
X51125173Y-27475261D03*
%TD*%
%TO.P,D12,1,K*%
%TO.N,Net-(D12-K)*%
X52506826Y-40259000D03*
%TO.P,D12,2,A*%
%TO.N,Row2*%
X51181000Y-38933174D03*
%TD*%
%TO.P,D2,1,K*%
%TO.N,Net-(D10-K)*%
X56288913Y-47851087D03*
%TO.P,D2,2,A*%
%TO.N,Row1*%
X54963087Y-46525261D03*
%TD*%
%TO.P,D43,1,K*%
%TO.N,Net-(D11-K)*%
X33555914Y-44069000D03*
%TO.P,D43,2,A*%
%TO.N,Row7*%
X32230088Y-42743174D03*
%TD*%
%TO.P,D62,1,K*%
%TO.N,Net-(D16-K)*%
X37238913Y-25046913D03*
%TO.P,D62,2,A*%
%TO.N,Row6*%
X35913087Y-23721087D03*
%TD*%
D22*
%TO.P,R11,1*%
%TO.N,Net-(R11-Pad1)*%
X83210400Y-58267400D03*
%TO.P,R11,2*%
%TO.N,+3V0*%
X83210400Y-56617400D03*
%TD*%
D16*
%TO.P,D53,1,K*%
%TO.N,Net-(D14-K)*%
X41148001Y-32611087D03*
%TO.P,D53,2,A*%
%TO.N,Row5*%
X39822175Y-31285261D03*
%TD*%
D21*
%TO.P,R8,1*%
%TO.N,Net-(D15-K)*%
X58675000Y-29210000D03*
%TO.P,R8,2*%
%TO.N,Col7*%
X60325000Y-29210000D03*
%TD*%
D16*
%TO.P,D33,1,K*%
%TO.N,Net-(D1-K)*%
X41120087Y-51633174D03*
%TO.P,D33,2,A*%
%TO.N,Row5*%
X39794261Y-50307348D03*
%TD*%
%TO.P,D47,1,K*%
%TO.N,Net-(D12-K)*%
X33528001Y-40231087D03*
%TO.P,D47,2,A*%
%TO.N,Row7*%
X32202175Y-38905261D03*
%TD*%
D20*
%TO.P,SW1,1,1*%
%TO.N,BUTTON*%
X106197800Y-54097000D03*
X99897800Y-54097000D03*
%TO.P,SW1,2,2*%
%TO.N,Net-(R10-Pad1)*%
X106197800Y-50297000D03*
X99897800Y-50297000D03*
%TD*%
D16*
%TO.P,D54,1,K*%
%TO.N,Net-(D14-K)*%
X37338001Y-32611087D03*
%TO.P,D54,2,A*%
%TO.N,Row6*%
X36012175Y-31285261D03*
%TD*%
D28*
%TO.P,C4,1*%
%TO.N,+3V0*%
X85369400Y-55093200D03*
%TO.P,C4,2*%
%TO.N,BUTTON*%
X85369400Y-53543200D03*
%TD*%
D16*
%TO.P,D26,1,K*%
%TO.N,Net-(D10-K)*%
X44831000Y-47879000D03*
%TO.P,D26,2,A*%
%TO.N,Row4*%
X43505174Y-46553174D03*
%TD*%
%TO.P,D31,1,K*%
%TO.N,Net-(D15-K)*%
X44803086Y-28829000D03*
%TO.P,D31,2,A*%
%TO.N,Row4*%
X43477260Y-27503174D03*
%TD*%
D22*
%TO.P,R14,1*%
%TO.N,Net-(U2-~{OE}_{1})*%
X71976800Y-25269000D03*
%TO.P,R14,2*%
%TO.N,GND*%
X71976800Y-23619000D03*
%TD*%
D21*
%TO.P,R3,1*%
%TO.N,Net-(D10-K)*%
X58675000Y-48260000D03*
%TO.P,R3,2*%
%TO.N,Col2*%
X60325000Y-48260000D03*
%TD*%
D16*
%TO.P,D24,1,K*%
%TO.N,Net-(D16-K)*%
X48640999Y-24919913D03*
%TO.P,D24,2,A*%
%TO.N,Row3*%
X47315173Y-23594087D03*
%TD*%
%TO.P,D36,1,K*%
%TO.N,Net-(D1-K)*%
X29690087Y-51633174D03*
%TO.P,D36,2,A*%
%TO.N,Row8*%
X28364261Y-50307348D03*
%TD*%
%TO.P,D4,1,K*%
%TO.N,Net-(D12-K)*%
X56316826Y-40259000D03*
%TO.P,D4,2,A*%
%TO.N,Row1*%
X54991000Y-38933174D03*
%TD*%
%TO.P,D56,1,K*%
%TO.N,Net-(D14-K)*%
X29773827Y-32666913D03*
%TO.P,D56,2,A*%
%TO.N,Row8*%
X28448001Y-31341087D03*
%TD*%
D29*
%TO.P,C3,1*%
%TO.N,+3V0*%
X85369400Y-56642000D03*
%TO.P,C3,2*%
%TO.N,BUTTON2*%
X85369400Y-58192000D03*
%TD*%
D22*
%TO.P,R13,1*%
%TO.N,Net-(U2-OE_{0})*%
X70226800Y-25269000D03*
%TO.P,R13,2*%
%TO.N,+3V0*%
X70226800Y-23619000D03*
%TD*%
D21*
%TO.P,R9,1*%
%TO.N,Net-(D16-K)*%
X58675000Y-25400000D03*
%TO.P,R9,2*%
%TO.N,Col8*%
X60325000Y-25400000D03*
%TD*%
%TO.P,R2,1*%
%TO.N,Net-(D1-K)*%
X58675000Y-52070000D03*
%TO.P,R2,2*%
%TO.N,Col1*%
X60325000Y-52070000D03*
%TD*%
D16*
%TO.P,D27,1,K*%
%TO.N,Net-(D11-K)*%
X44604913Y-44196000D03*
%TO.P,D27,2,A*%
%TO.N,Row4*%
X43279087Y-42870174D03*
%TD*%
%TO.P,D55,1,K*%
%TO.N,Net-(D14-K)*%
X33528001Y-32611087D03*
%TO.P,D55,2,A*%
%TO.N,Row7*%
X32202175Y-31285261D03*
%TD*%
%TO.P,D5,1,K*%
%TO.N,Net-(D13-K)*%
X56217739Y-36548087D03*
%TO.P,D5,2,A*%
%TO.N,Row1*%
X54891913Y-35222261D03*
%TD*%
%TO.P,D63,1,K*%
%TO.N,Net-(D16-K)*%
X33428913Y-25046913D03*
%TO.P,D63,2,A*%
%TO.N,Row7*%
X32103087Y-23721087D03*
%TD*%
D21*
%TO.P,R5,1*%
%TO.N,Net-(D12-K)*%
X58675000Y-40640000D03*
%TO.P,R5,2*%
%TO.N,Col4*%
X60325000Y-40640000D03*
%TD*%
D16*
%TO.P,D9,1,K*%
%TO.N,Net-(D1-K)*%
X52506826Y-51689000D03*
%TO.P,D9,2,A*%
%TO.N,Row2*%
X51181000Y-50363174D03*
%TD*%
D30*
%TO.P,U2,1,A0*%
%TO.N,A0*%
X69226799Y-30193998D03*
%TO.P,U2,2,A1*%
%TO.N,A1*%
X69226799Y-29693999D03*
%TO.P,U2,3,A2*%
%TO.N,A2*%
X69226799Y-29193997D03*
%TO.P,U2,4,~{LE}*%
%TO.N,Net-(U2-~{LE})*%
X69226799Y-28693998D03*
%TO.P,U2,5,~{OE}_{1}*%
%TO.N,Net-(U2-~{OE}_{1})*%
X69226799Y-28193996D03*
%TO.P,U2,6,OE_{0}*%
%TO.N,Net-(U2-OE_{0})*%
X69226799Y-27693998D03*
%TO.P,U2,7,Y7*%
%TO.N,Row8*%
X69226799Y-27193999D03*
%TO.P,U2,8,GND*%
%TO.N,GND*%
X69226799Y-26694000D03*
%TO.P,U2,9,Y6*%
%TO.N,Row7*%
X66226800Y-26694000D03*
%TO.P,U2,10,Y5*%
%TO.N,Row6*%
X66226800Y-27193999D03*
%TO.P,U2,11,Y4*%
%TO.N,Row5*%
X66226800Y-27694000D03*
%TO.P,U2,12,Y3*%
%TO.N,Row4*%
X66226800Y-28193999D03*
%TO.P,U2,13,Y2*%
%TO.N,Row3*%
X66226800Y-28694001D03*
%TO.P,U2,14,Y1*%
%TO.N,Row2*%
X66226800Y-29194000D03*
%TO.P,U2,15,Y0*%
%TO.N,Row1*%
X66226800Y-29693999D03*
%TO.P,U2,16,VCC*%
%TO.N,+3V0*%
X66226800Y-30194000D03*
%TD*%
D16*
%TO.P,D6,1,K*%
%TO.N,Net-(D14-K)*%
X56344739Y-32611087D03*
%TO.P,D6,2,A*%
%TO.N,Row1*%
X55018913Y-31285261D03*
%TD*%
%TO.P,D49,1,K*%
%TO.N,Net-(D13-K)*%
X41148001Y-36421087D03*
%TO.P,D49,2,A*%
%TO.N,Row5*%
X39822175Y-35095261D03*
%TD*%
%TO.P,D8,1,K*%
%TO.N,Net-(D16-K)*%
X56288912Y-24892000D03*
%TO.P,D8,2,A*%
%TO.N,Row1*%
X54963086Y-23566174D03*
%TD*%
D31*
%TO.N,Row1*%
X53975000Y-34290000D03*
X53975000Y-30226000D03*
X53975000Y-49403000D03*
X53975000Y-38100000D03*
X53975000Y-41910000D03*
X53975000Y-45593000D03*
X53975000Y-26543000D03*
X53975000Y-22733000D03*
%TO.N,Row2*%
X50165000Y-34417000D03*
X50165000Y-42037000D03*
X50165000Y-26670000D03*
X50165000Y-30353000D03*
X50292000Y-38227000D03*
X50165000Y-49530000D03*
X50292000Y-45720000D03*
X50165000Y-22860000D03*
%TO.N,Row3*%
X46355000Y-45593000D03*
X46355000Y-38100000D03*
X46355000Y-30226000D03*
X46355000Y-22733000D03*
X46355000Y-49403000D03*
X46355000Y-34290000D03*
X46355000Y-41910000D03*
X46355000Y-26543000D03*
%TO.N,Row4*%
X42545000Y-41910000D03*
X42545000Y-22733000D03*
X42545000Y-49403000D03*
X42545000Y-45593000D03*
X42545000Y-26543000D03*
X42545000Y-38100000D03*
X42545000Y-34290000D03*
X42545000Y-30226000D03*
%TO.N,Row5*%
X38608000Y-38100000D03*
X38608000Y-41910000D03*
X38608000Y-34290000D03*
X38608000Y-30226000D03*
X38608000Y-26543000D03*
X38608000Y-22733000D03*
X38608000Y-45593000D03*
X38608000Y-49403000D03*
%TO.N,Row6*%
X34925000Y-34417000D03*
X34925000Y-22860000D03*
X34925000Y-38227000D03*
X34925000Y-49530000D03*
X34925000Y-26670000D03*
X34925000Y-42037000D03*
X34925000Y-45720000D03*
X34925000Y-30353000D03*
%TO.N,Row7*%
X30988000Y-42164000D03*
X30988000Y-26797000D03*
X30988000Y-34544000D03*
X30988000Y-22987000D03*
X30988000Y-45847000D03*
X30988000Y-38354000D03*
X30988000Y-30480000D03*
X30988000Y-49657000D03*
%TO.N,Row8*%
X27432000Y-30353000D03*
X27432000Y-49530000D03*
X27432000Y-22860000D03*
X27432000Y-38227000D03*
X27432000Y-42037000D03*
X27432000Y-45720000D03*
X27432000Y-26670000D03*
X27432000Y-34417000D03*
%TO.N,+3V0*%
X64566800Y-51816000D03*
X65626800Y-31242000D03*
X70226800Y-22194000D03*
X106926800Y-41294000D03*
X106726800Y-25894000D03*
X106726800Y-28894000D03*
X106926800Y-38294000D03*
%TO.N,GND*%
X69026800Y-51308000D03*
X88792800Y-55874000D03*
X68726800Y-25694000D03*
X73726800Y-22444000D03*
X68292800Y-32294000D03*
%TO.N,RESET*%
X74226800Y-54094000D03*
%TO.N,Col7*%
X61726800Y-29194000D03*
X70408800Y-54794000D03*
%TO.N,Col8*%
X61726800Y-25394000D03*
X69526800Y-53694000D03*
%TO.N,BUTTON*%
X62788800Y-49784000D03*
X86410800Y-52451000D03*
%TO.N,BUTTON2*%
X73888600Y-59359800D03*
X86360000Y-59359800D03*
%TO.N,SW_DIO*%
X64626800Y-54794000D03*
%TO.N,SW_CLK*%
X70916800Y-57404000D03*
%TD*%
D32*
%TO.N,Net-(D1-K)*%
X49021999Y-52070000D02*
X45211999Y-52070000D01*
X29971999Y-52070000D02*
X29590999Y-51689000D01*
X37591999Y-52070000D02*
X33781999Y-52070000D01*
X45211999Y-52070000D02*
X41401999Y-52070000D01*
X37591999Y-52070000D02*
X37238912Y-51716913D01*
X56642000Y-52070000D02*
X52887826Y-52070000D01*
X41401999Y-52070000D02*
X37591999Y-52070000D01*
X52887826Y-52070000D02*
X49021999Y-52070000D01*
X33781999Y-52070000D02*
X33428912Y-51716913D01*
X52887826Y-52070000D02*
X52506826Y-51689000D01*
X56642000Y-52070000D02*
X56288913Y-51716913D01*
X49021999Y-52070000D02*
X48668912Y-51716913D01*
X45211999Y-52070000D02*
X44858912Y-51716913D01*
X33781999Y-52070000D02*
X29971999Y-52070000D01*
X41401999Y-52070000D02*
X41020999Y-51689000D01*
X58675000Y-52070000D02*
X56642000Y-52070000D01*
D33*
%TO.N,Row1*%
X64744406Y-29645000D02*
X64745820Y-29645000D01*
D32*
X54808174Y-23566174D02*
X53975000Y-22733000D01*
X54907261Y-27475261D02*
X53975000Y-26543000D01*
D33*
X63125800Y-28026394D02*
X64744406Y-29645000D01*
D32*
X54891913Y-35206913D02*
X53975000Y-34290000D01*
D33*
X64745820Y-29645000D02*
X64794819Y-29693999D01*
D32*
X54737000Y-42672000D02*
X53975000Y-41910000D01*
X54737000Y-42842261D02*
X54737000Y-42672000D01*
D33*
X64794819Y-29693999D02*
X66226800Y-29693999D01*
D32*
X54935174Y-27475261D02*
X54907261Y-27475261D01*
X54963087Y-46525261D02*
X54907261Y-46525261D01*
X54891913Y-35222261D02*
X54891913Y-35206913D01*
D33*
X63125800Y-24807000D02*
X63125800Y-28026394D01*
X60772900Y-22454100D02*
X63125800Y-24807000D01*
D32*
X55018913Y-31285261D02*
X55018913Y-31269913D01*
X54991000Y-38933174D02*
X54808174Y-38933174D01*
D33*
X54253900Y-22454100D02*
X60772900Y-22454100D01*
D32*
X54963087Y-50391087D02*
X53975000Y-49403000D01*
X54907261Y-46525261D02*
X53975000Y-45593000D01*
X55018913Y-31269913D02*
X53975000Y-30226000D01*
X54963086Y-23566174D02*
X54808174Y-23566174D01*
X54808174Y-38933174D02*
X53975000Y-38100000D01*
D33*
X53975000Y-22733000D02*
X54253900Y-22454100D01*
D32*
%TO.N,Net-(D10-K)*%
X41402000Y-48260000D02*
X41048913Y-47906913D01*
X56697826Y-48260000D02*
X52887826Y-48260000D01*
X56697826Y-48260000D02*
X56288913Y-47851087D01*
X52887826Y-48260000D02*
X52478913Y-47851087D01*
X33782000Y-48260000D02*
X33428913Y-47906913D01*
X37592000Y-48260000D02*
X37238913Y-47906913D01*
X49022000Y-48260000D02*
X45212000Y-48260000D01*
X33782000Y-48260000D02*
X29972000Y-48260000D01*
X37592000Y-48260000D02*
X33782000Y-48260000D01*
X45212000Y-48260000D02*
X41402000Y-48260000D01*
X58675000Y-48260000D02*
X56697826Y-48260000D01*
X29972000Y-48260000D02*
X29618913Y-47906913D01*
X41402000Y-48260000D02*
X37592000Y-48260000D01*
X45212000Y-48260000D02*
X44831000Y-47879000D01*
X52887826Y-48260000D02*
X49022000Y-48260000D01*
X49022000Y-48260000D02*
X48641000Y-47879000D01*
%TO.N,Net-(D11-K)*%
X42545000Y-44450000D02*
X38735000Y-44450000D01*
X49530000Y-44450000D02*
X45720000Y-44450000D01*
X52478913Y-44450000D02*
X52224913Y-44196000D01*
X34290000Y-44450000D02*
X29972000Y-44450000D01*
X49530000Y-44450000D02*
X48668913Y-44450000D01*
X53340000Y-44450000D02*
X49530000Y-44450000D01*
X41402000Y-44450000D02*
X41048913Y-44096913D01*
X38735000Y-44450000D02*
X37592000Y-44450000D01*
X29972000Y-44450000D02*
X29646826Y-44124826D01*
X56344739Y-44450000D02*
X53340000Y-44450000D01*
X53340000Y-44450000D02*
X52478913Y-44450000D01*
X45720000Y-44450000D02*
X42545000Y-44450000D01*
X38735000Y-44450000D02*
X34290000Y-44450000D01*
X45720000Y-44450000D02*
X44858913Y-44450000D01*
X56344739Y-44450000D02*
X56062826Y-44168087D01*
X37592000Y-44450000D02*
X37266826Y-44124826D01*
X33782000Y-44450000D02*
X33456826Y-44124826D01*
X42545000Y-44450000D02*
X41402000Y-44450000D01*
X34290000Y-44450000D02*
X33782000Y-44450000D01*
X48668913Y-44450000D02*
X48414913Y-44196000D01*
X58675000Y-44450000D02*
X56344739Y-44450000D01*
X44858913Y-44450000D02*
X44604913Y-44196000D01*
%TO.N,Net-(D12-K)*%
X41402000Y-40640000D02*
X41076826Y-40314826D01*
X29972000Y-40640000D02*
X29618913Y-40286913D01*
X49530000Y-40640000D02*
X45720000Y-40640000D01*
X38100000Y-40640000D02*
X37592000Y-40640000D01*
X45720000Y-40640000D02*
X45212000Y-40640000D01*
X53975000Y-40640000D02*
X49530000Y-40640000D01*
X34290000Y-40640000D02*
X33782000Y-40640000D01*
X41910000Y-40640000D02*
X38100000Y-40640000D01*
X45720000Y-40640000D02*
X41910000Y-40640000D01*
X52887826Y-40640000D02*
X52506826Y-40259000D01*
X57150000Y-40640000D02*
X53975000Y-40640000D01*
X41910000Y-40640000D02*
X41402000Y-40640000D01*
X33782000Y-40640000D02*
X33428913Y-40286913D01*
X56697826Y-40640000D02*
X56316826Y-40259000D01*
X49530000Y-40640000D02*
X49022000Y-40640000D01*
X38100000Y-40640000D02*
X34290000Y-40640000D01*
X45212000Y-40640000D02*
X44858913Y-40286913D01*
X57150000Y-40640000D02*
X56697826Y-40640000D01*
X34290000Y-40640000D02*
X29972000Y-40640000D01*
X53975000Y-40640000D02*
X52887826Y-40640000D01*
X58675000Y-40640000D02*
X57150000Y-40640000D01*
X37592000Y-40640000D02*
X37238913Y-40286913D01*
X49022000Y-40640000D02*
X48668913Y-40286913D01*
%TO.N,Net-(D13-K)*%
X49530000Y-36830000D02*
X46355000Y-36830000D01*
X34925000Y-36830000D02*
X29972000Y-36830000D01*
X34925000Y-36830000D02*
X33782000Y-36830000D01*
X53340000Y-36830000D02*
X52689652Y-36830000D01*
X52689652Y-36830000D02*
X52407739Y-36548087D01*
X37592000Y-36830000D02*
X37238913Y-36476913D01*
X41402000Y-36830000D02*
X41048913Y-36476913D01*
X41910000Y-36830000D02*
X38735000Y-36830000D01*
X46355000Y-36830000D02*
X44958000Y-36830000D01*
X48823826Y-36830000D02*
X48569826Y-36576000D01*
X56499652Y-36830000D02*
X56217739Y-36548087D01*
X46355000Y-36830000D02*
X41910000Y-36830000D01*
X57150000Y-36830000D02*
X56499652Y-36830000D01*
X29972000Y-36830000D02*
X29618913Y-36476913D01*
X41910000Y-36830000D02*
X41402000Y-36830000D01*
X38735000Y-36830000D02*
X34925000Y-36830000D01*
X53340000Y-36830000D02*
X49530000Y-36830000D01*
X44958000Y-36830000D02*
X44731913Y-36603913D01*
X58675000Y-36830000D02*
X57150000Y-36830000D01*
X38735000Y-36830000D02*
X37592000Y-36830000D01*
X49530000Y-36830000D02*
X48823826Y-36830000D01*
X33782000Y-36830000D02*
X33428913Y-36476913D01*
X57150000Y-36830000D02*
X53340000Y-36830000D01*
%TO.N,Net-(D14-K)*%
X46355000Y-33020000D02*
X45267826Y-33020000D01*
X52943652Y-33020000D02*
X52534739Y-32611087D01*
X41402000Y-33020000D02*
X41104739Y-32722739D01*
X53975000Y-33020000D02*
X52943652Y-33020000D01*
X58675000Y-33020000D02*
X57785000Y-33020000D01*
X38735000Y-33020000D02*
X37592000Y-33020000D01*
X43180000Y-33020000D02*
X38735000Y-33020000D01*
X34290000Y-33020000D02*
X33782000Y-33020000D01*
X34290000Y-33020000D02*
X29972000Y-33020000D01*
X38735000Y-33020000D02*
X34290000Y-33020000D01*
X29972000Y-33020000D02*
X29618913Y-32666913D01*
X50800000Y-33020000D02*
X49022000Y-33020000D01*
X45267826Y-33020000D02*
X44886826Y-32639000D01*
X56753652Y-33020000D02*
X56344739Y-32611087D01*
X50800000Y-33020000D02*
X46355000Y-33020000D01*
X46355000Y-33020000D02*
X43180000Y-33020000D01*
X33782000Y-33020000D02*
X33428913Y-32666913D01*
X53975000Y-33020000D02*
X50800000Y-33020000D01*
X57785000Y-33020000D02*
X56753652Y-33020000D01*
X43180000Y-33020000D02*
X41402000Y-33020000D01*
X49022000Y-33020000D02*
X48668913Y-32666913D01*
X57785000Y-33020000D02*
X53975000Y-33020000D01*
X37592000Y-33020000D02*
X37238913Y-32666913D01*
%TO.N,Net-(D15-K)*%
X45184086Y-29210000D02*
X44803086Y-28829000D01*
X29944086Y-29210000D02*
X29618912Y-28884826D01*
X42545000Y-29210000D02*
X38735000Y-29210000D01*
X53975000Y-29210000D02*
X49530000Y-29210000D01*
X49530000Y-29210000D02*
X48994086Y-29210000D01*
X38735000Y-29210000D02*
X37564086Y-29210000D01*
X57150000Y-29210000D02*
X56669913Y-29210000D01*
X49530000Y-29210000D02*
X46355000Y-29210000D01*
X33754086Y-29210000D02*
X33428912Y-28884826D01*
X34925000Y-29210000D02*
X29944086Y-29210000D01*
X38735000Y-29210000D02*
X34925000Y-29210000D01*
X46355000Y-29210000D02*
X42545000Y-29210000D01*
X37564086Y-29210000D02*
X37238912Y-28884826D01*
X58675000Y-29210000D02*
X57150000Y-29210000D01*
X48994086Y-29210000D02*
X48613086Y-28829000D01*
X52859912Y-29210000D02*
X52450999Y-28801087D01*
X53975000Y-29210000D02*
X52859912Y-29210000D01*
X56669913Y-29210000D02*
X56261000Y-28801087D01*
X42545000Y-29210000D02*
X41374086Y-29210000D01*
X41374086Y-29210000D02*
X41048912Y-28884826D01*
X57150000Y-29210000D02*
X53975000Y-29210000D01*
X34925000Y-29210000D02*
X33754086Y-29210000D01*
X46355000Y-29210000D02*
X45184086Y-29210000D01*
%TO.N,Net-(D16-K)*%
X37437086Y-25400000D02*
X37139825Y-25102739D01*
X46990000Y-25400000D02*
X42545000Y-25400000D01*
X58675000Y-25400000D02*
X57785000Y-25400000D01*
X49121086Y-25400000D02*
X48640999Y-24919913D01*
X57785000Y-25400000D02*
X53975000Y-25400000D01*
X42545000Y-25400000D02*
X38100000Y-25400000D01*
X34925000Y-25400000D02*
X29817086Y-25400000D01*
X42545000Y-25400000D02*
X41247086Y-25400000D01*
X50165000Y-25400000D02*
X46990000Y-25400000D01*
X45311086Y-25400000D02*
X44830999Y-24919913D01*
X41247086Y-25400000D02*
X40949825Y-25102739D01*
X52931086Y-25400000D02*
X52450999Y-24919913D01*
X38100000Y-25400000D02*
X37437086Y-25400000D01*
X56796912Y-25400000D02*
X56288912Y-24892000D01*
X33627086Y-25400000D02*
X33329825Y-25102739D01*
X57785000Y-25400000D02*
X56796912Y-25400000D01*
X38100000Y-25400000D02*
X34925000Y-25400000D01*
X50165000Y-25400000D02*
X49121086Y-25400000D01*
X53975000Y-25400000D02*
X50165000Y-25400000D01*
X34925000Y-25400000D02*
X33627086Y-25400000D01*
X53975000Y-25400000D02*
X52931086Y-25400000D01*
X29817086Y-25400000D02*
X29519825Y-25102739D01*
X46990000Y-25400000D02*
X45311086Y-25400000D01*
%TO.N,Row2*%
X51181000Y-38933174D02*
X50998174Y-38933174D01*
X50998174Y-50363174D02*
X50165000Y-49530000D01*
X50970261Y-27475261D02*
X50165000Y-26670000D01*
D33*
X66226800Y-29194000D02*
X64931216Y-29194000D01*
X61021900Y-22003100D02*
X51021900Y-22003100D01*
D32*
X51097261Y-31285261D02*
X50165000Y-30353000D01*
D33*
X63576800Y-27839584D02*
X63576800Y-24558000D01*
X64931216Y-29194000D02*
X63576800Y-27839584D01*
D32*
X50899087Y-42771087D02*
X50165000Y-42037000D01*
X50970261Y-35222261D02*
X50165000Y-34417000D01*
X51208913Y-31285261D02*
X51097261Y-31285261D01*
X50899087Y-23594087D02*
X50165000Y-22860000D01*
X51125173Y-23594087D02*
X50899087Y-23594087D01*
X50998174Y-38933174D02*
X50292000Y-38227000D01*
X51125173Y-27475261D02*
X50970261Y-27475261D01*
D33*
X63576800Y-24558000D02*
X61021900Y-22003100D01*
D32*
X51181000Y-50363174D02*
X50998174Y-50363174D01*
D33*
X51021900Y-22003100D02*
X50165000Y-22860000D01*
D32*
X51153087Y-46525261D02*
X51097261Y-46525261D01*
X51097261Y-46525261D02*
X50292000Y-45720000D01*
X50899087Y-42870174D02*
X50899087Y-42771087D01*
X51081913Y-35222261D02*
X50970261Y-35222261D01*
%TO.N,Row3*%
X47216087Y-38961087D02*
X46355000Y-38100000D01*
X47343087Y-38961087D02*
X47216087Y-38961087D01*
X47315174Y-46553174D02*
X46355000Y-45593000D01*
D33*
X47535900Y-21552100D02*
X46355000Y-22733000D01*
D32*
X47343086Y-50391086D02*
X46355000Y-49403000D01*
X47216087Y-23594087D02*
X46355000Y-22733000D01*
X47287260Y-27475260D02*
X46355000Y-26543000D01*
X47089087Y-42644087D02*
X46355000Y-41910000D01*
X47244000Y-35179000D02*
X46355000Y-34290000D01*
X47343087Y-31341087D02*
X47343087Y-31214087D01*
X47287260Y-27503174D02*
X47287260Y-27475260D01*
X47315173Y-23594087D02*
X47216087Y-23594087D01*
D33*
X64026800Y-27653188D02*
X64026800Y-24328000D01*
X66226800Y-28694001D02*
X65067613Y-28694001D01*
D32*
X47244000Y-35250174D02*
X47244000Y-35179000D01*
D33*
X65067613Y-28694001D02*
X64026800Y-27653188D01*
D32*
X47089087Y-42870174D02*
X47089087Y-42644087D01*
D33*
X64026800Y-24328000D02*
X61250900Y-21552100D01*
D32*
X47343087Y-31214087D02*
X46355000Y-30226000D01*
D33*
X61250900Y-21552100D02*
X47535900Y-21552100D01*
D32*
X47343086Y-50391087D02*
X47343086Y-50391086D01*
%TO.N,Row4*%
X43561000Y-31242000D02*
X42545000Y-30226000D01*
X43505173Y-23594087D02*
X43406087Y-23594087D01*
X43406087Y-35151087D02*
X42545000Y-34290000D01*
X43477260Y-27475260D02*
X42545000Y-26543000D01*
X43477260Y-27503174D02*
X43477260Y-27475260D01*
D33*
X61549900Y-21101100D02*
X43319700Y-21101100D01*
D32*
X43533087Y-38961087D02*
X43406087Y-38961087D01*
D33*
X43319700Y-21101100D02*
X42545000Y-21875800D01*
D32*
X43561000Y-31313174D02*
X43561000Y-31242000D01*
X43406087Y-38961087D02*
X42545000Y-38100000D01*
X43406087Y-35278087D02*
X43406087Y-35151087D01*
X43533086Y-50391086D02*
X42545000Y-49403000D01*
D33*
X64476800Y-24028000D02*
X61549900Y-21101100D01*
D32*
X43406087Y-23594087D02*
X42545000Y-22733000D01*
X43533086Y-50391087D02*
X43533086Y-50391086D01*
X43505174Y-46553174D02*
X42545000Y-45593000D01*
D33*
X65204007Y-28193999D02*
X64476800Y-27466792D01*
D32*
X43279087Y-42644087D02*
X42545000Y-41910000D01*
X43279087Y-42870174D02*
X43279087Y-42644087D01*
D33*
X64476800Y-27466792D02*
X64476800Y-24028000D01*
X66226800Y-28193999D02*
X65204007Y-28193999D01*
X42545000Y-21875800D02*
X42545000Y-22733000D01*
D32*
%TO.N,Row5*%
X39850088Y-42743174D02*
X39441174Y-42743174D01*
X39723087Y-23721087D02*
X39596087Y-23721087D01*
D33*
X64926800Y-23828000D02*
X61748900Y-20650100D01*
D32*
X39822175Y-35095261D02*
X39413261Y-35095261D01*
X39822175Y-31285261D02*
X39667261Y-31285261D01*
D33*
X64926800Y-27280396D02*
X64926800Y-23828000D01*
D32*
X39596087Y-23721087D02*
X38608000Y-22733000D01*
X39540261Y-46525261D02*
X38608000Y-45593000D01*
X39441174Y-42743174D02*
X38608000Y-41910000D01*
D33*
X39770700Y-20650100D02*
X38608000Y-21812800D01*
D32*
X39794261Y-50307348D02*
X39512348Y-50307348D01*
D33*
X38608000Y-21812800D02*
X38608000Y-22733000D01*
X61748900Y-20650100D02*
X39770700Y-20650100D01*
X65340404Y-27694000D02*
X64926800Y-27280396D01*
D32*
X39822174Y-27503174D02*
X39568174Y-27503174D01*
X39512348Y-50307348D02*
X38608000Y-49403000D01*
D33*
X66226800Y-27694000D02*
X65340404Y-27694000D01*
D32*
X39667261Y-31285261D02*
X38608000Y-30226000D01*
X39822175Y-46525261D02*
X39540261Y-46525261D01*
X39413261Y-38905261D02*
X38608000Y-38100000D01*
X39822175Y-38905261D02*
X39413261Y-38905261D01*
X39413261Y-35095261D02*
X38608000Y-34290000D01*
X39568174Y-27503174D02*
X38608000Y-26543000D01*
%TO.N,Row6*%
X35758174Y-27503174D02*
X34925000Y-26670000D01*
X36012175Y-46525261D02*
X35730261Y-46525261D01*
D33*
X62047900Y-20199100D02*
X36221700Y-20199100D01*
D32*
X35730261Y-50335261D02*
X34925000Y-49530000D01*
X35730261Y-46525261D02*
X34925000Y-45720000D01*
X35631174Y-42743174D02*
X34925000Y-42037000D01*
X35857261Y-31285261D02*
X34925000Y-30353000D01*
D33*
X34976800Y-22808200D02*
X34925000Y-22860000D01*
D32*
X36012174Y-50335261D02*
X35730261Y-50335261D01*
X36012175Y-31285261D02*
X35857261Y-31285261D01*
D33*
X34976800Y-21444000D02*
X34976800Y-22808200D01*
X66226800Y-27193999D02*
X65476800Y-27194000D01*
X65376800Y-23528000D02*
X62047900Y-20199100D01*
D32*
X36040088Y-42743174D02*
X35631174Y-42743174D01*
X35786087Y-23721087D02*
X34925000Y-22860000D01*
X36012174Y-27503174D02*
X35758174Y-27503174D01*
X36012175Y-35095261D02*
X35603261Y-35095261D01*
X35603261Y-38905261D02*
X34925000Y-38227000D01*
D33*
X65476800Y-27194000D02*
X65376800Y-27094000D01*
X65376800Y-27094000D02*
X65376800Y-23528000D01*
D32*
X36012175Y-38905261D02*
X35603261Y-38905261D01*
X35913087Y-23721087D02*
X35786087Y-23721087D01*
X35603261Y-35095261D02*
X34925000Y-34417000D01*
D33*
X36221700Y-20199100D02*
X34976800Y-21444000D01*
D32*
%TO.N,Row7*%
X32202175Y-38905261D02*
X31539261Y-38905261D01*
X31722087Y-23721087D02*
X30988000Y-22987000D01*
X31539261Y-38905261D02*
X30988000Y-38354000D01*
D33*
X32422700Y-19748100D02*
X30976800Y-21194000D01*
D32*
X31694174Y-27503174D02*
X30988000Y-26797000D01*
X32202175Y-46525261D02*
X31666261Y-46525261D01*
X32202174Y-50335261D02*
X31666261Y-50335261D01*
X31666261Y-50335261D02*
X30988000Y-49657000D01*
X32230088Y-42743174D02*
X31567174Y-42743174D01*
X32202175Y-35095261D02*
X31539261Y-35095261D01*
X31539261Y-35095261D02*
X30988000Y-34544000D01*
D33*
X66726800Y-26694000D02*
X66976800Y-26444000D01*
X30976800Y-22975800D02*
X30988000Y-22987000D01*
X30976800Y-21194000D02*
X30976800Y-22975800D01*
X66976800Y-26444000D02*
X66976800Y-24490190D01*
D32*
X31666261Y-46525261D02*
X30988000Y-45847000D01*
X32202174Y-27503174D02*
X31694174Y-27503174D01*
X32202175Y-31285261D02*
X31793261Y-31285261D01*
X31567174Y-42743174D02*
X30988000Y-42164000D01*
D33*
X62234710Y-19748100D02*
X32422700Y-19748100D01*
X66226800Y-26694000D02*
X66726800Y-26694000D01*
X66976800Y-24490190D02*
X62234710Y-19748100D01*
D32*
X32103087Y-23721087D02*
X31722087Y-23721087D01*
X31793261Y-31285261D02*
X30988000Y-30480000D01*
%TO.N,Row8*%
X28392175Y-42715261D02*
X28110261Y-42715261D01*
D34*
X28209348Y-50307348D02*
X27432000Y-49530000D01*
X28364261Y-50307348D02*
X28209348Y-50307348D01*
D32*
X28138174Y-38933174D02*
X27432000Y-38227000D01*
D33*
X27432000Y-21134800D02*
X27432000Y-22860000D01*
X69226799Y-27193999D02*
X68012799Y-27193999D01*
X67492800Y-24368380D02*
X62421520Y-19297100D01*
X62421520Y-19297100D02*
X29269700Y-19297100D01*
D32*
X28448001Y-31341087D02*
X28420087Y-31341087D01*
X28392174Y-27503174D02*
X28265174Y-27503174D01*
X28420088Y-38933174D02*
X28138174Y-38933174D01*
D34*
X28293087Y-23721087D02*
X27432000Y-22860000D01*
D32*
X28392175Y-35095261D02*
X28110261Y-35095261D01*
D33*
X29269700Y-19297100D02*
X27432000Y-21134800D01*
D32*
X28392175Y-46525261D02*
X28237261Y-46525261D01*
X28110261Y-35095261D02*
X27432000Y-34417000D01*
X28265174Y-27503174D02*
X27432000Y-26670000D01*
D33*
X68012799Y-27193999D02*
X67492800Y-26674000D01*
X67492800Y-26674000D02*
X67492800Y-24368380D01*
D32*
X28420087Y-31341087D02*
X27432000Y-30353000D01*
X28237261Y-46525261D02*
X27432000Y-45720000D01*
X28110261Y-42715261D02*
X27432000Y-42037000D01*
%TO.N,+3V0*%
X75234800Y-57674000D02*
X75234800Y-56311000D01*
X70916800Y-20828000D02*
X70154800Y-21590000D01*
X75234800Y-56311000D02*
X75251800Y-56294000D01*
X80092800Y-57674000D02*
X75234800Y-57674000D01*
D34*
X72589300Y-52519000D02*
X74151800Y-52519000D01*
D32*
X108908800Y-41294000D02*
X109778800Y-42164000D01*
X106726800Y-25894000D02*
X107732800Y-25894000D01*
D34*
X64566800Y-51816000D02*
X65269800Y-52519000D01*
D32*
X107600800Y-41294000D02*
X109270800Y-39624000D01*
X82000600Y-55766200D02*
X80092800Y-57674000D01*
X70154800Y-21590000D02*
X70226800Y-21662000D01*
D34*
X65269800Y-52519000D02*
X66864300Y-52519000D01*
D32*
X106926800Y-41294000D02*
X107600800Y-41294000D01*
X109778800Y-63754000D02*
X108508800Y-65024000D01*
X107746800Y-20828000D02*
X70916800Y-20828000D01*
X70226800Y-22860000D02*
X70226800Y-23619000D01*
X75234800Y-62230000D02*
X75234800Y-57674000D01*
X109270800Y-22352000D02*
X107746800Y-20828000D01*
D34*
X75251800Y-56294000D02*
X75251800Y-53619000D01*
D32*
X85369400Y-55816800D02*
X85369400Y-55144000D01*
D33*
X66226800Y-30194000D02*
X65526800Y-30194000D01*
D32*
X107940800Y-38294000D02*
X106926800Y-38294000D01*
D34*
X74776800Y-53144000D02*
X75326800Y-53694000D01*
D32*
X65626800Y-31242000D02*
X65626800Y-32294000D01*
X109270800Y-39624000D02*
X109270800Y-27432000D01*
X107732800Y-25894000D02*
X109270800Y-27432000D01*
X106926800Y-41294000D02*
X108908800Y-41294000D01*
X83185000Y-55766200D02*
X82000600Y-55766200D01*
X85369400Y-56642000D02*
X85369400Y-55816800D01*
X70226800Y-22194000D02*
X70226800Y-22860000D01*
X83185000Y-55766200D02*
X83210400Y-55791600D01*
D33*
X75251800Y-53619000D02*
X74776800Y-53144000D01*
D32*
X109270800Y-27432000D02*
X109270800Y-22352000D01*
X83185000Y-55766200D02*
X83185000Y-55092400D01*
X70226800Y-21662000D02*
X70226800Y-22860000D01*
D34*
X66864300Y-52519000D02*
X72589300Y-52519000D01*
D32*
X107808800Y-28894000D02*
X106726800Y-28894000D01*
D33*
X65526800Y-30194000D02*
X65426800Y-30294000D01*
D34*
X75326800Y-53694000D02*
X76001800Y-53694000D01*
D32*
X78028800Y-65024000D02*
X75234800Y-62230000D01*
X109270800Y-27432000D02*
X107808800Y-28894000D01*
X83235600Y-55816800D02*
X83185000Y-55766200D01*
X109270800Y-39624000D02*
X107940800Y-38294000D01*
X83210400Y-55791600D02*
X83210400Y-56617400D01*
D33*
X65426800Y-30294000D02*
X65426800Y-32094000D01*
D32*
X108508800Y-65024000D02*
X78028800Y-65024000D01*
D33*
X65426800Y-32094000D02*
X65626800Y-32294000D01*
D32*
X85369400Y-55816800D02*
X83235600Y-55816800D01*
X109778800Y-42164000D02*
X109778800Y-63754000D01*
D34*
X74151800Y-52519000D02*
X74776800Y-53144000D01*
D32*
%TO.N,GND*%
X80892800Y-48768000D02*
X85394800Y-48768000D01*
X93014800Y-48768000D02*
X93827600Y-47955200D01*
D35*
X76801800Y-56294000D02*
X78392800Y-56294000D01*
D32*
X77816800Y-51844000D02*
X80892800Y-48768000D01*
D35*
X78392800Y-52208000D02*
X78028800Y-51844000D01*
D32*
X68292800Y-32294000D02*
X67176800Y-32294000D01*
D34*
X69026800Y-51308000D02*
X68465800Y-51869000D01*
D32*
X71976800Y-23619000D02*
X73726800Y-23619000D01*
X77451800Y-51844000D02*
X78028800Y-51844000D01*
D36*
X69226799Y-26694000D02*
X68726800Y-26694000D01*
X68726800Y-26694000D02*
X68726800Y-25694000D01*
D32*
X85394800Y-48768000D02*
X93014800Y-48768000D01*
X88792800Y-55874000D02*
X88100600Y-55181800D01*
X87376000Y-56605200D02*
X88061600Y-56605200D01*
D35*
X78392800Y-56294000D02*
X78392800Y-52208000D01*
D32*
X88061600Y-56605200D02*
X88792800Y-55874000D01*
X73726800Y-22444000D02*
X73726800Y-23619000D01*
D34*
X68465800Y-51869000D02*
X66864300Y-51869000D01*
D32*
X77451800Y-51844000D02*
X77816800Y-51844000D01*
X93827600Y-47955200D02*
X93827600Y-46075600D01*
X88100600Y-55181800D02*
X87376000Y-55181800D01*
D34*
%TO.N,RESET*%
X74226800Y-53694000D02*
X74226800Y-54094000D01*
X73701800Y-53169000D02*
X74226800Y-53694000D01*
X72589300Y-53169000D02*
X73701800Y-53169000D01*
D33*
%TO.N,Col1*%
X62402800Y-52070000D02*
X64151800Y-53819000D01*
X60325000Y-52070000D02*
X62402800Y-52070000D01*
X64151800Y-53819000D02*
X66864300Y-53819000D01*
%TO.N,Col2*%
X61772800Y-50490000D02*
X64451800Y-53169000D01*
X61772800Y-48306000D02*
X61772800Y-50490000D01*
X61726800Y-48260000D02*
X61772800Y-48306000D01*
X60325000Y-48260000D02*
X61726800Y-48260000D01*
X64451800Y-53169000D02*
X66864300Y-53169000D01*
%TO.N,Col3*%
X66864300Y-50569000D02*
X65865404Y-50569000D01*
X62782800Y-44450000D02*
X60325000Y-44450000D01*
X65126800Y-49830396D02*
X65126800Y-46794000D01*
X65126800Y-46794000D02*
X62782800Y-44450000D01*
X65865404Y-50569000D02*
X65126800Y-49830396D01*
%TO.N,Col4*%
X65851800Y-49919000D02*
X65576800Y-49644000D01*
X65576800Y-49644000D02*
X65576800Y-43244000D01*
X63026800Y-40694000D02*
X60379000Y-40694000D01*
X65576800Y-43244000D02*
X63026800Y-40694000D01*
X60379000Y-40694000D02*
X60325000Y-40640000D01*
X66864300Y-49919000D02*
X65851800Y-49919000D01*
%TO.N,Col5*%
X63774990Y-36794000D02*
X60361000Y-36794000D01*
X66026800Y-39045810D02*
X63774990Y-36794000D01*
X66026800Y-49194000D02*
X66026800Y-39045810D01*
X60361000Y-36794000D02*
X60325000Y-36830000D01*
X66101800Y-49269000D02*
X66026800Y-49194000D01*
X66864300Y-49269000D02*
X66101800Y-49269000D01*
%TO.N,Col6*%
X60638800Y-33020000D02*
X60325000Y-33020000D01*
X72589300Y-49269000D02*
X73463800Y-49269000D01*
X73463800Y-49269000D02*
X73710800Y-49022000D01*
X73710800Y-49022000D02*
X73710800Y-46092000D01*
X73710800Y-46092000D02*
X60638800Y-33020000D01*
%TO.N,Col7*%
X70408800Y-54794000D02*
X70526800Y-54794000D01*
X70526800Y-54794000D02*
X70826800Y-54494000D01*
D32*
X60325000Y-29210000D02*
X61710800Y-29210000D01*
D33*
X70826800Y-54494000D02*
X72564300Y-54494000D01*
X72564300Y-54494000D02*
X72589300Y-54469000D01*
D32*
X61710800Y-29210000D02*
X61726800Y-29194000D01*
%TO.N,Col8*%
X61720800Y-25400000D02*
X60325000Y-25400000D01*
D33*
X69651800Y-53819000D02*
X72589300Y-53819000D01*
X69526800Y-53694000D02*
X69651800Y-53819000D01*
D32*
X61726800Y-25394000D02*
X61720800Y-25400000D01*
%TO.N,Net-(R10-Pad1)*%
X83185000Y-52806600D02*
X85694600Y-50297000D01*
X85694600Y-50297000D02*
X99897800Y-50297000D01*
X83185000Y-53442400D02*
X83185000Y-52806600D01*
D37*
X106197800Y-50297000D02*
X99897800Y-50297000D01*
D32*
%TO.N,BUTTON*%
X87350600Y-53390800D02*
X86410800Y-52451000D01*
D37*
X106197800Y-54097000D02*
X99897800Y-54097000D01*
D32*
X87350600Y-53506400D02*
X87350600Y-53390800D01*
X97025200Y-53506400D02*
X97615800Y-54097000D01*
D34*
X66864300Y-51219000D02*
X65239800Y-51219000D01*
D32*
X97615800Y-54097000D02*
X99897800Y-54097000D01*
D34*
X65239800Y-51219000D02*
X63804800Y-49784000D01*
X63804800Y-49784000D02*
X62788800Y-49784000D01*
D32*
X85369400Y-53492400D02*
X86410800Y-52451000D01*
X87350600Y-53506400D02*
X97025200Y-53506400D01*
X85369400Y-53543200D02*
X85369400Y-53492400D01*
%TO.N,Net-(R11-Pad1)*%
X85770800Y-61590000D02*
X99796200Y-61590000D01*
X83210400Y-58267400D02*
X83210400Y-59029600D01*
X83210400Y-59029600D02*
X85770800Y-61590000D01*
D37*
X106096200Y-61590000D02*
X99796200Y-61590000D01*
D32*
%TO.N,BUTTON2*%
X87376000Y-58255200D02*
X86487000Y-58255200D01*
X87376000Y-58255200D02*
X97218200Y-58255200D01*
D37*
X106096200Y-57790000D02*
X99796200Y-57790000D01*
D32*
X86360000Y-58382200D02*
X86487000Y-58255200D01*
D33*
X73888600Y-59359800D02*
X73888600Y-55655800D01*
X73888600Y-55655800D02*
X73326800Y-55094000D01*
D32*
X97683400Y-57790000D02*
X99796200Y-57790000D01*
X86360000Y-59359800D02*
X86360000Y-58382200D01*
D33*
X72614300Y-55094000D02*
X72589300Y-55119000D01*
X73326800Y-55094000D02*
X72614300Y-55094000D01*
D32*
X85432600Y-58255200D02*
X85369400Y-58192000D01*
X86487000Y-58255200D02*
X85432600Y-58255200D01*
X97218200Y-58255200D02*
X97683400Y-57790000D01*
D34*
%TO.N,SW_DIO*%
X64951800Y-54469000D02*
X66864300Y-54469000D01*
X64626800Y-54794000D02*
X64951800Y-54469000D01*
%TO.N,SW_CLK*%
X68631800Y-55119000D02*
X70916800Y-57404000D01*
X66864300Y-55119000D02*
X68631800Y-55119000D01*
D36*
%TO.N,CLK*%
X76001800Y-52019000D02*
X75851800Y-51869000D01*
D34*
X75851800Y-51869000D02*
X72589300Y-51869000D01*
D33*
%TO.N,Net-(U2-OE_{0})*%
X69226799Y-27693998D02*
X70226802Y-27693998D01*
X70226802Y-27693998D02*
X70476800Y-27444000D01*
X70476800Y-27444000D02*
X70476800Y-25519000D01*
X70476800Y-25519000D02*
X70226800Y-25269000D01*
%TO.N,Net-(U2-~{OE}_{1})*%
X70476804Y-28193996D02*
X71976800Y-26694000D01*
X69226799Y-28193996D02*
X70476804Y-28193996D01*
X71976800Y-26694000D02*
X71976800Y-25269000D01*
%TO.N,Net-(U2-~{LE})*%
X71976802Y-28693998D02*
X73726800Y-26944000D01*
X69226799Y-28693998D02*
X71976802Y-28693998D01*
X73726800Y-26944000D02*
X73726800Y-25269000D01*
%TO.N,A0*%
X72589300Y-51219000D02*
X74601800Y-51219000D01*
X75018800Y-30193998D02*
X69226799Y-30193998D01*
X75126800Y-30301998D02*
X75018800Y-30193998D01*
X74601800Y-51219000D02*
X75126800Y-50694000D01*
X75126800Y-50694000D02*
X75126800Y-30301998D01*
%TO.N,A1*%
X74351800Y-50569000D02*
X74676800Y-50244000D01*
X72589300Y-50569000D02*
X74351800Y-50569000D01*
X68401799Y-29693999D02*
X69226799Y-29693999D01*
X74676800Y-50244000D02*
X74676800Y-30668997D01*
X68376799Y-29718999D02*
X68401799Y-29693999D01*
X68376799Y-30668997D02*
X68376799Y-29718999D01*
X74676800Y-30668997D02*
X68376799Y-30668997D01*
%TO.N,A2*%
X68265405Y-29193997D02*
X69226799Y-29193997D01*
X74226800Y-49694000D02*
X74226800Y-31194000D01*
X67926799Y-29532603D02*
X68265405Y-29193997D01*
X67926799Y-30855393D02*
X67926799Y-29532603D01*
X74226800Y-31194000D02*
X68265406Y-31194000D01*
X74026800Y-49894000D02*
X74226800Y-49694000D01*
X68265406Y-31194000D02*
X67926799Y-30855393D01*
X72614300Y-49894000D02*
X74026800Y-49894000D01*
X72589300Y-49919000D02*
X72614300Y-49894000D01*
%TD*%
%TA.AperFunction,Conductor*%
%TO.N,+3V0*%
G36*
X107639039Y-24943683D02*
G01*
X107684794Y-24996487D01*
X107696000Y-25047998D01*
X107696000Y-29721000D01*
X107676315Y-29788039D01*
X107623511Y-29833794D01*
X107572000Y-29845000D01*
X104241600Y-29845000D01*
X104267000Y-29819600D01*
X104267000Y-27392438D01*
X104499900Y-27392438D01*
X104499900Y-27471562D01*
X104513552Y-27522513D01*
X104520379Y-27547990D01*
X104520382Y-27547995D01*
X104559935Y-27616504D01*
X104559939Y-27616509D01*
X104559940Y-27616511D01*
X104615889Y-27672460D01*
X104615891Y-27672461D01*
X104615895Y-27672464D01*
X104684404Y-27712017D01*
X104684411Y-27712021D01*
X104760838Y-27732500D01*
X105518900Y-27732500D01*
X105585939Y-27752185D01*
X105631694Y-27804989D01*
X105642900Y-27856500D01*
X105642900Y-28614562D01*
X105656552Y-28665513D01*
X105663379Y-28690990D01*
X105663382Y-28690995D01*
X105702935Y-28759504D01*
X105702939Y-28759509D01*
X105702940Y-28759511D01*
X105758889Y-28815460D01*
X105758891Y-28815461D01*
X105758895Y-28815464D01*
X105827404Y-28855017D01*
X105827411Y-28855021D01*
X105903838Y-28875500D01*
X105903840Y-28875500D01*
X105982960Y-28875500D01*
X105982962Y-28875500D01*
X106059389Y-28855021D01*
X106127911Y-28815460D01*
X106183860Y-28759511D01*
X106223421Y-28690989D01*
X106243900Y-28614562D01*
X106243900Y-27856500D01*
X106263585Y-27789461D01*
X106316389Y-27743706D01*
X106367900Y-27732500D01*
X107125960Y-27732500D01*
X107125962Y-27732500D01*
X107202389Y-27712021D01*
X107270911Y-27672460D01*
X107326860Y-27616511D01*
X107366421Y-27547989D01*
X107386900Y-27471562D01*
X107386900Y-27392438D01*
X107366421Y-27316011D01*
X107366417Y-27316004D01*
X107326864Y-27247495D01*
X107326858Y-27247487D01*
X107270912Y-27191541D01*
X107270904Y-27191535D01*
X107202395Y-27151982D01*
X107202390Y-27151979D01*
X107176913Y-27145152D01*
X107125962Y-27131500D01*
X107125960Y-27131500D01*
X106367900Y-27131500D01*
X106300861Y-27111815D01*
X106255106Y-27059011D01*
X106243900Y-27007500D01*
X106243900Y-26249439D01*
X106223420Y-26173009D01*
X106223417Y-26173004D01*
X106183864Y-26104495D01*
X106183858Y-26104487D01*
X106127912Y-26048541D01*
X106127904Y-26048535D01*
X106059395Y-26008982D01*
X106059390Y-26008979D01*
X106033913Y-26002152D01*
X105982962Y-25988500D01*
X105903838Y-25988500D01*
X105865624Y-25998739D01*
X105827409Y-26008979D01*
X105827404Y-26008982D01*
X105758895Y-26048535D01*
X105758887Y-26048541D01*
X105702941Y-26104487D01*
X105702935Y-26104495D01*
X105663382Y-26173004D01*
X105663379Y-26173009D01*
X105642900Y-26249439D01*
X105642900Y-27007500D01*
X105623215Y-27074539D01*
X105570411Y-27120294D01*
X105518900Y-27131500D01*
X104760838Y-27131500D01*
X104722624Y-27141739D01*
X104684409Y-27151979D01*
X104684404Y-27151982D01*
X104615895Y-27191535D01*
X104615887Y-27191541D01*
X104559941Y-27247487D01*
X104559935Y-27247495D01*
X104520382Y-27316004D01*
X104520379Y-27316009D01*
X104506726Y-27366962D01*
X104499900Y-27392438D01*
X104267000Y-27392438D01*
X104267000Y-24962798D01*
X104228200Y-24923998D01*
X107572000Y-24923998D01*
X107639039Y-24943683D01*
G37*
%TD.AperFunction*%
%TD*%
%TA.AperFunction,Conductor*%
%TO.N,+3V0*%
G36*
X107639039Y-37357685D02*
G01*
X107684794Y-37410489D01*
X107696000Y-37462000D01*
X107696000Y-42090800D01*
X107676315Y-42157839D01*
X107623511Y-42203594D01*
X107572000Y-42214800D01*
X103073762Y-42214800D01*
X103044321Y-42206155D01*
X103014335Y-42199632D01*
X103009319Y-42195877D01*
X103006723Y-42195115D01*
X102986081Y-42178481D01*
X102906319Y-42098719D01*
X102872834Y-42037396D01*
X102870000Y-42011038D01*
X102870000Y-39736838D01*
X104499900Y-39736838D01*
X104499900Y-39815962D01*
X104513552Y-39866913D01*
X104520379Y-39892390D01*
X104520382Y-39892395D01*
X104559935Y-39960904D01*
X104559939Y-39960909D01*
X104559940Y-39960911D01*
X104615889Y-40016860D01*
X104615891Y-40016861D01*
X104615895Y-40016864D01*
X104684404Y-40056417D01*
X104684411Y-40056421D01*
X104760838Y-40076900D01*
X105518900Y-40076900D01*
X105585939Y-40096585D01*
X105631694Y-40149389D01*
X105642900Y-40200900D01*
X105642900Y-40958962D01*
X105656552Y-41009913D01*
X105663379Y-41035390D01*
X105663382Y-41035395D01*
X105702935Y-41103904D01*
X105702939Y-41103909D01*
X105702940Y-41103911D01*
X105758889Y-41159860D01*
X105758891Y-41159861D01*
X105758895Y-41159864D01*
X105827404Y-41199417D01*
X105827411Y-41199421D01*
X105903838Y-41219900D01*
X105903840Y-41219900D01*
X105982960Y-41219900D01*
X105982962Y-41219900D01*
X106059389Y-41199421D01*
X106127911Y-41159860D01*
X106183860Y-41103911D01*
X106223421Y-41035389D01*
X106243900Y-40958962D01*
X106243900Y-40200900D01*
X106263585Y-40133861D01*
X106316389Y-40088106D01*
X106367900Y-40076900D01*
X107125960Y-40076900D01*
X107125962Y-40076900D01*
X107202389Y-40056421D01*
X107270911Y-40016860D01*
X107326860Y-39960911D01*
X107366421Y-39892389D01*
X107386900Y-39815962D01*
X107386900Y-39736838D01*
X107366421Y-39660411D01*
X107366417Y-39660404D01*
X107326864Y-39591895D01*
X107326858Y-39591887D01*
X107270912Y-39535941D01*
X107270904Y-39535935D01*
X107202395Y-39496382D01*
X107202390Y-39496379D01*
X107176913Y-39489552D01*
X107125962Y-39475900D01*
X107125960Y-39475900D01*
X106367900Y-39475900D01*
X106300861Y-39456215D01*
X106255106Y-39403411D01*
X106243900Y-39351900D01*
X106243900Y-38593839D01*
X106223420Y-38517409D01*
X106223417Y-38517404D01*
X106183864Y-38448895D01*
X106183858Y-38448887D01*
X106127912Y-38392941D01*
X106127904Y-38392935D01*
X106059395Y-38353382D01*
X106059390Y-38353379D01*
X106033913Y-38346552D01*
X105982962Y-38332900D01*
X105903838Y-38332900D01*
X105865624Y-38343139D01*
X105827409Y-38353379D01*
X105827404Y-38353382D01*
X105758895Y-38392935D01*
X105758887Y-38392941D01*
X105702941Y-38448887D01*
X105702935Y-38448895D01*
X105663382Y-38517404D01*
X105663379Y-38517409D01*
X105642900Y-38593839D01*
X105642900Y-39351900D01*
X105623215Y-39418939D01*
X105570411Y-39464694D01*
X105518900Y-39475900D01*
X104760838Y-39475900D01*
X104722624Y-39486139D01*
X104684409Y-39496379D01*
X104684404Y-39496382D01*
X104615895Y-39535935D01*
X104615887Y-39535941D01*
X104559941Y-39591887D01*
X104559935Y-39591895D01*
X104520382Y-39660404D01*
X104520379Y-39660409D01*
X104506726Y-39711362D01*
X104499900Y-39736838D01*
X102870000Y-39736838D01*
X102870000Y-37462000D01*
X102889685Y-37394961D01*
X102942489Y-37349206D01*
X102994000Y-37338000D01*
X107572000Y-37338000D01*
X107639039Y-37357685D01*
G37*
%TD.AperFunction*%
%TD*%
%TA.AperFunction,Conductor*%
%TO.N,+3V0*%
G36*
X104267000Y-24962798D02*
G01*
X104267000Y-29819600D01*
X104241600Y-29845000D01*
X104140000Y-29845000D01*
X102246900Y-29845000D01*
X102179861Y-29825315D01*
X102134106Y-29772511D01*
X102122900Y-29721000D01*
X102122900Y-25047998D01*
X102142585Y-24980959D01*
X102195389Y-24935204D01*
X102246900Y-24923998D01*
X104228200Y-24923998D01*
X104267000Y-24962798D01*
G37*
%TD.AperFunction*%
%TD*%
M02*
